<svg xmlns="http://www.w3.org/2000/svg" width="560" height="400">
  <rect width="560" height="400" fill="white"/>
  <text x="280" y="30" text-anchor="middle" font-size="13" font-weight="bold">Speedup — 100x100 mesh, static scheduling</text>
  <path d="M70.0,40.0 L70.0,340.0 L540.0,340.0" stroke="#333" fill="none" stroke-width="1.5"/>
  <line x1="70.0" y1="340.0" x2="70.0" y2="345.0" stroke="#333" stroke-width="1"/><text x="70.0" y="356.0" text-anchor="middle" font-size="11">1</text><line x1="137.1" y1="340.0" x2="137.1" y2="345.0" stroke="#333" stroke-width="1"/><text x="137.1" y="356.0" text-anchor="middle" font-size="11">2</text><line x1="271.4" y1="340.0" x2="271.4" y2="345.0" stroke="#333" stroke-width="1"/><text x="271.4" y="356.0" text-anchor="middle" font-size="11">4</text><line x1="540.0" y1="340.0" x2="540.0" y2="345.0" stroke="#333" stroke-width="1"/><text x="540.0" y="356.0" text-anchor="middle" font-size="11">8</text>
  <line x1="70.0" y1="340.0" x2="65.0" y2="340.0" stroke="#333" stroke-width="1"/><text x="62.0" y="344.0" text-anchor="end" font-size="10">0.0</text><line x1="70.0" y1="280.0" x2="65.0" y2="280.0" stroke="#333" stroke-width="1"/><text x="62.0" y="284.0" text-anchor="end" font-size="10">1.7</text><line x1="70.0" y1="220.0" x2="65.0" y2="220.0" stroke="#333" stroke-width="1"/><text x="62.0" y="224.0" text-anchor="end" font-size="10">3.4</text><line x1="70.0" y1="160.0" x2="65.0" y2="160.0" stroke="#333" stroke-width="1"/><text x="62.0" y="164.0" text-anchor="end" font-size="10">5.0</text><line x1="70.0" y1="100.0" x2="65.0" y2="100.0" stroke="#333" stroke-width="1"/><text x="62.0" y="104.0" text-anchor="end" font-size="10">6.7</text><line x1="70.0" y1="40.0" x2="65.0" y2="40.0" stroke="#333" stroke-width="1"/><text x="62.0" y="44.0" text-anchor="end" font-size="10">8.4</text>
  <line x1="70.0" y1="304.3" x2="540.0" y2="54.3" stroke="#aaa" stroke-dasharray="6,3" stroke-width="1.5"/><path d="M70.0,304.8 L70.0,304.3 L70.0,304.0 L137.1,271.6 L137.1,270.7 L137.1,270.3 L271.4,209.0 L271.4,208.7 L271.4,207.2 L540.0,132.5 L540.0,115.5 L540.0,112.7" stroke="#e74c3c" fill="none" stroke-width="2"/><circle cx="70.0" cy="304.8" r="4" fill="#e74c3c"/><circle cx="70.0" cy="304.3" r="4" fill="#e74c3c"/><circle cx="70.0" cy="304.0" r="4" fill="#e74c3c"/><circle cx="137.1" cy="271.6" r="4" fill="#e74c3c"/><circle cx="137.1" cy="270.7" r="4" fill="#e74c3c"/><circle cx="137.1" cy="270.3" r="4" fill="#e74c3c"/><circle cx="271.4" cy="209.0" r="4" fill="#e74c3c"/><circle cx="271.4" cy="208.7" r="4" fill="#e74c3c"/><circle cx="271.4" cy="207.2" r="4" fill="#e74c3c"/><circle cx="540.0" cy="132.5" r="4" fill="#e74c3c"/><circle cx="540.0" cy="115.5" r="4" fill="#e74c3c"/><circle cx="540.0" cy="112.7" r="4" fill="#e74c3c"/><path d="M70.0,319.6 L70.0,304.3 L70.0,303.7 L137.1,269.6 L137.1,269.6 L137.1,269.0 L271.4,205.4 L271.4,205.1 L271.4,204.6 L540.0,108.4 L540.0,108.2 L540.0,107.2" stroke="#3498db" fill="none" stroke-width="2"/><circle cx="70.0" cy="319.6" r="4" fill="#3498db"/><circle cx="70.0" cy="304.3" r="4" fill="#3498db"/><circle cx="70.0" cy="303.7" r="4" fill="#3498db"/><circle cx="137.1" cy="269.6" r="4" fill="#3498db"/><circle cx="137.1" cy="269.6" r="4" fill="#3498db"/><circle cx="137.1" cy="269.0" r="4" fill="#3498db"/><circle cx="271.4" cy="205.4" r="4" fill="#3498db"/><circle cx="271.4" cy="205.1" r="4" fill="#3498db"/><circle cx="271.4" cy="204.6" r="4" fill="#3498db"/><circle cx="540.0" cy="108.4" r="4" fill="#3498db"/><circle cx="540.0" cy="108.2" r="4" fill="#3498db"/><circle cx="540.0" cy="107.2" r="4" fill="#3498db"/>
  <g transform="translate(80,50)"><line x1="0" y1="6" x2="20" y2="6" stroke="#aaa" stroke-dasharray="6,3" stroke-width="1.5"/><text x="24" y="10" font-size="10">Ideal linear</text></g><g transform="translate(80,68)"><line x1="0" y1="6" x2="20" y2="6" stroke="#e74c3c" stroke-width="2"/><text x="24" y="10" font-size="10">hotspot1</text></g><g transform="translate(80,86)"><line x1="0" y1="6" x2="20" y2="6" stroke="#3498db" stroke-width="2"/><text x="24" y="10" font-size="10">uniform</text></g>
  <text x="280" y="390" text-anchor="middle" font-size="12">Number of Threads</text>
  <text x="14" y="200" text-anchor="middle" font-size="12" transform="rotate(-90 14 200)">Speedup</text>
</svg>