<svg xmlns="http://www.w3.org/2000/svg" viewBox="0 0 560 400" width="560" height="400">
  <rect width="560" height="400" fill="white"/>
  <text x="280" y="30" text-anchor="middle" font-size="13" font-weight="bold">Time Breakdown — 100x100, uniform, static</text>
  <path d="M70.0,40.0 L70.0,340.0 L540.0,340.0" stroke="#333" fill="none" stroke-width="1.5"/>
  <line x1="70.0" y1="340.0" x2="70.0" y2="345.0" stroke="#333" stroke-width="1"/><text x="70.0" y="356.0" text-anchor="middle" font-size="11">1</text><line x1="137.1" y1="340.0" x2="137.1" y2="345.0" stroke="#333" stroke-width="1"/><text x="137.1" y="356.0" text-anchor="middle" font-size="11">2</text><line x1="271.4" y1="340.0" x2="271.4" y2="345.0" stroke="#333" stroke-width="1"/><text x="271.4" y="356.0" text-anchor="middle" font-size="11">4</text><line x1="540.0" y1="340.0" x2="540.0" y2="345.0" stroke="#333" stroke-width="1"/><text x="540.0" y="356.0" text-anchor="middle" font-size="11">8</text>
  <line x1="70.0" y1="340.0" x2="65.0" y2="340.0" stroke="#333" stroke-width="1"/><text x="62.0" y="344.0" text-anchor="end" font-size="10">0.0</text><line x1="70.0" y1="280.0" x2="65.0" y2="280.0" stroke="#333" stroke-width="1"/><text x="62.0" y="284.0" text-anchor="end" font-size="10">10.1</text><line x1="70.0" y1="220.0" x2="65.0" y2="220.0" stroke="#333" stroke-width="1"/><text x="62.0" y="224.0" text-anchor="end" font-size="10">20.2</text><line x1="70.0" y1="160.0" x2="65.0" y2="160.0" stroke="#333" stroke-width="1"/><text x="62.0" y="164.0" text-anchor="end" font-size="10">30.3</text><line x1="70.0" y1="100.0" x2="65.0" y2="100.0" stroke="#333" stroke-width="1"/><text x="62.0" y="104.0" text-anchor="end" font-size="10">40.4</text><line x1="70.0" y1="40.0" x2="65.0" y2="40.0" stroke="#333" stroke-width="1"/><text x="62.0" y="44.0" text-anchor="end" font-size="10">50.5</text>
  <path d="M70.0,186.6 L70.0,183.7 L70.0,67.3 L137.1,261.0 L137.1,260.4 L137.1,260.3 L271.4,298.8 L271.4,298.6 L271.4,298.5 L540.0,316.5 L540.0,316.5 L540.0,316.4" stroke="#e74c3c" fill="none" stroke-width="2"/><circle cx="70.0" cy="186.6" r="4" fill="#e74c3c"/><circle cx="70.0" cy="183.7" r="4" fill="#e74c3c"/><circle cx="70.0" cy="67.3" r="4" fill="#e74c3c"/><circle cx="137.1" cy="261.0" r="4" fill="#e74c3c"/><circle cx="137.1" cy="260.4" r="4" fill="#e74c3c"/><circle cx="137.1" cy="260.3" r="4" fill="#e74c3c"/><circle cx="271.4" cy="298.8" r="4" fill="#e74c3c"/><circle cx="271.4" cy="298.6" r="4" fill="#e74c3c"/><circle cx="271.4" cy="298.5" r="4" fill="#e74c3c"/><circle cx="540.0" cy="316.5" r="4" fill="#e74c3c"/><circle cx="540.0" cy="316.5" r="4" fill="#e74c3c"/><circle cx="540.0" cy="316.4" r="4" fill="#e74c3c"/><path d="M70.0,328.0 L70.0,327.7 L70.0,317.8 L137.1,334.4 L137.1,334.4 L137.1,334.3 L271.4,337.0 L271.4,336.8 L271.4,336.8 L540.0,337.7 L540.0,337.7 L540.0,337.6" stroke="#3498db" fill="none" stroke-width="2"/><circle cx="70.0" cy="328.0" r="4" fill="#3498db"/><circle cx="70.0" cy="327.7" r="4" fill="#3498db"/><circle cx="70.0" cy="317.8" r="4" fill="#3498db"/><circle cx="137.1" cy="334.4" r="4" fill="#3498db"/><circle cx="137.1" cy="334.4" r="4" fill="#3498db"/><circle cx="137.1" cy="334.3" r="4" fill="#3498db"/><circle cx="271.4" cy="337.0" r="4" fill="#3498db"/><circle cx="271.4" cy="336.8" r="4" fill="#3498db"/><circle cx="271.4" cy="336.8" r="4" fill="#3498db"/><circle cx="540.0" cy="337.7" r="4" fill="#3498db"/><circle cx="540.0" cy="337.7" r="4" fill="#3498db"/><circle cx="540.0" cy="337.6" r="4" fill="#3498db"/>
  <g transform="translate(80,50)"><line x1="0" y1="6" x2="20" y2="6" stroke="#e74c3c" stroke-width="2"/><text x="24" y="10" font-size="10">Thermal update</text></g><g transform="translate(80,68)"><line x1="0" y1="6" x2="20" y2="6" stroke="#3498db" stroke-width="2"/><text x="24" y="10" font-size="10">Geometry update</text></g>
  <text x="280" y="390" text-anchor="middle" font-size="12">Number of Threads</text>
  <text x="14" y="200" text-anchor="middle" font-size="12" transform="rotate(-90 14 200)">Time (ms)</text>
</svg>