<svg xmlns="http://www.w3.org/2000/svg" viewBox="0 0 700 400"><rect width="700" height="400" fill="white"/><text x="350" y="22" text-anchor="middle" font-size="13" font-weight="bold">Buckling Profile — Cross-Section Through Hotspot</text><rect x="70" y="45" width="285" height="300" fill="white" stroke="#ccc"/><line x1="70" y1="345.0" x2="355" y2="345.0" stroke="#ddd" stroke-dasharray="4,2"/><path d="M70.0,345.0 L70.6,342.0 L71.1,340.2 L71.7,339.2 L72.3,338.7 L72.9,338.5 L73.4,338.4 L74.0,338.4 L74.6,338.4 L75.1,338.3 L75.7,338.3 L76.3,338.3 L76.9,338.3 L77.4,338.3 L78.0,338.3 L78.6,338.3 L79.1,338.3 L79.7,338.3 L80.3,338.3 L80.9,338.3 L81.4,338.3 L82.0,338.3 L82.6,338.3 L83.1,338.3 L83.7,338.3 L84.3,338.3 L84.8,338.3 L85.4,338.3 L86.0,338.3 L86.6,338.3 L87.1,338.3 L87.7,338.3 L88.3,338.3 L88.8,338.3 L89.4,338.3 L90.0,338.3 L90.6,338.3 L91.1,338.3 L91.7,338.3 L92.3,338.3 L92.8,338.3 L93.4,338.3 L94.0,338.3 L94.6,338.3 L95.1,338.3 L95.7,338.3 L96.3,338.3 L96.8,338.3 L97.4,338.3 L98.0,338.3 L98.6,338.3 L99.1,338.3 L99.7,338.3 L100.3,338.3 L100.8,338.3 L101.4,338.3 L102.0,338.3 L102.6,338.3 L103.1,338.3 L103.7,338.3 L104.3,338.3 L104.8,338.3 L105.4,338.3 L106.0,338.3 L106.6,338.3 L107.1,338.3 L107.7,338.3 L108.3,338.3 L108.8,338.3 L109.4,338.3 L110.0,338.3 L110.6,338.3 L111.1,338.3 L111.7,338.3 L112.3,338.3 L112.8,338.3 L113.4,338.3 L114.0,338.3 L114.5,338.3 L115.1,338.3 L115.7,338.3 L116.3,338.3 L116.8,338.3 L117.4,338.3 L118.0,338.3 L118.5,338.3 L119.1,338.3 L119.7,338.3 L120.3,338.3 L120.8,338.3 L121.4,338.3 L122.0,338.3 L122.5,338.3 L123.1,338.3 L123.7,338.3 L124.3,338.3 L124.8,338.3 L125.4,338.3 L126.0,338.3 L126.5,338.3 L127.1,338.3 L127.7,338.3 L128.3,338.3 L128.8,338.3 L129.4,338.3 L130.0,338.3 L130.5,338.3 L131.1,338.3 L131.7,338.3 L132.3,338.3 L132.8,338.3 L133.4,338.3 L134.0,338.3 L134.5,338.3 L135.1,338.3 L135.7,338.3 L136.3,338.3 L136.8,338.3 L137.4,338.3 L138.0,338.3 L138.5,338.3 L139.1,338.3 L139.7,338.3 L140.3,338.3 L140.8,338.3 L141.4,338.3 L142.0,338.3 L142.5,338.3 L143.1,338.3 L143.7,338.3 L144.2,338.3 L144.8,338.3 L145.4,338.3 L146.0,338.3 L146.5,338.3 L147.1,338.3 L147.7,338.3 L148.2,338.3 L148.8,338.3 L149.4,338.3 L150.0,338.3 L150.5,338.3 L151.1,338.3 L151.7,338.3 L152.2,338.3 L152.8,338.3 L153.4,338.3 L154.0,338.3 L154.5,338.3 L155.1,338.3 L155.7,338.3 L156.2,338.3 L156.8,338.3 L157.4,338.3 L158.0,338.3 L158.5,338.3 L159.1,338.3 L159.7,338.3 L160.2,338.3 L160.8,338.3 L161.4,338.3 L162.0,338.3 L162.5,338.3 L163.1,338.3 L163.7,338.3 L164.2,338.3 L164.8,338.3 L165.4,338.3 L166.0,338.3 L166.5,338.3 L167.1,338.3 L167.7,338.3 L168.2,338.3 L168.8,338.3 L169.4,338.3 L169.9,338.3 L170.5,338.3 L171.1,338.3 L171.7,338.3 L172.2,338.3 L172.8,338.3 L173.4,338.3 L173.9,338.3 L174.5,338.3 L175.1,338.3 L175.7,338.3 L176.2,338.3 L176.8,338.3 L177.4,338.3 L177.9,338.3 L178.5,338.3 L179.1,338.3 L179.7,338.2 L180.2,338.0 L180.8,337.3 L181.4,335.8 L181.9,332.2 L182.5,324.9 L183.1,310.9 L183.7,286.1 L184.2,162.7 L184.8,106.7 L185.4,75.1 L185.9,58.7 L186.5,50.8 L187.1,47.3 L187.7,45.8 L188.2,45.3 L188.8,45.1 L189.4,45.0 L189.9,45.0 L190.5,45.0 L191.1,45.0 L191.7,45.0 L192.2,45.0 L192.8,45.0 L193.4,45.0 L193.9,45.0 L194.5,45.0 L195.1,45.0 L195.7,45.0 L196.2,45.0 L196.8,45.0 L197.4,45.0 L197.9,45.0 L198.5,45.0 L199.1,45.0 L199.6,45.0 L200.2,45.0 L200.8,45.0 L201.4,45.0 L201.9,45.0 L202.5,45.0 L203.1,45.0 L203.6,45.0 L204.2,45.0 L204.8,45.0 L205.4,45.0 L205.9,45.0 L206.5,45.0 L207.1,45.0 L207.6,45.0 L208.2,45.0 L208.8,45.0 L209.4,45.0 L209.9,45.0 L210.5,45.0 L211.1,45.0 L211.6,45.0 L212.2,45.0 L212.8,45.0 L213.4,45.0 L213.9,45.0 L214.5,45.0 L215.1,45.0 L215.6,45.0 L216.2,45.0 L216.8,45.0 L217.4,45.0 L217.9,45.0 L218.5,45.0 L219.1,45.0 L219.6,45.0 L220.2,45.0 L220.8,45.0 L221.4,45.0 L221.9,45.0 L222.5,45.0 L223.1,45.0 L223.6,45.0 L224.2,45.0 L224.8,45.0 L225.4,45.0 L225.9,45.0 L226.5,45.0 L227.1,45.0 L227.6,45.0 L228.2,45.0 L228.8,45.0 L229.3,45.0 L229.9,45.0 L230.5,45.0 L231.1,45.0 L231.6,45.0 L232.2,45.0 L232.8,45.0 L233.3,45.0 L233.9,45.0 L234.5,45.0 L235.1,45.0 L235.6,45.0 L236.2,45.0 L236.8,45.1 L237.3,45.3 L237.9,45.8 L238.5,47.3 L239.1,50.8 L239.6,58.7 L240.2,75.1 L240.8,106.7 L241.3,162.7 L241.9,286.1 L242.5,310.9 L243.1,324.9 L243.6,332.2 L244.2,335.8 L244.8,337.3 L245.3,338.0 L245.9,338.2 L246.5,338.3 L247.1,338.3 L247.6,338.3 L248.2,338.3 L248.8,338.3 L249.3,338.3 L249.9,338.3 L250.5,338.3 L251.1,338.3 L251.6,338.3 L252.2,338.3 L252.8,338.3 L253.3,338.3 L253.9,338.3 L254.5,338.3 L255.1,338.3 L255.6,338.3 L256.2,338.3 L256.8,338.3 L257.3,338.3 L257.9,338.3 L258.5,338.3 L259.0,338.3 L259.6,338.3 L260.2,338.3 L260.8,338.3 L261.3,338.3 L261.9,338.3 L262.5,338.3 L263.0,338.3 L263.6,338.3 L264.2,338.3 L264.8,338.3 L265.3,338.3 L265.9,338.3 L266.5,338.3 L267.0,338.3 L267.6,338.3 L268.2,338.3 L268.8,338.3 L269.3,338.3 L269.9,338.3 L270.5,338.3 L271.0,338.3 L271.6,338.3 L272.2,338.3 L272.8,338.3 L273.3,338.3 L273.9,338.3 L274.5,338.3 L275.0,338.3 L275.6,338.3 L276.2,338.3 L276.8,338.3 L277.3,338.3 L277.9,338.3 L278.5,338.3 L279.0,338.3 L279.6,338.3 L280.2,338.3 L280.8,338.3 L281.3,338.3 L281.9,338.3 L282.5,338.3 L283.0,338.3 L283.6,338.3 L284.2,338.3 L284.7,338.3 L285.3,338.3 L285.9,338.3 L286.5,338.3 L287.0,338.3 L287.6,338.3 L288.2,338.3 L288.7,338.3 L289.3,338.3 L289.9,338.3 L290.5,338.3 L291.0,338.3 L291.6,338.3 L292.2,338.3 L292.7,338.3 L293.3,338.3 L293.9,338.3 L294.5,338.3 L295.0,338.3 L295.6,338.3 L296.2,338.3 L296.7,338.3 L297.3,338.3 L297.9,338.3 L298.5,338.3 L299.0,338.3 L299.6,338.3 L300.2,338.3 L300.7,338.3 L301.3,338.3 L301.9,338.3 L302.5,338.3 L303.0,338.3 L303.6,338.3 L304.2,338.3 L304.7,338.3 L305.3,338.3 L305.9,338.3 L306.5,338.3 L307.0,338.3 L307.6,338.3 L308.2,338.3 L308.7,338.3 L309.3,338.3 L309.9,338.3 L310.5,338.3 L311.0,338.3 L311.6,338.3 L312.2,338.3 L312.7,338.3 L313.3,338.3 L313.9,338.3 L314.4,338.3 L315.0,338.3 L315.6,338.3 L316.2,338.3 L316.7,338.3 L317.3,338.3 L317.9,338.3 L318.4,338.3 L319.0,338.3 L319.6,338.3 L320.2,338.3 L320.7,338.3 L321.3,338.3 L321.9,338.3 L322.4,338.3 L323.0,338.3 L323.6,338.3 L324.2,338.3 L324.7,338.3 L325.3,338.3 L325.9,338.3 L326.4,338.3 L327.0,338.3 L327.6,338.3 L328.2,338.3 L328.7,338.3 L329.3,338.3 L329.9,338.3 L330.4,338.3 L331.0,338.3 L331.6,338.3 L332.2,338.3 L332.7,338.3 L333.3,338.3 L333.9,338.3 L334.4,338.3 L335.0,338.3 L335.6,338.3 L336.2,338.3 L336.7,338.3 L337.3,338.3 L337.9,338.3 L338.4,338.3 L339.0,338.3 L339.6,338.3 L340.2,338.3 L340.7,338.3 L341.3,338.3 L341.9,338.3 L342.4,338.3 L343.0,338.3 L343.6,338.3 L344.1,338.3 L344.7,338.3 L345.3,338.3 L345.9,338.3 L346.4,338.3 L347.0,338.3 L347.6,338.3 L348.1,338.3 L348.7,338.3 L349.3,338.3 L349.9,338.3 L350.4,338.4 L351.0,338.4 L351.6,338.4 L352.1,338.5 L352.7,338.7 L353.3,339.2 L353.9,340.2 L354.4,342.0 L355.0,345.0" stroke="#e74c3c" fill="none" stroke-width="2"/><path d="M70.0,315.0 L70.6,311.4 L71.1,309.3 L71.7,308.1 L72.3,307.5 L72.9,307.2 L73.4,307.1 L74.0,307.0 L74.6,307.0 L75.1,307.0 L75.7,307.0 L76.3,307.0 L76.9,307.0 L77.4,307.0 L78.0,307.0 L78.6,307.0 L79.1,307.0 L79.7,307.0 L80.3,307.0 L80.9,307.0 L81.4,307.0 L82.0,307.0 L82.6,307.0 L83.1,307.0 L83.7,307.0 L84.3,307.0 L84.8,307.0 L85.4,307.0 L86.0,307.0 L86.6,307.0 L87.1,307.0 L87.7,307.0 L88.3,307.0 L88.8,307.0 L89.4,307.0 L90.0,307.0 L90.6,307.0 L91.1,307.0 L91.7,307.0 L92.3,307.0 L92.8,307.0 L93.4,307.0 L94.0,307.0 L94.6,307.0 L95.1,307.0 L95.7,307.0 L96.3,307.0 L96.8,307.0 L97.4,307.0 L98.0,307.0 L98.6,307.0 L99.1,307.0 L99.7,307.0 L100.3,307.0 L100.8,307.0 L101.4,307.0 L102.0,307.0 L102.6,307.0 L103.1,307.0 L103.7,307.0 L104.3,307.0 L104.8,307.0 L105.4,307.0 L106.0,307.0 L106.6,307.0 L107.1,307.0 L107.7,307.0 L108.3,307.0 L108.8,307.0 L109.4,307.0 L110.0,307.0 L110.6,307.0 L111.1,307.0 L111.7,307.0 L112.3,307.0 L112.8,307.0 L113.4,307.0 L114.0,307.0 L114.5,307.0 L115.1,307.0 L115.7,307.0 L116.3,307.0 L116.8,307.0 L117.4,307.0 L118.0,307.0 L118.5,307.0 L119.1,307.0 L119.7,307.0 L120.3,307.0 L120.8,307.0 L121.4,307.0 L122.0,307.0 L122.5,307.0 L123.1,307.0 L123.7,307.0 L124.3,307.0 L124.8,307.0 L125.4,307.0 L126.0,307.0 L126.5,307.0 L127.1,307.0 L127.7,307.0 L128.3,307.0 L128.8,307.0 L129.4,307.0 L130.0,307.0 L130.5,307.0 L131.1,307.0 L131.7,307.0 L132.3,307.0 L132.8,307.0 L133.4,307.0 L134.0,307.0 L134.5,307.0 L135.1,307.0 L135.7,307.0 L136.3,307.0 L136.8,307.0 L137.4,307.0 L138.0,307.0 L138.5,307.0 L139.1,307.0 L139.7,307.0 L140.3,307.0 L140.8,307.0 L141.4,307.0 L142.0,307.0 L142.5,307.0 L143.1,307.0 L143.7,307.0 L144.2,307.0 L144.8,307.0 L145.4,307.0 L146.0,307.0 L146.5,307.0 L147.1,307.0 L147.7,307.0 L148.2,307.0 L148.8,307.0 L149.4,307.0 L150.0,307.0 L150.5,307.0 L151.1,307.0 L151.7,307.0 L152.2,307.0 L152.8,307.0 L153.4,307.0 L154.0,307.0 L154.5,307.0 L155.1,307.0 L155.7,307.0 L156.2,307.0 L156.8,307.0 L157.4,307.0 L158.0,307.0 L158.5,307.0 L159.1,307.0 L159.7,307.0 L160.2,307.0 L160.8,307.0 L161.4,307.0 L162.0,307.0 L162.5,307.0 L163.1,307.0 L163.7,307.0 L164.2,307.0 L164.8,307.0 L165.4,307.0 L166.0,307.0 L166.5,307.0 L167.1,307.0 L167.7,307.0 L168.2,307.0 L168.8,307.0 L169.4,307.0 L169.9,307.0 L170.5,307.0 L171.1,307.0 L171.7,307.0 L172.2,307.0 L172.8,307.0 L173.4,307.0 L173.9,307.0 L174.5,307.0 L175.1,307.0 L175.7,307.0 L176.2,307.0 L176.8,307.0 L177.4,307.0 L177.9,307.0 L178.5,307.0 L179.1,307.0 L179.7,306.9 L180.2,306.6 L180.8,305.8 L181.4,303.9 L181.9,299.7 L182.5,290.9 L183.1,274.1 L183.7,244.3 L184.2,169.1 L184.8,124.3 L185.4,99.1 L185.9,86.0 L186.5,79.6 L187.1,76.8 L187.7,75.7 L188.2,75.2 L188.8,75.1 L189.4,75.0 L189.9,75.0 L190.5,75.0 L191.1,75.0 L191.7,75.0 L192.2,75.0 L192.8,75.0 L193.4,75.0 L193.9,75.0 L194.5,75.0 L195.1,75.0 L195.7,75.0 L196.2,75.0 L196.8,75.0 L197.4,75.0 L197.9,75.0 L198.5,75.0 L199.1,75.0 L199.6,75.0 L200.2,75.0 L200.8,75.0 L201.4,75.0 L201.9,75.0 L202.5,75.0 L203.1,75.0 L203.6,75.0 L204.2,75.0 L204.8,75.0 L205.4,75.0 L205.9,75.0 L206.5,75.0 L207.1,75.0 L207.6,75.0 L208.2,75.0 L208.8,75.0 L209.4,75.0 L209.9,75.0 L210.5,75.0 L211.1,75.0 L211.6,75.0 L212.2,75.0 L212.8,75.0 L213.4,75.0 L213.9,75.0 L214.5,75.0 L215.1,75.0 L215.6,75.0 L216.2,75.0 L216.8,75.0 L217.4,75.0 L217.9,75.0 L218.5,75.0 L219.1,75.0 L219.6,75.0 L220.2,75.0 L220.8,75.0 L221.4,75.0 L221.9,75.0 L222.5,75.0 L223.1,75.0 L223.6,75.0 L224.2,75.0 L224.8,75.0 L225.4,75.0 L225.9,75.0 L226.5,75.0 L227.1,75.0 L227.6,75.0 L228.2,75.0 L228.8,75.0 L229.3,75.0 L229.9,75.0 L230.5,75.0 L231.1,75.0 L231.6,75.0 L232.2,75.0 L232.8,75.0 L233.3,75.0 L233.9,75.0 L234.5,75.0 L235.1,75.0 L235.6,75.0 L236.2,75.0 L236.8,75.1 L237.3,75.2 L237.9,75.7 L238.5,76.8 L239.1,79.6 L239.6,86.0 L240.2,99.1 L240.8,124.3 L241.3,169.1 L241.9,244.3 L242.5,274.1 L243.1,290.9 L243.6,299.7 L244.2,303.9 L244.8,305.8 L245.3,306.6 L245.9,306.9 L246.5,307.0 L247.1,307.0 L247.6,307.0 L248.2,307.0 L248.8,307.0 L249.3,307.0 L249.9,307.0 L250.5,307.0 L251.1,307.0 L251.6,307.0 L252.2,307.0 L252.8,307.0 L253.3,307.0 L253.9,307.0 L254.5,307.0 L255.1,307.0 L255.6,307.0 L256.2,307.0 L256.8,307.0 L257.3,307.0 L257.9,307.0 L258.5,307.0 L259.0,307.0 L259.6,307.0 L260.2,307.0 L260.8,307.0 L261.3,307.0 L261.9,307.0 L262.5,307.0 L263.0,307.0 L263.6,307.0 L264.2,307.0 L264.8,307.0 L265.3,307.0 L265.9,307.0 L266.5,307.0 L267.0,307.0 L267.6,307.0 L268.2,307.0 L268.8,307.0 L269.3,307.0 L269.9,307.0 L270.5,307.0 L271.0,307.0 L271.6,307.0 L272.2,307.0 L272.8,307.0 L273.3,307.0 L273.9,307.0 L274.5,307.0 L275.0,307.0 L275.6,307.0 L276.2,307.0 L276.8,307.0 L277.3,307.0 L277.9,307.0 L278.5,307.0 L279.0,307.0 L279.6,307.0 L280.2,307.0 L280.8,307.0 L281.3,307.0 L281.9,307.0 L282.5,307.0 L283.0,307.0 L283.6,307.0 L284.2,307.0 L284.7,307.0 L285.3,307.0 L285.9,307.0 L286.5,307.0 L287.0,307.0 L287.6,307.0 L288.2,307.0 L288.7,307.0 L289.3,307.0 L289.9,307.0 L290.5,307.0 L291.0,307.0 L291.6,307.0 L292.2,307.0 L292.7,307.0 L293.3,307.0 L293.9,307.0 L294.5,307.0 L295.0,307.0 L295.6,307.0 L296.2,307.0 L296.7,307.0 L297.3,307.0 L297.9,307.0 L298.5,307.0 L299.0,307.0 L299.6,307.0 L300.2,307.0 L300.7,307.0 L301.3,307.0 L301.9,307.0 L302.5,307.0 L303.0,307.0 L303.6,307.0 L304.2,307.0 L304.7,307.0 L305.3,307.0 L305.9,307.0 L306.5,307.0 L307.0,307.0 L307.6,307.0 L308.2,307.0 L308.7,307.0 L309.3,307.0 L309.9,307.0 L310.5,307.0 L311.0,307.0 L311.6,307.0 L312.2,307.0 L312.7,307.0 L313.3,307.0 L313.9,307.0 L314.4,307.0 L315.0,307.0 L315.6,307.0 L316.2,307.0 L316.7,307.0 L317.3,307.0 L317.9,307.0 L318.4,307.0 L319.0,307.0 L319.6,307.0 L320.2,307.0 L320.7,307.0 L321.3,307.0 L321.9,307.0 L322.4,307.0 L323.0,307.0 L323.6,307.0 L324.2,307.0 L324.7,307.0 L325.3,307.0 L325.9,307.0 L326.4,307.0 L327.0,307.0 L327.6,307.0 L328.2,307.0 L328.7,307.0 L329.3,307.0 L329.9,307.0 L330.4,307.0 L331.0,307.0 L331.6,307.0 L332.2,307.0 L332.7,307.0 L333.3,307.0 L333.9,307.0 L334.4,307.0 L335.0,307.0 L335.6,307.0 L336.2,307.0 L336.7,307.0 L337.3,307.0 L337.9,307.0 L338.4,307.0 L339.0,307.0 L339.6,307.0 L340.2,307.0 L340.7,307.0 L341.3,307.0 L341.9,307.0 L342.4,307.0 L343.0,307.0 L343.6,307.0 L344.1,307.0 L344.7,307.0 L345.3,307.0 L345.9,307.0 L346.4,307.0 L347.0,307.0 L347.6,307.0 L348.1,307.0 L348.7,307.0 L349.3,307.0 L349.9,307.0 L350.4,307.0 L351.0,307.0 L351.6,307.1 L352.1,307.2 L352.7,307.5 L353.3,308.1 L353.9,309.3 L354.4,311.4 L355.0,315.0" stroke="#3498db" fill="none" stroke-width="1.5" stroke-dasharray="6,3"/><text x="212" y="37" text-anchor="middle" font-size="11" font-weight="bold">Center Row (r=250)</text><text x="65" y="195" text-anchor="end" font-size="9" fill="#e74c3c" transform="rotate(-90 65 195)">z-displacement</text><text x="212" y="359" text-anchor="middle" font-size="10">Index</text><text x="67" y="49" text-anchor="end" font-size="8">0.600</text><text x="67" y="345" text-anchor="end" font-size="8">0.000</text><rect x="395" y="45" width="285" height="300" fill="white" stroke="#ccc"/><line x1="395" y1="345.0" x2="680" y2="345.0" stroke="#ddd" stroke-dasharray="4,2"/><path d="M395.0,345.0 L395.6,342.0 L396.1,340.2 L396.7,339.2 L397.3,338.7 L397.9,338.5 L398.4,338.4 L399.0,338.4 L399.6,338.4 L400.1,338.3 L400.7,338.3 L401.3,338.3 L401.9,338.3 L402.4,338.3 L403.0,338.3 L403.6,338.3 L404.1,338.3 L404.7,338.3 L405.3,338.3 L405.9,338.3 L406.4,338.3 L407.0,338.3 L407.6,338.3 L408.1,338.3 L408.7,338.3 L409.3,338.3 L409.8,338.3 L410.4,338.3 L411.0,338.3 L411.6,338.3 L412.1,338.3 L412.7,338.3 L413.3,338.3 L413.8,338.3 L414.4,338.3 L415.0,338.3 L415.6,338.3 L416.1,338.3 L416.7,338.3 L417.3,338.3 L417.8,338.3 L418.4,338.3 L419.0,338.3 L419.6,338.3 L420.1,338.3 L420.7,338.3 L421.3,338.3 L421.8,338.3 L422.4,338.3 L423.0,338.3 L423.6,338.3 L424.1,338.3 L424.7,338.3 L425.3,338.3 L425.8,338.3 L426.4,338.3 L427.0,338.3 L427.6,338.3 L428.1,338.3 L428.7,338.3 L429.3,338.3 L429.8,338.3 L430.4,338.3 L431.0,338.3 L431.6,338.3 L432.1,338.3 L432.7,338.3 L433.3,338.3 L433.8,338.3 L434.4,338.3 L435.0,338.3 L435.6,338.3 L436.1,338.3 L436.7,338.3 L437.3,338.3 L437.8,338.3 L438.4,338.3 L439.0,338.3 L439.5,338.3 L440.1,338.3 L440.7,338.3 L441.3,338.3 L441.8,338.3 L442.4,338.3 L443.0,338.3 L443.5,338.3 L444.1,338.3 L444.7,338.3 L445.3,338.3 L445.8,338.3 L446.4,338.3 L447.0,338.3 L447.5,338.3 L448.1,338.3 L448.7,338.3 L449.3,338.3 L449.8,338.3 L450.4,338.3 L451.0,338.3 L451.5,338.3 L452.1,338.3 L452.7,338.3 L453.3,338.3 L453.8,338.3 L454.4,338.3 L455.0,338.3 L455.5,338.3 L456.1,338.3 L456.7,338.3 L457.3,338.3 L457.8,338.3 L458.4,338.3 L459.0,338.3 L459.5,338.3 L460.1,338.3 L460.7,338.3 L461.3,338.3 L461.8,338.3 L462.4,338.3 L463.0,338.3 L463.5,338.3 L464.1,338.3 L464.7,338.3 L465.3,338.3 L465.8,338.3 L466.4,338.3 L467.0,338.3 L467.5,338.3 L468.1,338.3 L468.7,338.3 L469.2,338.3 L469.8,338.3 L470.4,338.3 L471.0,338.3 L471.5,338.3 L472.1,338.3 L472.7,338.3 L473.2,338.3 L473.8,338.3 L474.4,338.3 L475.0,338.3 L475.5,338.3 L476.1,338.3 L476.7,338.3 L477.2,338.3 L477.8,338.3 L478.4,338.3 L479.0,338.3 L479.5,338.3 L480.1,338.3 L480.7,338.3 L481.2,338.3 L481.8,338.3 L482.4,338.3 L483.0,338.3 L483.5,338.3 L484.1,338.3 L484.7,338.3 L485.2,338.3 L485.8,338.3 L486.4,338.3 L487.0,338.3 L487.5,338.3 L488.1,338.3 L488.7,338.3 L489.2,338.3 L489.8,338.3 L490.4,338.3 L491.0,338.3 L491.5,338.3 L492.1,338.3 L492.7,338.3 L493.2,338.3 L493.8,338.3 L494.4,338.3 L494.9,338.3 L495.5,338.3 L496.1,338.3 L496.7,338.3 L497.2,338.3 L497.8,338.3 L498.4,338.3 L498.9,338.3 L499.5,338.3 L500.1,338.3 L500.7,338.3 L501.2,338.3 L501.8,338.3 L502.4,338.3 L502.9,338.3 L503.5,338.3 L504.1,338.3 L504.7,338.2 L505.2,338.0 L505.8,337.3 L506.4,335.8 L506.9,332.2 L507.5,324.9 L508.1,310.9 L508.7,286.1 L509.2,162.7 L509.8,106.7 L510.4,75.1 L510.9,58.7 L511.5,50.8 L512.1,47.3 L512.7,45.8 L513.2,45.3 L513.8,45.1 L514.4,45.0 L514.9,45.0 L515.5,45.0 L516.1,45.0 L516.7,45.0 L517.2,45.0 L517.8,45.0 L518.4,45.0 L518.9,45.0 L519.5,45.0 L520.1,45.0 L520.7,45.0 L521.2,45.0 L521.8,45.0 L522.4,45.0 L522.9,45.0 L523.5,45.0 L524.1,45.0 L524.6,45.0 L525.2,45.0 L525.8,45.0 L526.4,45.0 L526.9,45.0 L527.5,45.0 L528.1,45.0 L528.6,45.0 L529.2,45.0 L529.8,45.0 L530.4,45.0 L530.9,45.0 L531.5,45.0 L532.1,45.0 L532.6,45.0 L533.2,45.0 L533.8,45.0 L534.4,45.0 L534.9,45.0 L535.5,45.0 L536.1,45.0 L536.6,45.0 L537.2,45.0 L537.8,45.0 L538.4,45.0 L538.9,45.0 L539.5,45.0 L540.1,45.0 L540.6,45.0 L541.2,45.0 L541.8,45.0 L542.4,45.0 L542.9,45.0 L543.5,45.0 L544.1,45.0 L544.6,45.0 L545.2,45.0 L545.8,45.0 L546.4,45.0 L546.9,45.0 L547.5,45.0 L548.1,45.0 L548.6,45.0 L549.2,45.0 L549.8,45.0 L550.4,45.0 L550.9,45.0 L551.5,45.0 L552.1,45.0 L552.6,45.0 L553.2,45.0 L553.8,45.0 L554.3,45.0 L554.9,45.0 L555.5,45.0 L556.1,45.0 L556.6,45.0 L557.2,45.0 L557.8,45.0 L558.3,45.0 L558.9,45.0 L559.5,45.0 L560.1,45.0 L560.6,45.0 L561.2,45.0 L561.8,45.1 L562.3,45.3 L562.9,45.8 L563.5,47.3 L564.1,50.8 L564.6,58.7 L565.2,75.1 L565.8,106.7 L566.3,162.7 L566.9,286.1 L567.5,310.9 L568.1,324.9 L568.6,332.2 L569.2,335.8 L569.8,337.3 L570.3,338.0 L570.9,338.2 L571.5,338.3 L572.1,338.3 L572.6,338.3 L573.2,338.3 L573.8,338.3 L574.3,338.3 L574.9,338.3 L575.5,338.3 L576.1,338.3 L576.6,338.3 L577.2,338.3 L577.8,338.3 L578.3,338.3 L578.9,338.3 L579.5,338.3 L580.1,338.3 L580.6,338.3 L581.2,338.3 L581.8,338.3 L582.3,338.3 L582.9,338.3 L583.5,338.3 L584.0,338.3 L584.6,338.3 L585.2,338.3 L585.8,338.3 L586.3,338.3 L586.9,338.3 L587.5,338.3 L588.0,338.3 L588.6,338.3 L589.2,338.3 L589.8,338.3 L590.3,338.3 L590.9,338.3 L591.5,338.3 L592.0,338.3 L592.6,338.3 L593.2,338.3 L593.8,338.3 L594.3,338.3 L594.9,338.3 L595.5,338.3 L596.0,338.3 L596.6,338.3 L597.2,338.3 L597.8,338.3 L598.3,338.3 L598.9,338.3 L599.5,338.3 L600.0,338.3 L600.6,338.3 L601.2,338.3 L601.8,338.3 L602.3,338.3 L602.9,338.3 L603.5,338.3 L604.0,338.3 L604.6,338.3 L605.2,338.3 L605.8,338.3 L606.3,338.3 L606.9,338.3 L607.5,338.3 L608.0,338.3 L608.6,338.3 L609.2,338.3 L609.7,338.3 L610.3,338.3 L610.9,338.3 L611.5,338.3 L612.0,338.3 L612.6,338.3 L613.2,338.3 L613.7,338.3 L614.3,338.3 L614.9,338.3 L615.5,338.3 L616.0,338.3 L616.6,338.3 L617.2,338.3 L617.7,338.3 L618.3,338.3 L618.9,338.3 L619.5,338.3 L620.0,338.3 L620.6,338.3 L621.2,338.3 L621.7,338.3 L622.3,338.3 L622.9,338.3 L623.5,338.3 L624.0,338.3 L624.6,338.3 L625.2,338.3 L625.7,338.3 L626.3,338.3 L626.9,338.3 L627.5,338.3 L628.0,338.3 L628.6,338.3 L629.2,338.3 L629.7,338.3 L630.3,338.3 L630.9,338.3 L631.5,338.3 L632.0,338.3 L632.6,338.3 L633.2,338.3 L633.7,338.3 L634.3,338.3 L634.9,338.3 L635.5,338.3 L636.0,338.3 L636.6,338.3 L637.2,338.3 L637.7,338.3 L638.3,338.3 L638.9,338.3 L639.4,338.3 L640.0,338.3 L640.6,338.3 L641.2,338.3 L641.7,338.3 L642.3,338.3 L642.9,338.3 L643.4,338.3 L644.0,338.3 L644.6,338.3 L645.2,338.3 L645.7,338.3 L646.3,338.3 L646.9,338.3 L647.4,338.3 L648.0,338.3 L648.6,338.3 L649.2,338.3 L649.7,338.3 L650.3,338.3 L650.9,338.3 L651.4,338.3 L652.0,338.3 L652.6,338.3 L653.2,338.3 L653.7,338.3 L654.3,338.3 L654.9,338.3 L655.4,338.3 L656.0,338.3 L656.6,338.3 L657.2,338.3 L657.7,338.3 L658.3,338.3 L658.9,338.3 L659.4,338.3 L660.0,338.3 L660.6,338.3 L661.2,338.3 L661.7,338.3 L662.3,338.3 L662.9,338.3 L663.4,338.3 L664.0,338.3 L664.6,338.3 L665.2,338.3 L665.7,338.3 L666.3,338.3 L666.9,338.3 L667.4,338.3 L668.0,338.3 L668.6,338.3 L669.1,338.3 L669.7,338.3 L670.3,338.3 L670.9,338.3 L671.4,338.3 L672.0,338.3 L672.6,338.3 L673.1,338.3 L673.7,338.3 L674.3,338.3 L674.9,338.3 L675.4,338.4 L676.0,338.4 L676.6,338.4 L677.1,338.5 L677.7,338.7 L678.3,339.2 L678.9,340.2 L679.4,342.0 L680.0,345.0" stroke="#e74c3c" fill="none" stroke-width="2"/><path d="M395.0,315.0 L395.6,311.4 L396.1,309.3 L396.7,308.1 L397.3,307.5 L397.9,307.2 L398.4,307.1 L399.0,307.0 L399.6,307.0 L400.1,307.0 L400.7,307.0 L401.3,307.0 L401.9,307.0 L402.4,307.0 L403.0,307.0 L403.6,307.0 L404.1,307.0 L404.7,307.0 L405.3,307.0 L405.9,307.0 L406.4,307.0 L407.0,307.0 L407.6,307.0 L408.1,307.0 L408.7,307.0 L409.3,307.0 L409.8,307.0 L410.4,307.0 L411.0,307.0 L411.6,307.0 L412.1,307.0 L412.7,307.0 L413.3,307.0 L413.8,307.0 L414.4,307.0 L415.0,307.0 L415.6,307.0 L416.1,307.0 L416.7,307.0 L417.3,307.0 L417.8,307.0 L418.4,307.0 L419.0,307.0 L419.6,307.0 L420.1,307.0 L420.7,307.0 L421.3,307.0 L421.8,307.0 L422.4,307.0 L423.0,307.0 L423.6,307.0 L424.1,307.0 L424.7,307.0 L425.3,307.0 L425.8,307.0 L426.4,307.0 L427.0,307.0 L427.6,307.0 L428.1,307.0 L428.7,307.0 L429.3,307.0 L429.8,307.0 L430.4,307.0 L431.0,307.0 L431.6,307.0 L432.1,307.0 L432.7,307.0 L433.3,307.0 L433.8,307.0 L434.4,307.0 L435.0,307.0 L435.6,307.0 L436.1,307.0 L436.7,307.0 L437.3,307.0 L437.8,307.0 L438.4,307.0 L439.0,307.0 L439.5,307.0 L440.1,307.0 L440.7,307.0 L441.3,307.0 L441.8,307.0 L442.4,307.0 L443.0,307.0 L443.5,307.0 L444.1,307.0 L444.7,307.0 L445.3,307.0 L445.8,307.0 L446.4,307.0 L447.0,307.0 L447.5,307.0 L448.1,307.0 L448.7,307.0 L449.3,307.0 L449.8,307.0 L450.4,307.0 L451.0,307.0 L451.5,307.0 L452.1,307.0 L452.7,307.0 L453.3,307.0 L453.8,307.0 L454.4,307.0 L455.0,307.0 L455.5,307.0 L456.1,307.0 L456.7,307.0 L457.3,307.0 L457.8,307.0 L458.4,307.0 L459.0,307.0 L459.5,307.0 L460.1,307.0 L460.7,307.0 L461.3,307.0 L461.8,307.0 L462.4,307.0 L463.0,307.0 L463.5,307.0 L464.1,307.0 L464.7,307.0 L465.3,307.0 L465.8,307.0 L466.4,307.0 L467.0,307.0 L467.5,307.0 L468.1,307.0 L468.7,307.0 L469.2,307.0 L469.8,307.0 L470.4,307.0 L471.0,307.0 L471.5,307.0 L472.1,307.0 L472.7,307.0 L473.2,307.0 L473.8,307.0 L474.4,307.0 L475.0,307.0 L475.5,307.0 L476.1,307.0 L476.7,307.0 L477.2,307.0 L477.8,307.0 L478.4,307.0 L479.0,307.0 L479.5,307.0 L480.1,307.0 L480.7,307.0 L481.2,307.0 L481.8,307.0 L482.4,307.0 L483.0,307.0 L483.5,307.0 L484.1,307.0 L484.7,307.0 L485.2,307.0 L485.8,307.0 L486.4,307.0 L487.0,307.0 L487.5,307.0 L488.1,307.0 L488.7,307.0 L489.2,307.0 L489.8,307.0 L490.4,307.0 L491.0,307.0 L491.5,307.0 L492.1,307.0 L492.7,307.0 L493.2,307.0 L493.8,307.0 L494.4,307.0 L494.9,307.0 L495.5,307.0 L496.1,307.0 L496.7,307.0 L497.2,307.0 L497.8,307.0 L498.4,307.0 L498.9,307.0 L499.5,307.0 L500.1,307.0 L500.7,307.0 L501.2,307.0 L501.8,307.0 L502.4,307.0 L502.9,307.0 L503.5,307.0 L504.1,307.0 L504.7,306.9 L505.2,306.6 L505.8,305.8 L506.4,303.9 L506.9,299.7 L507.5,290.9 L508.1,274.1 L508.7,244.3 L509.2,169.1 L509.8,124.3 L510.4,99.1 L510.9,86.0 L511.5,79.6 L512.1,76.8 L512.7,75.7 L513.2,75.2 L513.8,75.1 L514.4,75.0 L514.9,75.0 L515.5,75.0 L516.1,75.0 L516.7,75.0 L517.2,75.0 L517.8,75.0 L518.4,75.0 L518.9,75.0 L519.5,75.0 L520.1,75.0 L520.7,75.0 L521.2,75.0 L521.8,75.0 L522.4,75.0 L522.9,75.0 L523.5,75.0 L524.1,75.0 L524.6,75.0 L525.2,75.0 L525.8,75.0 L526.4,75.0 L526.9,75.0 L527.5,75.0 L528.1,75.0 L528.6,75.0 L529.2,75.0 L529.8,75.0 L530.4,75.0 L530.9,75.0 L531.5,75.0 L532.1,75.0 L532.6,75.0 L533.2,75.0 L533.8,75.0 L534.4,75.0 L534.9,75.0 L535.5,75.0 L536.1,75.0 L536.6,75.0 L537.2,75.0 L537.8,75.0 L538.4,75.0 L538.9,75.0 L539.5,75.0 L540.1,75.0 L540.6,75.0 L541.2,75.0 L541.8,75.0 L542.4,75.0 L542.9,75.0 L543.5,75.0 L544.1,75.0 L544.6,75.0 L545.2,75.0 L545.8,75.0 L546.4,75.0 L546.9,75.0 L547.5,75.0 L548.1,75.0 L548.6,75.0 L549.2,75.0 L549.8,75.0 L550.4,75.0 L550.9,75.0 L551.5,75.0 L552.1,75.0 L552.6,75.0 L553.2,75.0 L553.8,75.0 L554.3,75.0 L554.9,75.0 L555.5,75.0 L556.1,75.0 L556.6,75.0 L557.2,75.0 L557.8,75.0 L558.3,75.0 L558.9,75.0 L559.5,75.0 L560.1,75.0 L560.6,75.0 L561.2,75.0 L561.8,75.1 L562.3,75.2 L562.9,75.7 L563.5,76.8 L564.1,79.6 L564.6,86.0 L565.2,99.1 L565.8,124.3 L566.3,169.1 L566.9,244.3 L567.5,274.1 L568.1,290.9 L568.6,299.7 L569.2,303.9 L569.8,305.8 L570.3,306.6 L570.9,306.9 L571.5,307.0 L572.1,307.0 L572.6,307.0 L573.2,307.0 L573.8,307.0 L574.3,307.0 L574.9,307.0 L575.5,307.0 L576.1,307.0 L576.6,307.0 L577.2,307.0 L577.8,307.0 L578.3,307.0 L578.9,307.0 L579.5,307.0 L580.1,307.0 L580.6,307.0 L581.2,307.0 L581.8,307.0 L582.3,307.0 L582.9,307.0 L583.5,307.0 L584.0,307.0 L584.6,307.0 L585.2,307.0 L585.8,307.0 L586.3,307.0 L586.9,307.0 L587.5,307.0 L588.0,307.0 L588.6,307.0 L589.2,307.0 L589.8,307.0 L590.3,307.0 L590.9,307.0 L591.5,307.0 L592.0,307.0 L592.6,307.0 L593.2,307.0 L593.8,307.0 L594.3,307.0 L594.9,307.0 L595.5,307.0 L596.0,307.0 L596.6,307.0 L597.2,307.0 L597.8,307.0 L598.3,307.0 L598.9,307.0 L599.5,307.0 L600.0,307.0 L600.6,307.0 L601.2,307.0 L601.8,307.0 L602.3,307.0 L602.9,307.0 L603.5,307.0 L604.0,307.0 L604.6,307.0 L605.2,307.0 L605.8,307.0 L606.3,307.0 L606.9,307.0 L607.5,307.0 L608.0,307.0 L608.6,307.0 L609.2,307.0 L609.7,307.0 L610.3,307.0 L610.9,307.0 L611.5,307.0 L612.0,307.0 L612.6,307.0 L613.2,307.0 L613.7,307.0 L614.3,307.0 L614.9,307.0 L615.5,307.0 L616.0,307.0 L616.6,307.0 L617.2,307.0 L617.7,307.0 L618.3,307.0 L618.9,307.0 L619.5,307.0 L620.0,307.0 L620.6,307.0 L621.2,307.0 L621.7,307.0 L622.3,307.0 L622.9,307.0 L623.5,307.0 L624.0,307.0 L624.6,307.0 L625.2,307.0 L625.7,307.0 L626.3,307.0 L626.9,307.0 L627.5,307.0 L628.0,307.0 L628.6,307.0 L629.2,307.0 L629.7,307.0 L630.3,307.0 L630.9,307.0 L631.5,307.0 L632.0,307.0 L632.6,307.0 L633.2,307.0 L633.7,307.0 L634.3,307.0 L634.9,307.0 L635.5,307.0 L636.0,307.0 L636.6,307.0 L637.2,307.0 L637.7,307.0 L638.3,307.0 L638.9,307.0 L639.4,307.0 L640.0,307.0 L640.6,307.0 L641.2,307.0 L641.7,307.0 L642.3,307.0 L642.9,307.0 L643.4,307.0 L644.0,307.0 L644.6,307.0 L645.2,307.0 L645.7,307.0 L646.3,307.0 L646.9,307.0 L647.4,307.0 L648.0,307.0 L648.6,307.0 L649.2,307.0 L649.7,307.0 L650.3,307.0 L650.9,307.0 L651.4,307.0 L652.0,307.0 L652.6,307.0 L653.2,307.0 L653.7,307.0 L654.3,307.0 L654.9,307.0 L655.4,307.0 L656.0,307.0 L656.6,307.0 L657.2,307.0 L657.7,307.0 L658.3,307.0 L658.9,307.0 L659.4,307.0 L660.0,307.0 L660.6,307.0 L661.2,307.0 L661.7,307.0 L662.3,307.0 L662.9,307.0 L663.4,307.0 L664.0,307.0 L664.6,307.0 L665.2,307.0 L665.7,307.0 L666.3,307.0 L666.9,307.0 L667.4,307.0 L668.0,307.0 L668.6,307.0 L669.1,307.0 L669.7,307.0 L670.3,307.0 L670.9,307.0 L671.4,307.0 L672.0,307.0 L672.6,307.0 L673.1,307.0 L673.7,307.0 L674.3,307.0 L674.9,307.0 L675.4,307.0 L676.0,307.0 L676.6,307.1 L677.1,307.2 L677.7,307.5 L678.3,308.1 L678.9,309.3 L679.4,311.4 L680.0,315.0" stroke="#3498db" fill="none" stroke-width="1.5" stroke-dasharray="6,3"/><text x="537" y="37" text-anchor="middle" font-size="11" font-weight="bold">Center Column (c=250)</text><text x="390" y="195" text-anchor="end" font-size="9" fill="#e74c3c" transform="rotate(-90 390 195)">z-displacement</text><text x="537" y="359" text-anchor="middle" font-size="10">Index</text><text x="392" y="49" text-anchor="end" font-size="8">0.600</text><text x="392" y="345" text-anchor="end" font-size="8">0.000</text><line x1="290" y1="388" x2="310" y2="388" stroke="#e74c3c" stroke-width="2"/><text x="314" y="392" font-size="10">z-displacement</text><line x1="390" y1="388" x2="410" y2="388" stroke="#3498db" stroke-width="2" stroke-dasharray="6,3"/><text x="414" y="392" font-size="10">Temperature (K)</text></svg>