<svg xmlns="http://www.w3.org/2000/svg" viewBox="0 0 700 400"><rect width="700" height="400" fill="white"/><text x="350" y="22" text-anchor="middle" font-size="13" font-weight="bold">Buckling Profile — Cross-Section Through Hotspot</text><rect x="70" y="45" width="285" height="300" fill="white" stroke="#ccc"/><line x1="70" y1="345.0" x2="355" y2="345.0" stroke="#ddd" stroke-dasharray="4,2"/><path d="M70.0,345.0 L70.6,284.0 L71.1,265.7 L71.7,298.9 L72.3,253.3 L72.9,293.2 L73.4,262.5 L74.0,268.2 L74.6,299.6 L75.1,178.5 L75.7,182.3 L76.3,278.8 L76.9,200.4 L77.4,260.2 L78.0,260.6 L78.6,260.5 L79.1,268.0 L79.7,216.8 L80.3,301.8 L80.9,277.0 L81.4,309.8 L82.0,317.3 L82.6,297.8 L83.1,306.2 L83.7,243.2 L84.3,281.7 L84.8,285.0 L85.4,312.5 L86.0,277.1 L86.6,207.6 L87.1,267.3 L87.7,269.3 L88.3,273.3 L88.8,307.7 L89.4,308.1 L90.0,262.0 L90.6,198.3 L91.1,286.4 L91.7,265.6 L92.3,193.8 L92.8,248.1 L93.4,169.4 L94.0,175.5 L94.6,302.5 L95.1,306.7 L95.7,292.5 L96.3,312.2 L96.8,317.2 L97.4,305.5 L98.0,287.2 L98.6,300.0 L99.1,312.1 L99.7,308.8 L100.3,300.1 L100.8,247.3 L101.4,173.2 L102.0,227.4 L102.6,289.9 L103.1,203.4 L103.7,280.3 L104.3,302.7 L104.8,317.4 L105.4,317.7 L106.0,283.7 L106.6,300.7 L107.1,263.4 L107.7,288.2 L108.3,277.6 L108.8,292.6 L109.4,199.8 L110.0,298.7 L110.6,197.1 L111.1,298.2 L111.7,299.4 L112.3,304.9 L112.8,305.7 L113.4,286.6 L114.0,273.3 L114.5,181.3 L115.1,269.6 L115.7,289.4 L116.3,260.0 L116.8,301.2 L117.4,268.7 L118.0,267.2 L118.5,305.1 L119.1,303.5 L119.7,286.9 L120.3,266.5 L120.8,275.4 L121.4,280.8 L122.0,309.2 L122.5,289.5 L123.1,258.5 L123.7,157.0 L124.3,159.1 L124.8,291.9 L125.4,293.8 L126.0,280.9 L126.5,218.1 L127.1,276.3 L127.7,295.3 L128.3,307.9 L128.8,286.1 L129.4,260.6 L130.0,190.8 L130.5,275.2 L131.1,290.8 L131.7,198.5 L132.3,282.4 L132.8,298.6 L133.4,253.3 L134.0,272.1 L134.5,243.8 L135.1,149.4 L135.7,232.3 L136.3,174.2 L136.8,271.5 L137.4,316.5 L138.0,314.7 L138.5,268.7 L139.1,264.2 L139.7,179.1 L140.3,278.4 L140.8,301.0 L141.4,219.6 L142.0,266.5 L142.5,197.5 L143.1,251.7 L143.7,184.6 L144.2,258.1 L144.8,269.3 L145.4,304.9 L146.0,295.8 L146.5,280.3 L147.1,284.4 L147.7,302.3 L148.2,290.9 L148.8,314.5 L149.4,281.6 L150.0,288.8 L150.5,180.5 L151.1,301.2 L151.7,309.0 L152.2,285.5 L152.8,311.5 L153.4,266.2 L154.0,250.7 L154.5,145.5 L155.1,231.3 L155.7,274.5 L156.2,258.8 L156.8,259.2 L157.4,278.2 L158.0,291.4 L158.5,261.6 L159.1,240.5 L159.7,274.4 L160.2,258.7 L160.8,271.2 L161.4,308.8 L162.0,300.3 L162.5,254.8 L163.1,262.4 L163.7,289.6 L164.2,274.8 L164.8,276.0 L165.4,271.7 L166.0,211.8 L166.5,254.7 L167.1,171.1 L167.7,295.9 L168.2,295.0 L168.8,285.2 L169.4,303.9 L169.9,314.2 L170.5,274.5 L171.1,292.3 L171.7,300.1 L172.2,168.6 L172.8,280.7 L173.4,308.1 L173.9,308.3 L174.5,308.2 L175.1,289.2 L175.7,123.2 L176.2,110.6 L176.8,123.3 L177.4,283.2 L177.9,251.6 L178.5,256.1 L179.1,260.7 L179.7,305.1 L180.2,237.6 L180.8,282.5 L181.4,301.3 L181.9,173.1 L182.5,273.0 L183.1,295.4 L183.7,288.1 L184.2,241.6 L184.8,299.1 L185.4,278.0 L185.9,273.9 L186.5,262.0 L187.1,259.3 L187.7,273.8 L188.2,280.3 L188.8,276.9 L189.4,259.2 L189.9,255.2 L190.5,294.3 L191.1,185.9 L191.7,305.3 L192.2,284.8 L192.8,285.3 L193.4,279.2 L193.9,270.6 L194.5,282.9 L195.1,276.1 L195.7,223.2 L196.2,231.9 L196.8,45.0 L197.4,216.2 L197.9,90.1 L198.5,107.3 L199.1,237.9 L199.6,251.6 L200.2,262.0 L200.8,302.4 L201.4,252.8 L201.9,166.0 L202.5,229.0 L203.1,245.7 L203.6,291.0 L204.2,185.7 L204.8,247.7 L205.4,203.6 L205.9,288.8 L206.5,291.3 L207.1,272.6 L207.6,294.7 L208.2,277.2 L208.8,271.7 L209.4,193.6 L209.9,160.3 L210.5,293.8 L211.1,259.0 L211.6,267.2 L212.2,309.2 L212.8,278.0 L213.4,269.9 L213.9,275.8 L214.5,295.0 L215.1,272.2 L215.6,273.1 L216.2,291.3 L216.8,303.7 L217.4,303.8 L217.9,175.2 L218.5,243.6 L219.1,282.1 L219.6,268.7 L220.2,296.8 L220.8,159.5 L221.4,174.1 L221.9,293.9 L222.5,270.0 L223.1,300.1 L223.6,246.2 L224.2,155.8 L224.8,178.0 L225.4,184.3 L225.9,273.8 L226.5,250.6 L227.1,251.9 L227.6,289.1 L228.2,273.9 L228.8,294.0 L229.3,240.4 L229.9,150.2 L230.5,238.8 L231.1,267.8 L231.6,157.6 L232.2,229.4 L232.8,214.7 L233.3,81.8 L233.9,97.1 L234.5,118.8 L235.1,251.9 L235.6,143.2 L236.2,287.4 L236.8,259.8 L237.3,253.1 L237.9,202.1 L238.5,301.8 L239.1,307.0 L239.6,293.1 L240.2,304.0 L240.8,206.5 L241.3,298.3 L241.9,252.2 L242.5,271.1 L243.1,150.0 L243.6,292.8 L244.2,304.7 L244.8,277.1 L245.3,212.4 L245.9,302.4 L246.5,299.6 L247.1,183.4 L247.6,140.5 L248.2,271.8 L248.8,219.2 L249.3,159.9 L249.9,255.8 L250.5,260.4 L251.1,196.0 L251.6,264.3 L252.2,285.8 L252.8,299.8 L253.3,258.4 L253.9,188.9 L254.5,262.6 L255.1,265.0 L255.6,300.3 L256.2,234.5 L256.8,247.0 L257.3,191.0 L257.9,83.6 L258.5,217.8 L259.0,240.5 L259.6,248.8 L260.2,269.5 L260.8,137.2 L261.3,128.0 L261.9,249.6 L262.5,157.2 L263.0,247.3 L263.6,301.9 L264.2,276.2 L264.8,276.4 L265.3,303.7 L265.9,235.3 L266.5,266.0 L267.0,239.2 L267.6,183.1 L268.2,281.4 L268.8,205.9 L269.3,300.9 L269.9,268.1 L270.5,284.0 L271.0,265.9 L271.6,303.6 L272.2,282.9 L272.8,264.9 L273.3,301.2 L273.9,200.1 L274.5,300.8 L275.0,296.3 L275.6,311.3 L276.2,279.2 L276.8,297.2 L277.3,293.1 L277.9,271.7 L278.5,272.6 L279.0,270.0 L279.6,309.3 L280.2,299.4 L280.8,280.3 L281.3,280.0 L281.9,303.3 L282.5,250.6 L283.0,286.3 L283.6,176.1 L284.2,304.1 L284.7,289.0 L285.3,306.3 L285.9,290.8 L286.5,303.3 L287.0,237.2 L287.6,287.0 L288.2,280.5 L288.7,254.7 L289.3,255.6 L289.9,251.0 L290.5,185.5 L291.0,270.5 L291.6,252.7 L292.2,304.7 L292.7,306.5 L293.3,271.3 L293.9,276.7 L294.5,315.3 L295.0,313.3 L295.6,270.8 L296.2,272.0 L296.7,293.8 L297.3,276.5 L297.9,234.3 L298.5,286.3 L299.0,286.9 L299.6,281.8 L300.2,289.0 L300.7,295.6 L301.3,273.9 L301.9,293.6 L302.5,292.3 L303.0,300.0 L303.6,303.7 L304.2,282.6 L304.7,197.0 L305.3,295.1 L305.9,197.4 L306.5,264.6 L307.0,272.8 L307.6,304.2 L308.2,298.3 L308.7,172.7 L309.3,260.3 L309.9,277.5 L310.5,314.0 L311.0,280.5 L311.6,268.2 L312.2,273.0 L312.7,272.0 L313.3,209.1 L313.9,251.3 L314.4,250.9 L315.0,248.8 L315.6,170.4 L316.2,269.1 L316.7,258.9 L317.3,297.1 L317.9,316.6 L318.4,295.2 L319.0,206.2 L319.6,251.0 L320.2,167.4 L320.7,287.4 L321.3,226.9 L321.9,123.9 L322.4,132.3 L323.0,238.5 L323.6,293.4 L324.2,180.2 L324.7,256.7 L325.3,263.4 L325.9,308.8 L326.4,308.3 L327.0,258.4 L327.6,182.9 L328.2,206.3 L328.7,217.5 L329.3,290.3 L329.9,302.0 L330.4,267.2 L331.0,292.0 L331.6,168.7 L332.2,249.4 L332.7,261.4 L333.3,290.6 L333.9,278.3 L334.4,280.8 L335.0,279.6 L335.6,209.9 L336.2,284.6 L336.7,305.7 L337.3,309.7 L337.9,187.5 L338.4,264.1 L339.0,303.1 L339.6,202.6 L340.2,302.4 L340.7,184.8 L341.3,265.0 L341.9,281.9 L342.4,196.5 L343.0,188.1 L343.6,276.7 L344.1,278.7 L344.7,206.0 L345.3,306.7 L345.9,271.4 L346.4,270.1 L347.0,265.9 L347.6,191.3 L348.1,252.5 L348.7,163.6 L349.3,293.1 L349.9,286.5 L350.4,260.5 L351.0,249.0 L351.6,143.8 L352.1,248.6 L352.7,306.4 L353.3,276.4 L353.9,238.8 L354.4,299.8 L355.0,345.0" stroke="#e74c3c" fill="none" stroke-width="2"/><path d="M70.0,315.0 L70.6,241.8 L71.1,219.8 L71.7,226.4 L72.3,205.0 L72.9,215.5 L73.4,216.1 L74.0,222.9 L74.6,227.8 L75.1,181.8 L75.7,184.8 L76.3,209.0 L76.9,199.4 L77.4,213.3 L78.0,213.7 L78.6,213.6 L79.1,222.6 L79.7,212.4 L80.3,232.1 L80.9,233.4 L81.4,247.5 L82.0,261.9 L82.6,258.4 L83.1,253.0 L83.7,233.5 L84.3,239.0 L84.8,243.0 L85.4,252.6 L86.0,233.6 L86.6,205.1 L87.1,221.8 L87.7,224.1 L88.3,228.9 L88.8,243.4 L89.4,244.2 L90.0,215.4 L90.6,197.6 L91.1,221.3 L91.7,219.8 L92.3,194.0 L92.8,198.7 L93.4,174.5 L94.0,179.4 L94.6,233.3 L95.1,241.4 L95.7,230.9 L96.3,252.0 L96.8,261.7 L97.4,251.9 L98.0,245.6 L98.6,243.0 L99.1,251.9 L99.7,245.5 L100.3,228.8 L100.8,197.7 L101.4,177.5 L102.0,173.8 L102.6,209.2 L103.1,201.7 L103.7,237.4 L104.3,247.4 L104.8,262.0 L105.4,262.5 L106.0,241.5 L106.6,229.9 L107.1,217.1 L107.7,224.1 L108.3,234.2 L108.8,231.1 L109.4,198.9 L110.0,226.2 L110.6,196.7 L111.1,225.1 L111.7,242.1 L112.3,250.9 L112.8,252.1 L113.4,244.9 L114.0,229.0 L114.5,184.0 L115.1,194.4 L115.7,208.2 L116.3,213.0 L116.8,231.0 L117.4,223.4 L118.0,221.6 L118.5,238.5 L119.1,235.3 L119.7,222.0 L120.3,220.8 L120.8,231.5 L121.4,238.0 L122.0,246.3 L122.5,226.3 L123.1,211.2 L123.7,164.6 L124.3,166.3 L124.8,213.0 L125.4,216.8 L126.0,212.4 L126.5,213.5 L127.1,232.5 L127.7,235.6 L128.3,243.9 L128.8,220.8 L129.4,213.7 L130.0,191.6 L130.5,203.3 L131.1,210.9 L131.7,197.8 L132.3,214.8 L132.8,225.9 L133.4,204.9 L134.0,198.4 L134.5,193.6 L135.1,158.5 L135.7,179.8 L136.3,178.4 L136.8,226.9 L137.4,260.4 L138.0,256.8 L138.5,223.4 L139.1,218.1 L139.7,182.3 L140.3,208.5 L140.8,230.5 L141.4,214.7 L142.0,220.8 L142.5,197.0 L143.1,203.0 L143.7,186.7 L144.2,210.7 L144.8,224.1 L145.4,238.0 L146.0,236.2 L146.5,237.3 L147.1,242.2 L147.7,246.6 L148.2,250.1 L148.8,256.4 L149.4,238.9 L150.0,225.1 L150.5,183.4 L151.1,230.9 L151.7,245.9 L152.2,243.6 L152.8,250.7 L153.4,220.5 L154.0,201.8 L154.5,155.4 L155.1,178.6 L155.7,202.3 L156.2,211.6 L156.8,212.1 L157.4,208.1 L158.0,212.1 L158.5,181.5 L159.1,189.6 L159.7,202.0 L160.2,211.4 L160.8,226.4 L161.4,245.5 L162.0,229.3 L162.5,206.7 L163.1,215.9 L163.7,226.3 L164.2,230.7 L164.8,232.1 L165.4,227.0 L166.0,208.4 L166.5,206.7 L167.1,175.9 L167.7,220.8 L168.2,235.1 L168.8,243.3 L169.4,249.2 L169.9,255.9 L170.5,230.4 L171.1,230.6 L171.7,228.8 L172.2,173.9 L172.8,212.2 L173.4,244.1 L173.9,244.6 L174.5,244.4 L175.1,207.8 L175.7,137.5 L176.2,127.5 L176.8,137.6 L177.4,196.4 L177.9,202.9 L178.5,208.3 L179.1,213.9 L179.7,238.4 L180.2,229.0 L180.8,240.0 L181.4,231.2 L181.9,177.5 L182.5,199.9 L183.1,219.8 L183.7,205.8 L184.2,190.9 L184.8,226.9 L185.4,234.6 L185.9,229.7 L186.5,215.4 L187.1,212.2 L187.7,229.5 L188.2,237.3 L188.8,233.3 L189.4,212.0 L189.9,207.2 L190.5,217.7 L191.1,187.7 L191.7,238.7 L192.2,242.7 L192.8,243.4 L193.4,236.0 L193.9,225.7 L194.5,215.7 L195.1,204.7 L195.7,168.8 L196.2,134.0 L196.8,75.0 L197.4,108.9 L197.9,111.1 L198.5,124.9 L199.1,186.5 L199.6,202.9 L200.2,215.4 L200.8,233.3 L201.4,204.4 L201.9,171.8 L202.5,175.8 L203.1,195.8 L203.6,211.4 L204.2,187.6 L204.8,198.2 L205.4,201.9 L205.9,225.0 L206.5,229.1 L207.1,228.2 L207.6,234.5 L208.2,233.7 L208.8,227.0 L209.4,193.9 L209.9,167.2 L210.5,216.7 L211.1,211.8 L211.6,221.7 L212.2,246.3 L212.8,234.6 L213.4,224.9 L213.9,231.9 L214.5,235.0 L215.1,227.6 L215.6,228.7 L216.2,229.1 L216.8,235.7 L217.4,235.9 L217.9,179.2 L218.5,193.3 L219.1,214.4 L219.6,223.4 L220.2,222.5 L220.8,166.6 L221.4,178.3 L221.9,216.8 L222.5,225.0 L223.1,228.8 L223.6,196.4 L224.2,163.6 L224.8,181.4 L225.4,186.4 L225.9,201.1 L226.5,201.7 L227.1,203.2 L227.6,207.6 L228.2,201.2 L228.8,217.0 L229.3,189.5 L229.9,159.1 L230.5,187.6 L231.1,191.4 L231.6,165.1 L232.2,176.3 L232.8,158.6 L233.3,104.4 L233.9,116.7 L234.5,134.1 L235.1,166.0 L235.6,153.5 L236.2,204.5 L236.8,212.7 L237.3,204.7 L237.9,200.7 L238.5,232.1 L239.1,242.0 L239.6,232.0 L240.2,236.2 L240.8,204.2 L241.3,225.4 L241.9,203.6 L242.5,196.8 L243.1,159.0 L243.6,214.7 L244.2,237.5 L244.8,233.5 L245.3,208.9 L245.9,233.2 L246.5,227.8 L247.1,185.7 L247.6,151.4 L248.2,174.4 L248.8,164.0 L249.3,166.9 L249.9,207.9 L250.5,213.4 L251.1,195.8 L251.6,218.2 L252.2,220.2 L252.8,228.3 L253.3,211.1 L253.9,190.1 L254.5,216.2 L255.1,219.0 L255.6,229.1 L256.2,182.4 L256.8,158.3 L257.3,130.2 L257.9,105.9 L258.5,162.4 L259.0,189.5 L259.6,199.6 L260.2,194.2 L260.8,148.7 L261.3,141.4 L261.9,162.4 L262.5,164.7 L263.0,197.7 L263.6,232.3 L264.2,232.4 L264.8,232.6 L265.3,235.6 L265.9,183.4 L266.5,188.5 L267.0,188.0 L267.6,185.5 L268.2,213.3 L268.8,203.7 L269.3,230.3 L269.9,222.7 L270.5,217.4 L271.0,220.1 L271.6,235.5 L272.2,215.6 L272.8,218.9 L273.3,230.9 L273.9,199.1 L274.5,230.0 L275.0,237.0 L275.6,250.2 L276.2,236.0 L276.8,238.5 L277.3,231.9 L277.9,227.1 L278.5,228.1 L279.0,225.0 L279.6,246.5 L280.2,242.1 L280.8,237.3 L281.3,237.0 L281.9,234.9 L282.5,201.7 L283.0,202.3 L283.6,179.8 L284.2,236.5 L284.7,247.8 L285.3,253.1 L285.9,249.9 L286.5,248.3 L287.0,228.8 L287.6,222.2 L288.2,211.8 L288.7,206.7 L289.3,207.7 L289.9,202.2 L290.5,187.4 L291.0,195.8 L291.6,204.2 L292.2,237.7 L292.7,241.1 L293.3,226.5 L293.9,233.0 L294.5,258.0 L295.0,254.1 L295.6,225.9 L296.2,227.4 L296.7,233.1 L297.3,232.8 L297.9,226.4 L298.5,244.6 L299.0,245.3 L299.6,239.1 L300.2,225.3 L300.7,220.1 L301.3,229.7 L301.9,232.7 L302.5,230.7 L303.0,228.6 L303.6,235.8 L304.2,215.1 L304.7,196.6 L305.3,219.1 L305.9,196.9 L306.5,218.6 L307.0,228.4 L307.6,236.6 L308.2,225.4 L308.7,177.2 L309.3,213.3 L309.9,234.0 L310.5,255.5 L311.0,237.5 L311.6,222.8 L312.2,228.6 L312.7,227.4 L313.3,206.3 L313.9,202.6 L314.4,202.0 L315.0,199.6 L315.6,175.3 L316.2,193.5 L316.7,211.7 L317.3,238.4 L317.9,260.5 L318.4,235.3 L319.0,204.0 L319.6,202.2 L320.2,172.9 L320.7,204.4 L321.3,173.3 L321.9,138.1 L322.4,144.8 L323.0,187.3 L323.6,215.9 L324.2,183.1 L324.7,209.0 L325.3,217.0 L325.9,245.5 L326.4,244.6 L327.0,211.1 L327.6,185.3 L328.2,204.1 L328.7,213.0 L329.3,227.4 L329.9,232.5 L330.4,221.6 L331.0,213.2 L331.6,174.0 L332.2,200.3 L332.7,214.7 L333.3,228.0 L333.9,234.9 L334.4,238.0 L335.0,236.5 L335.6,206.9 L336.2,242.5 L336.7,252.1 L337.3,247.2 L337.9,189.0 L338.4,217.9 L339.0,234.6 L339.6,201.0 L340.2,233.1 L340.7,186.8 L341.3,218.9 L341.9,214.0 L342.4,196.2 L343.0,189.5 L343.6,205.7 L344.1,208.9 L344.7,203.8 L345.3,241.5 L345.9,226.7 L346.4,225.2 L347.0,220.1 L347.6,192.1 L348.1,204.0 L348.7,169.9 L349.3,215.4 L349.9,221.4 L350.4,213.6 L351.0,199.8 L351.6,154.0 L352.1,199.3 L352.7,240.8 L353.3,232.6 L353.9,230.1 L354.4,260.7 L355.0,315.0" stroke="#3498db" fill="none" stroke-width="1.5" stroke-dasharray="6,3"/><text x="212" y="37" text-anchor="middle" font-size="11" font-weight="bold">Center Row (r=250)</text><text x="65" y="195" text-anchor="end" font-size="9" fill="#e74c3c" transform="rotate(-90 65 195)">z-displacement</text><text x="212" y="359" text-anchor="middle" font-size="10">Index</text><text x="67" y="49" text-anchor="end" font-size="8">0.070</text><text x="67" y="345" text-anchor="end" font-size="8">0.000</text><rect x="395" y="45" width="285" height="300" fill="white" stroke="#ccc"/><line x1="395" y1="345.0" x2="680" y2="345.0" stroke="#ddd" stroke-dasharray="4,2"/><path d="M395.0,345.0 L395.6,306.1 L396.1,219.9 L396.7,298.5 L397.3,275.3 L397.9,239.2 L398.4,117.2 L399.0,275.3 L399.6,267.0 L400.1,270.4 L400.7,298.3 L401.3,265.8 L401.9,262.5 L402.4,269.5 L403.0,290.3 L403.6,299.3 L404.1,292.5 L404.7,246.7 L405.3,250.1 L405.9,255.7 L406.4,299.2 L407.0,198.6 L407.6,309.3 L408.1,299.8 L408.7,270.5 L409.3,247.2 L409.8,216.6 L410.4,211.0 L411.0,219.6 L411.6,283.2 L412.1,243.2 L412.7,263.4 L413.3,132.6 L413.8,229.5 L414.4,224.7 L415.0,217.3 L415.6,183.1 L416.1,59.5 L416.7,273.2 L417.3,283.3 L417.8,240.5 L418.4,257.8 L419.0,268.6 L419.6,305.2 L420.1,277.6 L420.7,276.4 L421.3,219.4 L421.8,282.0 L422.4,310.3 L423.0,285.0 L423.6,289.8 L424.1,231.3 L424.7,240.4 L425.3,305.7 L425.8,317.4 L426.4,317.1 L427.0,311.7 L427.6,260.3 L428.1,257.1 L428.7,241.1 L429.3,138.9 L429.8,276.1 L430.4,130.4 L431.0,294.1 L431.6,291.5 L432.1,309.0 L432.7,307.7 L433.3,305.8 L433.8,264.0 L434.4,277.2 L435.0,288.8 L435.6,128.3 L436.1,226.9 L436.7,243.3 L437.3,255.3 L437.8,248.9 L438.4,241.9 L439.0,239.6 L439.5,254.4 L440.1,263.2 L440.7,287.2 L441.3,265.5 L441.8,251.6 L442.4,241.3 L443.0,263.3 L443.5,152.1 L444.1,294.2 L444.7,270.4 L445.3,308.5 L445.8,307.9 L446.4,292.6 L447.0,265.3 L447.5,207.8 L448.1,305.7 L448.7,285.1 L449.3,309.0 L449.8,210.8 L450.4,279.0 L451.0,274.2 L451.5,151.6 L452.1,243.4 L452.7,254.6 L453.3,279.7 L453.8,251.7 L454.4,234.4 L455.0,148.5 L455.5,277.9 L456.1,310.3 L456.7,312.2 L457.3,310.5 L457.8,307.8 L458.4,245.4 L459.0,133.3 L459.5,281.3 L460.1,238.7 L460.7,234.1 L461.3,118.3 L461.8,128.7 L462.4,290.6 L463.0,260.3 L463.5,256.5 L464.1,250.9 L464.7,282.3 L465.3,143.5 L465.8,275.5 L466.4,147.1 L467.0,249.8 L467.5,256.2 L468.1,284.4 L468.7,266.4 L469.2,244.1 L469.8,225.8 L470.4,208.2 L471.0,192.3 L471.5,259.8 L472.1,208.4 L472.7,85.6 L473.2,214.7 L473.8,115.0 L474.4,233.1 L475.0,257.9 L475.5,304.7 L476.1,307.8 L476.7,295.7 L477.2,268.5 L477.8,283.2 L478.4,253.9 L479.0,245.4 L479.5,231.4 L480.1,141.5 L480.7,231.2 L481.2,236.0 L481.8,236.2 L482.4,162.2 L483.0,227.7 L483.5,231.1 L484.1,250.4 L484.7,262.5 L485.2,267.9 L485.8,299.8 L486.4,280.6 L487.0,309.0 L487.5,280.4 L488.1,275.7 L488.7,270.9 L489.2,283.8 L489.8,259.2 L490.4,253.2 L491.0,288.2 L491.5,282.6 L492.1,220.6 L492.7,110.0 L493.2,213.9 L493.8,258.2 L494.4,242.9 L494.9,247.7 L495.5,294.2 L496.1,296.6 L496.7,259.4 L497.2,253.0 L497.8,251.1 L498.4,251.5 L498.9,296.1 L499.5,255.1 L500.1,286.5 L500.7,306.7 L501.2,292.9 L501.8,268.1 L502.4,264.1 L502.9,203.1 L503.5,259.8 L504.1,262.3 L504.7,253.4 L505.2,289.4 L505.8,272.9 L506.4,189.5 L506.9,272.6 L507.5,180.0 L508.1,171.7 L508.7,280.7 L509.2,283.7 L509.8,228.9 L510.4,127.7 L510.9,278.3 L511.5,284.4 L512.1,248.7 L512.7,279.7 L513.2,283.7 L513.8,285.7 L514.4,206.7 L514.9,259.6 L515.5,294.4 L516.1,260.1 L516.7,258.2 L517.2,256.9 L517.8,174.2 L518.4,301.7 L518.9,302.6 L519.5,295.6 L520.1,244.8 L520.7,268.9 L521.2,179.4 L521.8,254.9 L522.4,303.5 L522.9,294.9 L523.5,154.2 L524.1,289.9 L524.6,152.0 L525.2,278.0 L525.8,104.2 L526.4,112.8 L526.9,215.4 L527.5,222.0 L528.1,234.9 L528.6,243.5 L529.2,288.1 L529.8,265.8 L530.4,265.4 L530.9,183.9 L531.5,259.4 L532.1,268.1 L532.6,271.8 L533.2,274.7 L533.8,268.6 L534.4,278.2 L534.9,276.1 L535.5,177.7 L536.1,258.4 L536.6,306.1 L537.2,288.9 L537.8,264.6 L538.4,277.8 L538.9,256.4 L539.5,240.8 L540.1,135.6 L540.6,270.0 L541.2,195.6 L541.8,45.0 L542.4,65.8 L542.9,111.8 L543.5,238.0 L544.1,96.3 L544.6,225.3 L545.2,242.6 L545.8,293.6 L546.4,264.6 L546.9,296.1 L547.5,174.1 L548.1,300.2 L548.6,303.6 L549.2,214.2 L549.8,274.5 L550.4,280.6 L550.9,296.3 L551.5,274.9 L552.1,292.6 L552.6,295.4 L553.2,275.8 L553.8,272.1 L554.3,288.1 L554.9,284.6 L555.5,278.1 L556.1,158.1 L556.6,238.3 L557.2,258.4 L557.8,305.6 L558.3,292.3 L558.9,286.5 L559.5,259.8 L560.1,250.7 L560.6,283.6 L561.2,264.2 L561.8,296.0 L562.3,246.5 L562.9,166.5 L563.5,251.5 L564.1,301.8 L564.6,307.3 L565.2,297.8 L565.8,249.0 L566.3,152.1 L566.9,288.6 L567.5,195.6 L568.1,258.6 L568.6,260.8 L569.2,271.3 L569.8,292.1 L570.3,290.0 L570.9,271.0 L571.5,268.8 L572.1,292.9 L572.6,142.7 L573.2,211.4 L573.8,115.3 L574.3,224.5 L574.9,280.4 L575.5,252.2 L576.1,115.3 L576.6,199.9 L577.2,206.0 L577.8,271.7 L578.3,238.9 L578.9,241.4 L579.5,155.7 L580.1,121.0 L580.6,165.0 L581.2,283.2 L581.8,273.2 L582.3,275.2 L582.9,312.4 L583.5,285.8 L584.0,296.8 L584.6,287.2 L585.2,161.3 L585.8,256.9 L586.3,244.2 L586.9,90.2 L587.5,89.7 L588.0,91.2 L588.6,216.9 L589.2,275.4 L589.8,273.3 L590.3,219.8 L590.9,226.6 L591.5,235.7 L592.0,145.2 L592.6,228.5 L593.2,220.3 L593.8,248.9 L594.3,113.1 L594.9,157.8 L595.5,245.3 L596.0,287.8 L596.6,131.1 L597.2,237.3 L597.8,295.3 L598.3,241.9 L598.9,237.2 L599.5,156.3 L600.0,287.4 L600.6,245.2 L601.2,290.8 L601.8,271.5 L602.3,159.9 L602.9,228.9 L603.5,236.2 L604.0,239.7 L604.6,291.9 L605.2,261.5 L605.8,299.2 L606.3,274.7 L606.9,245.5 L607.5,286.9 L608.0,230.3 L608.6,235.6 L609.2,246.1 L609.7,248.2 L610.3,240.1 L610.9,273.8 L611.5,112.3 L612.0,262.7 L612.6,248.6 L613.2,266.7 L613.7,299.2 L614.3,291.1 L614.9,302.1 L615.5,308.6 L616.0,250.2 L616.6,143.6 L617.2,218.6 L617.7,100.7 L618.3,210.2 L618.9,109.9 L619.5,208.3 L620.0,238.4 L620.6,118.6 L621.2,296.5 L621.7,278.8 L622.3,282.0 L622.9,308.7 L623.5,269.5 L624.0,259.8 L624.6,277.4 L625.2,204.7 L625.7,307.4 L626.3,299.8 L626.9,274.7 L627.5,266.6 L628.0,275.7 L628.6,142.2 L629.2,132.3 L629.7,249.2 L630.3,285.6 L630.9,297.4 L631.5,161.4 L632.0,259.2 L632.6,267.7 L633.2,269.8 L633.7,267.7 L634.3,304.6 L634.9,274.2 L635.5,287.4 L636.0,255.2 L636.6,273.2 L637.2,266.3 L637.7,262.6 L638.3,236.7 L638.9,262.3 L639.4,239.3 L640.0,266.8 L640.6,184.5 L641.2,258.4 L641.7,299.7 L642.3,252.8 L642.9,296.5 L643.4,298.4 L644.0,261.7 L644.6,268.9 L645.2,304.6 L645.7,291.3 L646.3,269.2 L646.9,187.2 L647.4,235.6 L648.0,234.6 L648.6,241.3 L649.2,297.9 L649.7,245.7 L650.3,138.7 L650.9,90.8 L651.4,85.9 L652.0,224.4 L652.6,235.9 L653.2,258.9 L653.7,233.8 L654.3,240.0 L654.9,245.5 L655.4,287.6 L656.0,246.4 L656.6,240.0 L657.2,130.1 L657.7,233.9 L658.3,243.9 L658.9,251.0 L659.4,278.8 L660.0,269.0 L660.6,278.3 L661.2,313.4 L661.7,285.3 L662.3,285.2 L662.9,287.7 L663.4,311.1 L664.0,302.5 L664.6,242.4 L665.2,227.0 L665.7,128.6 L666.3,205.3 L666.9,222.9 L667.4,242.4 L668.0,255.1 L668.6,260.1 L669.1,303.6 L669.7,312.4 L670.3,313.1 L670.9,288.6 L671.4,250.9 L672.0,142.3 L672.6,235.0 L673.1,248.5 L673.7,297.9 L674.3,302.7 L674.9,294.4 L675.4,250.5 L676.0,277.5 L676.6,254.1 L677.1,267.4 L677.7,311.0 L678.3,288.6 L678.9,307.4 L679.4,318.2 L680.0,345.0" stroke="#e74c3c" fill="none" stroke-width="2"/><path d="M395.0,315.0 L395.6,268.3 L396.1,214.9 L396.7,225.8 L397.3,203.5 L397.9,188.1 L398.4,132.7 L399.0,181.1 L399.6,190.1 L400.1,195.7 L400.7,225.3 L401.3,220.0 L401.9,216.0 L402.4,224.5 L403.0,227.4 L403.6,227.2 L404.1,214.2 L404.7,197.0 L405.3,201.1 L405.9,207.8 L406.4,227.1 L407.0,197.9 L407.6,246.4 L408.1,242.7 L408.7,225.6 L409.3,197.7 L409.8,161.0 L410.4,154.3 L411.0,164.5 L411.6,196.3 L412.1,192.8 L412.7,184.5 L413.3,145.1 L413.8,176.5 L414.4,170.7 L415.0,161.7 L415.6,120.7 L416.1,86.6 L416.7,177.1 L417.3,196.5 L417.8,189.6 L418.4,210.4 L419.0,223.3 L419.6,238.6 L420.1,234.1 L420.7,232.7 L421.3,214.5 L421.8,239.4 L422.4,248.4 L423.0,219.0 L423.6,209.0 L424.1,178.6 L424.7,189.5 L425.3,239.5 L425.8,262.0 L426.4,261.3 L427.0,251.1 L427.6,213.4 L428.1,209.6 L428.7,190.3 L429.3,150.1 L429.8,182.7 L430.4,143.4 L431.0,217.3 L431.6,229.5 L432.1,245.8 L432.7,243.5 L433.3,239.7 L433.8,217.8 L434.4,206.6 L435.0,207.2 L435.6,141.7 L436.1,173.3 L436.7,193.0 L437.3,207.4 L437.8,199.7 L438.4,191.3 L439.0,188.5 L439.5,206.3 L440.1,216.9 L440.7,222.6 L441.3,219.7 L441.8,202.9 L442.4,190.6 L443.0,184.3 L443.5,160.7 L444.1,217.4 L444.7,225.5 L445.3,244.9 L445.8,243.8 L446.4,231.1 L447.0,219.4 L447.5,205.2 L448.1,239.5 L448.7,243.1 L449.3,245.8 L449.8,207.6 L450.4,209.4 L451.0,201.7 L451.5,160.3 L452.1,193.2 L452.7,206.5 L453.3,210.5 L453.8,203.1 L454.4,182.3 L455.0,157.8 L455.5,207.6 L456.1,248.3 L456.7,252.0 L457.3,248.9 L457.8,243.6 L458.4,195.5 L459.0,145.6 L459.5,192.7 L460.1,187.5 L460.7,181.9 L461.3,133.7 L461.8,141.9 L462.4,210.5 L463.0,213.3 L463.5,208.8 L464.1,202.1 L464.7,194.7 L465.3,153.8 L465.8,181.7 L466.4,156.7 L467.0,200.8 L467.5,208.4 L468.1,198.6 L468.7,189.3 L469.2,193.9 L469.8,172.0 L470.4,150.9 L471.0,131.8 L471.5,151.4 L472.1,151.1 L472.7,107.5 L473.2,158.7 L473.8,131.0 L474.4,180.7 L475.0,210.5 L475.5,237.7 L476.1,243.6 L476.7,236.1 L477.2,223.2 L477.8,216.1 L478.4,205.7 L479.0,195.5 L479.5,178.7 L480.1,152.2 L480.7,178.5 L481.2,184.3 L481.8,184.5 L482.4,168.8 L483.0,174.3 L483.5,178.4 L484.1,201.5 L484.7,216.0 L485.2,222.5 L485.8,228.3 L486.4,237.7 L487.0,245.9 L487.5,237.4 L488.1,231.9 L488.7,226.1 L489.2,217.0 L489.8,212.1 L490.4,204.9 L491.0,206.0 L491.5,195.1 L492.1,165.8 L492.7,127.0 L493.2,157.7 L493.8,176.1 L494.4,192.4 L494.9,198.3 L495.5,217.5 L496.1,222.1 L496.7,212.3 L497.2,204.7 L497.8,202.3 L498.4,202.9 L498.9,221.2 L499.5,207.1 L500.1,221.4 L500.7,241.5 L501.2,231.7 L501.8,222.7 L502.4,217.9 L502.9,201.5 L503.5,212.8 L504.1,215.7 L504.7,205.0 L505.2,208.3 L505.8,199.7 L506.4,190.6 L506.9,199.1 L507.5,183.0 L508.1,176.4 L508.7,191.5 L509.2,197.2 L509.8,175.6 L510.4,141.2 L510.9,186.9 L511.5,198.7 L512.1,199.5 L512.7,210.5 L513.2,217.0 L513.8,220.1 L514.4,204.4 L514.9,212.5 L515.5,217.9 L516.1,213.2 L516.7,210.9 L517.2,209.3 L517.8,178.3 L518.4,231.9 L518.9,233.7 L519.5,220.1 L520.1,194.8 L520.7,193.3 L521.2,182.5 L521.8,206.9 L522.4,235.4 L522.9,218.8 L523.5,162.4 L524.1,209.2 L524.6,160.6 L525.2,186.4 L525.8,122.4 L526.4,129.2 L526.9,159.5 L527.5,167.4 L528.1,182.9 L528.6,193.2 L529.2,205.7 L529.8,188.4 L530.4,187.7 L530.9,186.1 L531.5,212.3 L532.1,222.7 L532.6,227.2 L533.2,230.7 L533.8,223.3 L534.4,208.1 L534.9,204.8 L535.5,181.1 L536.1,211.1 L536.6,240.3 L537.2,225.3 L537.8,218.5 L538.4,207.5 L538.9,208.7 L539.5,190.0 L540.1,147.5 L540.6,171.0 L541.2,135.8 L541.8,75.0 L542.4,91.6 L542.9,128.4 L543.5,143.8 L544.1,116.0 L544.6,171.4 L545.2,192.1 L545.8,216.3 L546.4,218.6 L546.9,221.2 L547.5,178.3 L548.1,229.1 L548.6,235.5 L549.2,210.4 L549.8,230.4 L550.4,237.7 L550.9,237.1 L551.5,230.9 L552.1,231.2 L552.6,235.7 L553.2,232.0 L553.8,227.5 L554.3,224.0 L554.9,218.4 L555.5,208.0 L556.1,165.4 L556.6,186.9 L557.2,211.1 L557.8,239.4 L558.3,230.6 L558.9,221.4 L559.5,212.7 L560.1,201.9 L560.6,216.7 L561.2,218.0 L561.8,220.9 L562.3,196.8 L562.9,172.2 L563.5,202.8 L564.1,232.0 L564.6,242.7 L565.2,224.4 L565.8,199.8 L566.3,160.7 L566.9,206.7 L567.5,195.5 L568.1,211.3 L568.6,213.9 L569.2,226.5 L569.8,230.4 L570.3,227.0 L570.9,226.2 L571.5,223.6 L572.1,214.9 L572.6,153.2 L573.2,154.7 L573.8,131.2 L574.3,170.4 L574.9,190.9 L575.5,166.6 L576.1,131.2 L576.6,140.9 L577.2,148.2 L577.8,174.2 L578.3,187.7 L578.9,190.6 L579.5,163.6 L580.1,135.8 L580.6,171.0 L581.2,216.2 L581.8,228.9 L582.3,231.3 L582.9,252.4 L583.5,244.0 L584.0,237.8 L584.6,222.5 L585.2,168.0 L585.8,174.0 L586.3,153.7 L586.9,111.1 L587.5,110.8 L588.0,112.0 L588.6,161.2 L589.2,181.3 L589.8,177.4 L590.3,164.8 L590.9,172.9 L591.5,183.9 L592.0,155.2 L592.6,175.2 L593.2,165.3 L593.8,161.3 L594.3,129.5 L594.9,165.3 L595.5,195.3 L596.0,205.2 L596.6,143.9 L597.2,185.8 L597.8,219.5 L598.3,191.3 L598.9,185.6 L599.5,164.0 L600.0,204.4 L600.6,195.2 L601.2,211.0 L601.8,197.4 L602.3,167.0 L602.9,175.7 L603.5,184.4 L604.0,188.6 L604.6,213.0 L605.2,214.8 L605.8,227.0 L606.3,202.5 L606.9,195.6 L607.5,203.4 L608.0,177.4 L608.6,183.8 L609.2,196.4 L609.7,198.8 L610.3,189.1 L610.9,178.4 L611.5,128.9 L612.0,183.3 L612.6,199.3 L613.2,221.1 L613.7,241.7 L614.3,250.3 L614.9,246.3 L615.5,245.2 L616.0,201.3 L616.6,153.9 L617.2,163.4 L617.7,119.6 L618.3,153.3 L618.9,126.9 L619.5,151.0 L620.0,144.5 L620.6,133.9 L621.2,221.9 L621.7,235.5 L622.3,239.4 L622.9,245.2 L623.5,224.4 L624.0,212.8 L624.6,206.9 L625.2,202.8 L625.7,242.9 L626.3,242.6 L626.9,230.7 L627.5,220.9 L628.0,204.1 L628.6,152.8 L629.2,144.9 L629.7,200.1 L630.3,220.0 L630.9,223.7 L631.5,168.2 L632.0,212.0 L632.6,222.2 L633.2,224.8 L633.7,222.3 L634.3,237.5 L634.9,230.0 L635.5,222.8 L636.0,207.2 L636.6,200.1 L637.2,189.1 L637.7,183.2 L638.3,185.0 L638.9,182.7 L639.4,188.2 L640.0,189.9 L640.6,186.6 L641.2,211.1 L641.7,228.0 L642.3,204.3 L642.9,221.8 L643.4,225.5 L644.0,215.0 L644.6,223.8 L645.2,237.3 L645.7,229.1 L646.3,224.1 L646.9,188.8 L647.4,183.7 L648.0,182.5 L648.6,190.5 L649.2,224.5 L649.7,195.8 L650.3,150.0 L650.9,111.6 L651.4,107.8 L652.0,170.2 L652.6,184.1 L653.2,177.3 L653.7,181.6 L654.3,189.0 L654.9,195.6 L655.4,204.9 L656.0,196.7 L656.6,189.0 L657.2,143.1 L657.7,181.7 L658.3,193.7 L658.9,202.2 L659.4,209.1 L660.0,223.8 L660.6,235.0 L661.2,254.3 L661.7,243.4 L662.3,243.2 L662.9,246.2 L663.4,250.0 L664.0,233.4 L664.6,191.8 L665.2,173.4 L665.7,141.9 L666.3,147.4 L666.9,168.5 L667.4,191.8 L668.0,207.1 L668.6,213.2 L669.1,235.5 L669.7,252.4 L670.3,253.7 L670.9,224.8 L671.4,202.1 L672.0,152.9 L672.6,183.0 L673.1,199.2 L673.7,224.6 L674.3,233.7 L674.9,217.9 L675.4,201.6 L676.0,207.0 L676.6,205.9 L677.1,221.8 L677.7,249.8 L678.3,247.4 L678.9,242.9 L679.4,263.6 L680.0,315.0" stroke="#3498db" fill="none" stroke-width="1.5" stroke-dasharray="6,3"/><text x="537" y="37" text-anchor="middle" font-size="11" font-weight="bold">Center Column (c=250)</text><text x="390" y="195" text-anchor="end" font-size="9" fill="#e74c3c" transform="rotate(-90 390 195)">z-displacement</text><text x="537" y="359" text-anchor="middle" font-size="10">Index</text><text x="392" y="49" text-anchor="end" font-size="8">0.058</text><text x="392" y="345" text-anchor="end" font-size="8">0.000</text><line x1="290" y1="388" x2="310" y2="388" stroke="#e74c3c" stroke-width="2"/><text x="314" y="392" font-size="10">z-displacement</text><line x1="390" y1="388" x2="410" y2="388" stroke="#3498db" stroke-width="2" stroke-dasharray="6,3"/><text x="414" y="392" font-size="10">Temperature (K)</text></svg>