<svg xmlns="http://www.w3.org/2000/svg" viewBox="0 0 700 400"><rect width="700" height="400" fill="white"/><text x="350" y="22" text-anchor="middle" font-size="13" font-weight="bold">Buckling Profile — Cross-Section Through Hotspot</text><rect x="70" y="45" width="285" height="300" fill="white" stroke="#ccc"/><line x1="70" y1="345.0" x2="355" y2="345.0" stroke="#ddd" stroke-dasharray="4,2"/><path d="M70.0,345.0 L70.6,210.3 L71.1,129.9 L71.7,85.5 L72.3,62.8 L72.9,52.2 L73.4,47.7 L74.0,45.8 L74.6,45.1 L75.1,45.0 L75.7,45.0 L76.3,45.0 L76.9,45.0 L77.4,45.0 L78.0,45.0 L78.6,45.0 L79.1,45.0 L79.7,45.0 L80.3,45.0 L80.9,45.0 L81.4,45.0 L82.0,45.0 L82.6,45.0 L83.1,45.0 L83.7,45.0 L84.3,45.0 L84.8,45.0 L85.4,45.0 L86.0,45.0 L86.6,45.0 L87.1,45.0 L87.7,45.0 L88.3,45.0 L88.8,45.0 L89.4,45.0 L90.0,45.0 L90.6,45.0 L91.1,45.0 L91.7,45.0 L92.3,45.0 L92.8,45.0 L93.4,45.0 L94.0,45.0 L94.6,45.0 L95.1,45.0 L95.7,45.0 L96.3,45.0 L96.8,45.0 L97.4,45.0 L98.0,45.0 L98.6,45.0 L99.1,45.0 L99.7,45.0 L100.3,45.0 L100.8,45.0 L101.4,45.0 L102.0,45.0 L102.6,45.0 L103.1,45.0 L103.7,45.0 L104.3,45.0 L104.8,45.0 L105.4,45.0 L106.0,45.0 L106.6,45.0 L107.1,45.0 L107.7,45.0 L108.3,45.0 L108.8,45.0 L109.4,45.0 L110.0,45.0 L110.6,45.0 L111.1,45.0 L111.7,45.0 L112.3,45.0 L112.8,45.0 L113.4,45.0 L114.0,45.0 L114.5,45.0 L115.1,45.0 L115.7,45.0 L116.3,45.0 L116.8,45.0 L117.4,45.0 L118.0,45.0 L118.5,45.0 L119.1,45.0 L119.7,45.0 L120.3,45.0 L120.8,45.0 L121.4,45.0 L122.0,45.0 L122.5,45.0 L123.1,45.0 L123.7,45.0 L124.3,45.0 L124.8,45.0 L125.4,45.0 L126.0,45.0 L126.5,45.0 L127.1,45.0 L127.7,45.0 L128.3,45.0 L128.8,45.0 L129.4,45.0 L130.0,45.0 L130.5,45.0 L131.1,45.0 L131.7,45.0 L132.3,45.0 L132.8,45.0 L133.4,45.0 L134.0,45.0 L134.5,45.0 L135.1,45.0 L135.7,45.0 L136.3,45.0 L136.8,45.0 L137.4,45.0 L138.0,45.0 L138.5,45.0 L139.1,45.0 L139.7,45.0 L140.3,45.0 L140.8,45.0 L141.4,45.0 L142.0,45.0 L142.5,45.0 L143.1,45.0 L143.7,45.0 L144.2,45.0 L144.8,45.0 L145.4,45.0 L146.0,45.0 L146.5,45.0 L147.1,45.0 L147.7,45.0 L148.2,45.0 L148.8,45.0 L149.4,45.0 L150.0,45.0 L150.5,45.0 L151.1,45.0 L151.7,45.0 L152.2,45.0 L152.8,45.0 L153.4,45.0 L154.0,45.0 L154.5,45.0 L155.1,45.0 L155.7,45.0 L156.2,45.0 L156.8,45.0 L157.4,45.0 L158.0,45.0 L158.5,45.0 L159.1,45.0 L159.7,45.0 L160.2,45.0 L160.8,45.0 L161.4,45.0 L162.0,45.0 L162.5,45.0 L163.1,45.0 L163.7,45.0 L164.2,45.0 L164.8,45.0 L165.4,45.0 L166.0,45.0 L166.5,45.0 L167.1,45.0 L167.7,45.0 L168.2,45.0 L168.8,45.0 L169.4,45.0 L169.9,45.0 L170.5,45.0 L171.1,45.0 L171.7,45.0 L172.2,45.0 L172.8,45.0 L173.4,45.0 L173.9,45.0 L174.5,45.0 L175.1,45.0 L175.7,45.0 L176.2,45.0 L176.8,45.0 L177.4,45.0 L177.9,45.0 L178.5,45.0 L179.1,45.0 L179.7,45.0 L180.2,45.0 L180.8,45.0 L181.4,45.0 L181.9,45.0 L182.5,45.0 L183.1,45.0 L183.7,45.0 L184.2,45.0 L184.8,45.0 L185.4,45.0 L185.9,45.0 L186.5,45.0 L187.1,45.0 L187.7,45.0 L188.2,45.0 L188.8,45.0 L189.4,45.0 L189.9,45.0 L190.5,45.0 L191.1,45.0 L191.7,45.0 L192.2,45.0 L192.8,45.0 L193.4,45.0 L193.9,45.0 L194.5,45.0 L195.1,45.0 L195.7,45.0 L196.2,45.0 L196.8,45.0 L197.4,45.0 L197.9,45.0 L198.5,45.0 L199.1,45.0 L199.6,45.0 L200.2,45.0 L200.8,45.0 L201.4,45.0 L201.9,45.0 L202.5,45.0 L203.1,45.0 L203.6,45.0 L204.2,45.0 L204.8,45.0 L205.4,45.0 L205.9,45.0 L206.5,45.0 L207.1,45.0 L207.6,45.0 L208.2,45.0 L208.8,45.0 L209.4,45.0 L209.9,45.0 L210.5,45.0 L211.1,45.0 L211.6,45.0 L212.2,45.0 L212.8,45.0 L213.4,45.0 L213.9,45.0 L214.5,45.0 L215.1,45.0 L215.6,45.0 L216.2,45.0 L216.8,45.0 L217.4,45.0 L217.9,45.0 L218.5,45.0 L219.1,45.0 L219.6,45.0 L220.2,45.0 L220.8,45.0 L221.4,45.0 L221.9,45.0 L222.5,45.0 L223.1,45.0 L223.6,45.0 L224.2,45.0 L224.8,45.0 L225.4,45.0 L225.9,45.0 L226.5,45.0 L227.1,45.0 L227.6,45.0 L228.2,45.0 L228.8,45.0 L229.3,45.0 L229.9,45.0 L230.5,45.0 L231.1,45.0 L231.6,45.0 L232.2,45.0 L232.8,45.0 L233.3,45.0 L233.9,45.0 L234.5,45.0 L235.1,45.0 L235.6,45.0 L236.2,45.0 L236.8,45.0 L237.3,45.0 L237.9,45.0 L238.5,45.0 L239.1,45.0 L239.6,45.0 L240.2,45.0 L240.8,45.0 L241.3,45.0 L241.9,45.0 L242.5,45.0 L243.1,45.0 L243.6,45.0 L244.2,45.0 L244.8,45.0 L245.3,45.0 L245.9,45.0 L246.5,45.0 L247.1,45.0 L247.6,45.0 L248.2,45.0 L248.8,45.0 L249.3,45.0 L249.9,45.0 L250.5,45.0 L251.1,45.0 L251.6,45.0 L252.2,45.0 L252.8,45.0 L253.3,45.0 L253.9,45.0 L254.5,45.0 L255.1,45.0 L255.6,45.0 L256.2,45.0 L256.8,45.0 L257.3,45.0 L257.9,45.0 L258.5,45.0 L259.0,45.0 L259.6,45.0 L260.2,45.0 L260.8,45.0 L261.3,45.0 L261.9,45.0 L262.5,45.0 L263.0,45.0 L263.6,45.0 L264.2,45.0 L264.8,45.0 L265.3,45.0 L265.9,45.0 L266.5,45.0 L267.0,45.0 L267.6,45.0 L268.2,45.0 L268.8,45.0 L269.3,45.0 L269.9,45.0 L270.5,45.0 L271.0,45.0 L271.6,45.0 L272.2,45.0 L272.8,45.0 L273.3,45.0 L273.9,45.0 L274.5,45.0 L275.0,45.0 L275.6,45.0 L276.2,45.0 L276.8,45.0 L277.3,45.0 L277.9,45.0 L278.5,45.0 L279.0,45.0 L279.6,45.0 L280.2,45.0 L280.8,45.0 L281.3,45.0 L281.9,45.0 L282.5,45.0 L283.0,45.0 L283.6,45.0 L284.2,45.0 L284.7,45.0 L285.3,45.0 L285.9,45.0 L286.5,45.0 L287.0,45.0 L287.6,45.0 L288.2,45.0 L288.7,45.0 L289.3,45.0 L289.9,45.0 L290.5,45.0 L291.0,45.0 L291.6,45.0 L292.2,45.0 L292.7,45.0 L293.3,45.0 L293.9,45.0 L294.5,45.0 L295.0,45.0 L295.6,45.0 L296.2,45.0 L296.7,45.0 L297.3,45.0 L297.9,45.0 L298.5,45.0 L299.0,45.0 L299.6,45.0 L300.2,45.0 L300.7,45.0 L301.3,45.0 L301.9,45.0 L302.5,45.0 L303.0,45.0 L303.6,45.0 L304.2,45.0 L304.7,45.0 L305.3,45.0 L305.9,45.0 L306.5,45.0 L307.0,45.0 L307.6,45.0 L308.2,45.0 L308.7,45.0 L309.3,45.0 L309.9,45.0 L310.5,45.0 L311.0,45.0 L311.6,45.0 L312.2,45.0 L312.7,45.0 L313.3,45.0 L313.9,45.0 L314.4,45.0 L315.0,45.0 L315.6,45.0 L316.2,45.0 L316.7,45.0 L317.3,45.0 L317.9,45.0 L318.4,45.0 L319.0,45.0 L319.6,45.0 L320.2,45.0 L320.7,45.0 L321.3,45.0 L321.9,45.0 L322.4,45.0 L323.0,45.0 L323.6,45.0 L324.2,45.0 L324.7,45.0 L325.3,45.0 L325.9,45.0 L326.4,45.0 L327.0,45.0 L327.6,45.0 L328.2,45.0 L328.7,45.0 L329.3,45.0 L329.9,45.0 L330.4,45.0 L331.0,45.0 L331.6,45.0 L332.2,45.0 L332.7,45.0 L333.3,45.0 L333.9,45.0 L334.4,45.0 L335.0,45.0 L335.6,45.0 L336.2,45.0 L336.7,45.0 L337.3,45.0 L337.9,45.0 L338.4,45.0 L339.0,45.0 L339.6,45.0 L340.2,45.0 L340.7,45.0 L341.3,45.0 L341.9,45.0 L342.4,45.0 L343.0,45.0 L343.6,45.0 L344.1,45.0 L344.7,45.0 L345.3,45.0 L345.9,45.0 L346.4,45.0 L347.0,45.0 L347.6,45.0 L348.1,45.0 L348.7,45.0 L349.3,45.0 L349.9,45.0 L350.4,45.1 L351.0,45.8 L351.6,47.7 L352.1,52.2 L352.7,62.8 L353.3,85.5 L353.9,129.9 L354.4,210.3 L355.0,345.0" stroke="#e74c3c" fill="none" stroke-width="2"/><path d="M70.0,315.0 L70.6,207.2 L71.1,143.0 L71.7,107.3 L72.3,89.3 L72.9,80.8 L73.4,77.2 L74.0,75.6 L74.6,75.1 L75.1,75.0 L75.7,75.0 L76.3,75.0 L76.9,75.0 L77.4,75.0 L78.0,75.0 L78.6,75.0 L79.1,75.0 L79.7,75.0 L80.3,75.0 L80.9,75.0 L81.4,75.0 L82.0,75.0 L82.6,75.0 L83.1,75.0 L83.7,75.0 L84.3,75.0 L84.8,75.0 L85.4,75.0 L86.0,75.0 L86.6,75.0 L87.1,75.0 L87.7,75.0 L88.3,75.0 L88.8,75.0 L89.4,75.0 L90.0,75.0 L90.6,75.0 L91.1,75.0 L91.7,75.0 L92.3,75.0 L92.8,75.0 L93.4,75.0 L94.0,75.0 L94.6,75.0 L95.1,75.0 L95.7,75.0 L96.3,75.0 L96.8,75.0 L97.4,75.0 L98.0,75.0 L98.6,75.0 L99.1,75.0 L99.7,75.0 L100.3,75.0 L100.8,75.0 L101.4,75.0 L102.0,75.0 L102.6,75.0 L103.1,75.0 L103.7,75.0 L104.3,75.0 L104.8,75.0 L105.4,75.0 L106.0,75.0 L106.6,75.0 L107.1,75.0 L107.7,75.0 L108.3,75.0 L108.8,75.0 L109.4,75.0 L110.0,75.0 L110.6,75.0 L111.1,75.0 L111.7,75.0 L112.3,75.0 L112.8,75.0 L113.4,75.0 L114.0,75.0 L114.5,75.0 L115.1,75.0 L115.7,75.0 L116.3,75.0 L116.8,75.0 L117.4,75.0 L118.0,75.0 L118.5,75.0 L119.1,75.0 L119.7,75.0 L120.3,75.0 L120.8,75.0 L121.4,75.0 L122.0,75.0 L122.5,75.0 L123.1,75.0 L123.7,75.0 L124.3,75.0 L124.8,75.0 L125.4,75.0 L126.0,75.0 L126.5,75.0 L127.1,75.0 L127.7,75.0 L128.3,75.0 L128.8,75.0 L129.4,75.0 L130.0,75.0 L130.5,75.0 L131.1,75.0 L131.7,75.0 L132.3,75.0 L132.8,75.0 L133.4,75.0 L134.0,75.0 L134.5,75.0 L135.1,75.0 L135.7,75.0 L136.3,75.0 L136.8,75.0 L137.4,75.0 L138.0,75.0 L138.5,75.0 L139.1,75.0 L139.7,75.0 L140.3,75.0 L140.8,75.0 L141.4,75.0 L142.0,75.0 L142.5,75.0 L143.1,75.0 L143.7,75.0 L144.2,75.0 L144.8,75.0 L145.4,75.0 L146.0,75.0 L146.5,75.0 L147.1,75.0 L147.7,75.0 L148.2,75.0 L148.8,75.0 L149.4,75.0 L150.0,75.0 L150.5,75.0 L151.1,75.0 L151.7,75.0 L152.2,75.0 L152.8,75.0 L153.4,75.0 L154.0,75.0 L154.5,75.0 L155.1,75.0 L155.7,75.0 L156.2,75.0 L156.8,75.0 L157.4,75.0 L158.0,75.0 L158.5,75.0 L159.1,75.0 L159.7,75.0 L160.2,75.0 L160.8,75.0 L161.4,75.0 L162.0,75.0 L162.5,75.0 L163.1,75.0 L163.7,75.0 L164.2,75.0 L164.8,75.0 L165.4,75.0 L166.0,75.0 L166.5,75.0 L167.1,75.0 L167.7,75.0 L168.2,75.0 L168.8,75.0 L169.4,75.0 L169.9,75.0 L170.5,75.0 L171.1,75.0 L171.7,75.0 L172.2,75.0 L172.8,75.0 L173.4,75.0 L173.9,75.0 L174.5,75.0 L175.1,75.0 L175.7,75.0 L176.2,75.0 L176.8,75.0 L177.4,75.0 L177.9,75.0 L178.5,75.0 L179.1,75.0 L179.7,75.0 L180.2,75.0 L180.8,75.0 L181.4,75.0 L181.9,75.0 L182.5,75.0 L183.1,75.0 L183.7,75.0 L184.2,75.0 L184.8,75.0 L185.4,75.0 L185.9,75.0 L186.5,75.0 L187.1,75.0 L187.7,75.0 L188.2,75.0 L188.8,75.0 L189.4,75.0 L189.9,75.0 L190.5,75.0 L191.1,75.0 L191.7,75.0 L192.2,75.0 L192.8,75.0 L193.4,75.0 L193.9,75.0 L194.5,75.0 L195.1,75.0 L195.7,75.0 L196.2,75.0 L196.8,75.0 L197.4,75.0 L197.9,75.0 L198.5,75.0 L199.1,75.0 L199.6,75.0 L200.2,75.0 L200.8,75.0 L201.4,75.0 L201.9,75.0 L202.5,75.0 L203.1,75.0 L203.6,75.0 L204.2,75.0 L204.8,75.0 L205.4,75.0 L205.9,75.0 L206.5,75.0 L207.1,75.0 L207.6,75.0 L208.2,75.0 L208.8,75.0 L209.4,75.0 L209.9,75.0 L210.5,75.0 L211.1,75.0 L211.6,75.0 L212.2,75.0 L212.8,75.0 L213.4,75.0 L213.9,75.0 L214.5,75.0 L215.1,75.0 L215.6,75.0 L216.2,75.0 L216.8,75.0 L217.4,75.0 L217.9,75.0 L218.5,75.0 L219.1,75.0 L219.6,75.0 L220.2,75.0 L220.8,75.0 L221.4,75.0 L221.9,75.0 L222.5,75.0 L223.1,75.0 L223.6,75.0 L224.2,75.0 L224.8,75.0 L225.4,75.0 L225.9,75.0 L226.5,75.0 L227.1,75.0 L227.6,75.0 L228.2,75.0 L228.8,75.0 L229.3,75.0 L229.9,75.0 L230.5,75.0 L231.1,75.0 L231.6,75.0 L232.2,75.0 L232.8,75.0 L233.3,75.0 L233.9,75.0 L234.5,75.0 L235.1,75.0 L235.6,75.0 L236.2,75.0 L236.8,75.0 L237.3,75.0 L237.9,75.0 L238.5,75.0 L239.1,75.0 L239.6,75.0 L240.2,75.0 L240.8,75.0 L241.3,75.0 L241.9,75.0 L242.5,75.0 L243.1,75.0 L243.6,75.0 L244.2,75.0 L244.8,75.0 L245.3,75.0 L245.9,75.0 L246.5,75.0 L247.1,75.0 L247.6,75.0 L248.2,75.0 L248.8,75.0 L249.3,75.0 L249.9,75.0 L250.5,75.0 L251.1,75.0 L251.6,75.0 L252.2,75.0 L252.8,75.0 L253.3,75.0 L253.9,75.0 L254.5,75.0 L255.1,75.0 L255.6,75.0 L256.2,75.0 L256.8,75.0 L257.3,75.0 L257.9,75.0 L258.5,75.0 L259.0,75.0 L259.6,75.0 L260.2,75.0 L260.8,75.0 L261.3,75.0 L261.9,75.0 L262.5,75.0 L263.0,75.0 L263.6,75.0 L264.2,75.0 L264.8,75.0 L265.3,75.0 L265.9,75.0 L266.5,75.0 L267.0,75.0 L267.6,75.0 L268.2,75.0 L268.8,75.0 L269.3,75.0 L269.9,75.0 L270.5,75.0 L271.0,75.0 L271.6,75.0 L272.2,75.0 L272.8,75.0 L273.3,75.0 L273.9,75.0 L274.5,75.0 L275.0,75.0 L275.6,75.0 L276.2,75.0 L276.8,75.0 L277.3,75.0 L277.9,75.0 L278.5,75.0 L279.0,75.0 L279.6,75.0 L280.2,75.0 L280.8,75.0 L281.3,75.0 L281.9,75.0 L282.5,75.0 L283.0,75.0 L283.6,75.0 L284.2,75.0 L284.7,75.0 L285.3,75.0 L285.9,75.0 L286.5,75.0 L287.0,75.0 L287.6,75.0 L288.2,75.0 L288.7,75.0 L289.3,75.0 L289.9,75.0 L290.5,75.0 L291.0,75.0 L291.6,75.0 L292.2,75.0 L292.7,75.0 L293.3,75.0 L293.9,75.0 L294.5,75.0 L295.0,75.0 L295.6,75.0 L296.2,75.0 L296.7,75.0 L297.3,75.0 L297.9,75.0 L298.5,75.0 L299.0,75.0 L299.6,75.0 L300.2,75.0 L300.7,75.0 L301.3,75.0 L301.9,75.0 L302.5,75.0 L303.0,75.0 L303.6,75.0 L304.2,75.0 L304.7,75.0 L305.3,75.0 L305.9,75.0 L306.5,75.0 L307.0,75.0 L307.6,75.0 L308.2,75.0 L308.7,75.0 L309.3,75.0 L309.9,75.0 L310.5,75.0 L311.0,75.0 L311.6,75.0 L312.2,75.0 L312.7,75.0 L313.3,75.0 L313.9,75.0 L314.4,75.0 L315.0,75.0 L315.6,75.0 L316.2,75.0 L316.7,75.0 L317.3,75.0 L317.9,75.0 L318.4,75.0 L319.0,75.0 L319.6,75.0 L320.2,75.0 L320.7,75.0 L321.3,75.0 L321.9,75.0 L322.4,75.0 L323.0,75.0 L323.6,75.0 L324.2,75.0 L324.7,75.0 L325.3,75.0 L325.9,75.0 L326.4,75.0 L327.0,75.0 L327.6,75.0 L328.2,75.0 L328.7,75.0 L329.3,75.0 L329.9,75.0 L330.4,75.0 L331.0,75.0 L331.6,75.0 L332.2,75.0 L332.7,75.0 L333.3,75.0 L333.9,75.0 L334.4,75.0 L335.0,75.0 L335.6,75.0 L336.2,75.0 L336.7,75.0 L337.3,75.0 L337.9,75.0 L338.4,75.0 L339.0,75.0 L339.6,75.0 L340.2,75.0 L340.7,75.0 L341.3,75.0 L341.9,75.0 L342.4,75.0 L343.0,75.0 L343.6,75.0 L344.1,75.0 L344.7,75.0 L345.3,75.0 L345.9,75.0 L346.4,75.0 L347.0,75.0 L347.6,75.0 L348.1,75.0 L348.7,75.0 L349.3,75.0 L349.9,75.0 L350.4,75.1 L351.0,75.6 L351.6,77.2 L352.1,80.8 L352.7,89.3 L353.3,107.3 L353.9,143.0 L354.4,207.2 L355.0,315.0" stroke="#3498db" fill="none" stroke-width="1.5" stroke-dasharray="6,3"/><text x="212" y="37" text-anchor="middle" font-size="11" font-weight="bold">Center Row (r=250)</text><text x="65" y="195" text-anchor="end" font-size="9" fill="#e74c3c" transform="rotate(-90 65 195)">z-displacement</text><text x="212" y="359" text-anchor="middle" font-size="10">Index</text><text x="67" y="49" text-anchor="end" font-size="8">0.013</text><text x="67" y="345" text-anchor="end" font-size="8">0.000</text><rect x="395" y="45" width="285" height="300" fill="white" stroke="#ccc"/><line x1="395" y1="345.0" x2="680" y2="345.0" stroke="#ddd" stroke-dasharray="4,2"/><path d="M395.0,345.0 L395.6,210.3 L396.1,129.9 L396.7,85.5 L397.3,62.8 L397.9,52.2 L398.4,47.7 L399.0,45.8 L399.6,45.1 L400.1,45.0 L400.7,45.0 L401.3,45.0 L401.9,45.0 L402.4,45.0 L403.0,45.0 L403.6,45.0 L404.1,45.0 L404.7,45.0 L405.3,45.0 L405.9,45.0 L406.4,45.0 L407.0,45.0 L407.6,45.0 L408.1,45.0 L408.7,45.0 L409.3,45.0 L409.8,45.0 L410.4,45.0 L411.0,45.0 L411.6,45.0 L412.1,45.0 L412.7,45.0 L413.3,45.0 L413.8,45.0 L414.4,45.0 L415.0,45.0 L415.6,45.0 L416.1,45.0 L416.7,45.0 L417.3,45.0 L417.8,45.0 L418.4,45.0 L419.0,45.0 L419.6,45.0 L420.1,45.0 L420.7,45.0 L421.3,45.0 L421.8,45.0 L422.4,45.0 L423.0,45.0 L423.6,45.0 L424.1,45.0 L424.7,45.0 L425.3,45.0 L425.8,45.0 L426.4,45.0 L427.0,45.0 L427.6,45.0 L428.1,45.0 L428.7,45.0 L429.3,45.0 L429.8,45.0 L430.4,45.0 L431.0,45.0 L431.6,45.0 L432.1,45.0 L432.7,45.0 L433.3,45.0 L433.8,45.0 L434.4,45.0 L435.0,45.0 L435.6,45.0 L436.1,45.0 L436.7,45.0 L437.3,45.0 L437.8,45.0 L438.4,45.0 L439.0,45.0 L439.5,45.0 L440.1,45.0 L440.7,45.0 L441.3,45.0 L441.8,45.0 L442.4,45.0 L443.0,45.0 L443.5,45.0 L444.1,45.0 L444.7,45.0 L445.3,45.0 L445.8,45.0 L446.4,45.0 L447.0,45.0 L447.5,45.0 L448.1,45.0 L448.7,45.0 L449.3,45.0 L449.8,45.0 L450.4,45.0 L451.0,45.0 L451.5,45.0 L452.1,45.0 L452.7,45.0 L453.3,45.0 L453.8,45.0 L454.4,45.0 L455.0,45.0 L455.5,45.0 L456.1,45.0 L456.7,45.0 L457.3,45.0 L457.8,45.0 L458.4,45.0 L459.0,45.0 L459.5,45.0 L460.1,45.0 L460.7,45.0 L461.3,45.0 L461.8,45.0 L462.4,45.0 L463.0,45.0 L463.5,45.0 L464.1,45.0 L464.7,45.0 L465.3,45.0 L465.8,45.0 L466.4,45.0 L467.0,45.0 L467.5,45.0 L468.1,45.0 L468.7,45.0 L469.2,45.0 L469.8,45.0 L470.4,45.0 L471.0,45.0 L471.5,45.0 L472.1,45.0 L472.7,45.0 L473.2,45.0 L473.8,45.0 L474.4,45.0 L475.0,45.0 L475.5,45.0 L476.1,45.0 L476.7,45.0 L477.2,45.0 L477.8,45.0 L478.4,45.0 L479.0,45.0 L479.5,45.0 L480.1,45.0 L480.7,45.0 L481.2,45.0 L481.8,45.0 L482.4,45.0 L483.0,45.0 L483.5,45.0 L484.1,45.0 L484.7,45.0 L485.2,45.0 L485.8,45.0 L486.4,45.0 L487.0,45.0 L487.5,45.0 L488.1,45.0 L488.7,45.0 L489.2,45.0 L489.8,45.0 L490.4,45.0 L491.0,45.0 L491.5,45.0 L492.1,45.0 L492.7,45.0 L493.2,45.0 L493.8,45.0 L494.4,45.0 L494.9,45.0 L495.5,45.0 L496.1,45.0 L496.7,45.0 L497.2,45.0 L497.8,45.0 L498.4,45.0 L498.9,45.0 L499.5,45.0 L500.1,45.0 L500.7,45.0 L501.2,45.0 L501.8,45.0 L502.4,45.0 L502.9,45.0 L503.5,45.0 L504.1,45.0 L504.7,45.0 L505.2,45.0 L505.8,45.0 L506.4,45.0 L506.9,45.0 L507.5,45.0 L508.1,45.0 L508.7,45.0 L509.2,45.0 L509.8,45.0 L510.4,45.0 L510.9,45.0 L511.5,45.0 L512.1,45.0 L512.7,45.0 L513.2,45.0 L513.8,45.0 L514.4,45.0 L514.9,45.0 L515.5,45.0 L516.1,45.0 L516.7,45.0 L517.2,45.0 L517.8,45.0 L518.4,45.0 L518.9,45.0 L519.5,45.0 L520.1,45.0 L520.7,45.0 L521.2,45.0 L521.8,45.0 L522.4,45.0 L522.9,45.0 L523.5,45.0 L524.1,45.0 L524.6,45.0 L525.2,45.0 L525.8,45.0 L526.4,45.0 L526.9,45.0 L527.5,45.0 L528.1,45.0 L528.6,45.0 L529.2,45.0 L529.8,45.0 L530.4,45.0 L530.9,45.0 L531.5,45.0 L532.1,45.0 L532.6,45.0 L533.2,45.0 L533.8,45.0 L534.4,45.0 L534.9,45.0 L535.5,45.0 L536.1,45.0 L536.6,45.0 L537.2,45.0 L537.8,45.0 L538.4,45.0 L538.9,45.0 L539.5,45.0 L540.1,45.0 L540.6,45.0 L541.2,45.0 L541.8,45.0 L542.4,45.0 L542.9,45.0 L543.5,45.0 L544.1,45.0 L544.6,45.0 L545.2,45.0 L545.8,45.0 L546.4,45.0 L546.9,45.0 L547.5,45.0 L548.1,45.0 L548.6,45.0 L549.2,45.0 L549.8,45.0 L550.4,45.0 L550.9,45.0 L551.5,45.0 L552.1,45.0 L552.6,45.0 L553.2,45.0 L553.8,45.0 L554.3,45.0 L554.9,45.0 L555.5,45.0 L556.1,45.0 L556.6,45.0 L557.2,45.0 L557.8,45.0 L558.3,45.0 L558.9,45.0 L559.5,45.0 L560.1,45.0 L560.6,45.0 L561.2,45.0 L561.8,45.0 L562.3,45.0 L562.9,45.0 L563.5,45.0 L564.1,45.0 L564.6,45.0 L565.2,45.0 L565.8,45.0 L566.3,45.0 L566.9,45.0 L567.5,45.0 L568.1,45.0 L568.6,45.0 L569.2,45.0 L569.8,45.0 L570.3,45.0 L570.9,45.0 L571.5,45.0 L572.1,45.0 L572.6,45.0 L573.2,45.0 L573.8,45.0 L574.3,45.0 L574.9,45.0 L575.5,45.0 L576.1,45.0 L576.6,45.0 L577.2,45.0 L577.8,45.0 L578.3,45.0 L578.9,45.0 L579.5,45.0 L580.1,45.0 L580.6,45.0 L581.2,45.0 L581.8,45.0 L582.3,45.0 L582.9,45.0 L583.5,45.0 L584.0,45.0 L584.6,45.0 L585.2,45.0 L585.8,45.0 L586.3,45.0 L586.9,45.0 L587.5,45.0 L588.0,45.0 L588.6,45.0 L589.2,45.0 L589.8,45.0 L590.3,45.0 L590.9,45.0 L591.5,45.0 L592.0,45.0 L592.6,45.0 L593.2,45.0 L593.8,45.0 L594.3,45.0 L594.9,45.0 L595.5,45.0 L596.0,45.0 L596.6,45.0 L597.2,45.0 L597.8,45.0 L598.3,45.0 L598.9,45.0 L599.5,45.0 L600.0,45.0 L600.6,45.0 L601.2,45.0 L601.8,45.0 L602.3,45.0 L602.9,45.0 L603.5,45.0 L604.0,45.0 L604.6,45.0 L605.2,45.0 L605.8,45.0 L606.3,45.0 L606.9,45.0 L607.5,45.0 L608.0,45.0 L608.6,45.0 L609.2,45.0 L609.7,45.0 L610.3,45.0 L610.9,45.0 L611.5,45.0 L612.0,45.0 L612.6,45.0 L613.2,45.0 L613.7,45.0 L614.3,45.0 L614.9,45.0 L615.5,45.0 L616.0,45.0 L616.6,45.0 L617.2,45.0 L617.7,45.0 L618.3,45.0 L618.9,45.0 L619.5,45.0 L620.0,45.0 L620.6,45.0 L621.2,45.0 L621.7,45.0 L622.3,45.0 L622.9,45.0 L623.5,45.0 L624.0,45.0 L624.6,45.0 L625.2,45.0 L625.7,45.0 L626.3,45.0 L626.9,45.0 L627.5,45.0 L628.0,45.0 L628.6,45.0 L629.2,45.0 L629.7,45.0 L630.3,45.0 L630.9,45.0 L631.5,45.0 L632.0,45.0 L632.6,45.0 L633.2,45.0 L633.7,45.0 L634.3,45.0 L634.9,45.0 L635.5,45.0 L636.0,45.0 L636.6,45.0 L637.2,45.0 L637.7,45.0 L638.3,45.0 L638.9,45.0 L639.4,45.0 L640.0,45.0 L640.6,45.0 L641.2,45.0 L641.7,45.0 L642.3,45.0 L642.9,45.0 L643.4,45.0 L644.0,45.0 L644.6,45.0 L645.2,45.0 L645.7,45.0 L646.3,45.0 L646.9,45.0 L647.4,45.0 L648.0,45.0 L648.6,45.0 L649.2,45.0 L649.7,45.0 L650.3,45.0 L650.9,45.0 L651.4,45.0 L652.0,45.0 L652.6,45.0 L653.2,45.0 L653.7,45.0 L654.3,45.0 L654.9,45.0 L655.4,45.0 L656.0,45.0 L656.6,45.0 L657.2,45.0 L657.7,45.0 L658.3,45.0 L658.9,45.0 L659.4,45.0 L660.0,45.0 L660.6,45.0 L661.2,45.0 L661.7,45.0 L662.3,45.0 L662.9,45.0 L663.4,45.0 L664.0,45.0 L664.6,45.0 L665.2,45.0 L665.7,45.0 L666.3,45.0 L666.9,45.0 L667.4,45.0 L668.0,45.0 L668.6,45.0 L669.1,45.0 L669.7,45.0 L670.3,45.0 L670.9,45.0 L671.4,45.0 L672.0,45.0 L672.6,45.0 L673.1,45.0 L673.7,45.0 L674.3,45.0 L674.9,45.0 L675.4,45.1 L676.0,45.8 L676.6,47.7 L677.1,52.2 L677.7,62.8 L678.3,85.5 L678.9,129.9 L679.4,210.3 L680.0,345.0" stroke="#e74c3c" fill="none" stroke-width="2"/><path d="M395.0,315.0 L395.6,207.2 L396.1,143.0 L396.7,107.3 L397.3,89.3 L397.9,80.8 L398.4,77.2 L399.0,75.6 L399.6,75.1 L400.1,75.0 L400.7,75.0 L401.3,75.0 L401.9,75.0 L402.4,75.0 L403.0,75.0 L403.6,75.0 L404.1,75.0 L404.7,75.0 L405.3,75.0 L405.9,75.0 L406.4,75.0 L407.0,75.0 L407.6,75.0 L408.1,75.0 L408.7,75.0 L409.3,75.0 L409.8,75.0 L410.4,75.0 L411.0,75.0 L411.6,75.0 L412.1,75.0 L412.7,75.0 L413.3,75.0 L413.8,75.0 L414.4,75.0 L415.0,75.0 L415.6,75.0 L416.1,75.0 L416.7,75.0 L417.3,75.0 L417.8,75.0 L418.4,75.0 L419.0,75.0 L419.6,75.0 L420.1,75.0 L420.7,75.0 L421.3,75.0 L421.8,75.0 L422.4,75.0 L423.0,75.0 L423.6,75.0 L424.1,75.0 L424.7,75.0 L425.3,75.0 L425.8,75.0 L426.4,75.0 L427.0,75.0 L427.6,75.0 L428.1,75.0 L428.7,75.0 L429.3,75.0 L429.8,75.0 L430.4,75.0 L431.0,75.0 L431.6,75.0 L432.1,75.0 L432.7,75.0 L433.3,75.0 L433.8,75.0 L434.4,75.0 L435.0,75.0 L435.6,75.0 L436.1,75.0 L436.7,75.0 L437.3,75.0 L437.8,75.0 L438.4,75.0 L439.0,75.0 L439.5,75.0 L440.1,75.0 L440.7,75.0 L441.3,75.0 L441.8,75.0 L442.4,75.0 L443.0,75.0 L443.5,75.0 L444.1,75.0 L444.7,75.0 L445.3,75.0 L445.8,75.0 L446.4,75.0 L447.0,75.0 L447.5,75.0 L448.1,75.0 L448.7,75.0 L449.3,75.0 L449.8,75.0 L450.4,75.0 L451.0,75.0 L451.5,75.0 L452.1,75.0 L452.7,75.0 L453.3,75.0 L453.8,75.0 L454.4,75.0 L455.0,75.0 L455.5,75.0 L456.1,75.0 L456.7,75.0 L457.3,75.0 L457.8,75.0 L458.4,75.0 L459.0,75.0 L459.5,75.0 L460.1,75.0 L460.7,75.0 L461.3,75.0 L461.8,75.0 L462.4,75.0 L463.0,75.0 L463.5,75.0 L464.1,75.0 L464.7,75.0 L465.3,75.0 L465.8,75.0 L466.4,75.0 L467.0,75.0 L467.5,75.0 L468.1,75.0 L468.7,75.0 L469.2,75.0 L469.8,75.0 L470.4,75.0 L471.0,75.0 L471.5,75.0 L472.1,75.0 L472.7,75.0 L473.2,75.0 L473.8,75.0 L474.4,75.0 L475.0,75.0 L475.5,75.0 L476.1,75.0 L476.7,75.0 L477.2,75.0 L477.8,75.0 L478.4,75.0 L479.0,75.0 L479.5,75.0 L480.1,75.0 L480.7,75.0 L481.2,75.0 L481.8,75.0 L482.4,75.0 L483.0,75.0 L483.5,75.0 L484.1,75.0 L484.7,75.0 L485.2,75.0 L485.8,75.0 L486.4,75.0 L487.0,75.0 L487.5,75.0 L488.1,75.0 L488.7,75.0 L489.2,75.0 L489.8,75.0 L490.4,75.0 L491.0,75.0 L491.5,75.0 L492.1,75.0 L492.7,75.0 L493.2,75.0 L493.8,75.0 L494.4,75.0 L494.9,75.0 L495.5,75.0 L496.1,75.0 L496.7,75.0 L497.2,75.0 L497.8,75.0 L498.4,75.0 L498.9,75.0 L499.5,75.0 L500.1,75.0 L500.7,75.0 L501.2,75.0 L501.8,75.0 L502.4,75.0 L502.9,75.0 L503.5,75.0 L504.1,75.0 L504.7,75.0 L505.2,75.0 L505.8,75.0 L506.4,75.0 L506.9,75.0 L507.5,75.0 L508.1,75.0 L508.7,75.0 L509.2,75.0 L509.8,75.0 L510.4,75.0 L510.9,75.0 L511.5,75.0 L512.1,75.0 L512.7,75.0 L513.2,75.0 L513.8,75.0 L514.4,75.0 L514.9,75.0 L515.5,75.0 L516.1,75.0 L516.7,75.0 L517.2,75.0 L517.8,75.0 L518.4,75.0 L518.9,75.0 L519.5,75.0 L520.1,75.0 L520.7,75.0 L521.2,75.0 L521.8,75.0 L522.4,75.0 L522.9,75.0 L523.5,75.0 L524.1,75.0 L524.6,75.0 L525.2,75.0 L525.8,75.0 L526.4,75.0 L526.9,75.0 L527.5,75.0 L528.1,75.0 L528.6,75.0 L529.2,75.0 L529.8,75.0 L530.4,75.0 L530.9,75.0 L531.5,75.0 L532.1,75.0 L532.6,75.0 L533.2,75.0 L533.8,75.0 L534.4,75.0 L534.9,75.0 L535.5,75.0 L536.1,75.0 L536.6,75.0 L537.2,75.0 L537.8,75.0 L538.4,75.0 L538.9,75.0 L539.5,75.0 L540.1,75.0 L540.6,75.0 L541.2,75.0 L541.8,75.0 L542.4,75.0 L542.9,75.0 L543.5,75.0 L544.1,75.0 L544.6,75.0 L545.2,75.0 L545.8,75.0 L546.4,75.0 L546.9,75.0 L547.5,75.0 L548.1,75.0 L548.6,75.0 L549.2,75.0 L549.8,75.0 L550.4,75.0 L550.9,75.0 L551.5,75.0 L552.1,75.0 L552.6,75.0 L553.2,75.0 L553.8,75.0 L554.3,75.0 L554.9,75.0 L555.5,75.0 L556.1,75.0 L556.6,75.0 L557.2,75.0 L557.8,75.0 L558.3,75.0 L558.9,75.0 L559.5,75.0 L560.1,75.0 L560.6,75.0 L561.2,75.0 L561.8,75.0 L562.3,75.0 L562.9,75.0 L563.5,75.0 L564.1,75.0 L564.6,75.0 L565.2,75.0 L565.8,75.0 L566.3,75.0 L566.9,75.0 L567.5,75.0 L568.1,75.0 L568.6,75.0 L569.2,75.0 L569.8,75.0 L570.3,75.0 L570.9,75.0 L571.5,75.0 L572.1,75.0 L572.6,75.0 L573.2,75.0 L573.8,75.0 L574.3,75.0 L574.9,75.0 L575.5,75.0 L576.1,75.0 L576.6,75.0 L577.2,75.0 L577.8,75.0 L578.3,75.0 L578.9,75.0 L579.5,75.0 L580.1,75.0 L580.6,75.0 L581.2,75.0 L581.8,75.0 L582.3,75.0 L582.9,75.0 L583.5,75.0 L584.0,75.0 L584.6,75.0 L585.2,75.0 L585.8,75.0 L586.3,75.0 L586.9,75.0 L587.5,75.0 L588.0,75.0 L588.6,75.0 L589.2,75.0 L589.8,75.0 L590.3,75.0 L590.9,75.0 L591.5,75.0 L592.0,75.0 L592.6,75.0 L593.2,75.0 L593.8,75.0 L594.3,75.0 L594.9,75.0 L595.5,75.0 L596.0,75.0 L596.6,75.0 L597.2,75.0 L597.8,75.0 L598.3,75.0 L598.9,75.0 L599.5,75.0 L600.0,75.0 L600.6,75.0 L601.2,75.0 L601.8,75.0 L602.3,75.0 L602.9,75.0 L603.5,75.0 L604.0,75.0 L604.6,75.0 L605.2,75.0 L605.8,75.0 L606.3,75.0 L606.9,75.0 L607.5,75.0 L608.0,75.0 L608.6,75.0 L609.2,75.0 L609.7,75.0 L610.3,75.0 L610.9,75.0 L611.5,75.0 L612.0,75.0 L612.6,75.0 L613.2,75.0 L613.7,75.0 L614.3,75.0 L614.9,75.0 L615.5,75.0 L616.0,75.0 L616.6,75.0 L617.2,75.0 L617.7,75.0 L618.3,75.0 L618.9,75.0 L619.5,75.0 L620.0,75.0 L620.6,75.0 L621.2,75.0 L621.7,75.0 L622.3,75.0 L622.9,75.0 L623.5,75.0 L624.0,75.0 L624.6,75.0 L625.2,75.0 L625.7,75.0 L626.3,75.0 L626.9,75.0 L627.5,75.0 L628.0,75.0 L628.6,75.0 L629.2,75.0 L629.7,75.0 L630.3,75.0 L630.9,75.0 L631.5,75.0 L632.0,75.0 L632.6,75.0 L633.2,75.0 L633.7,75.0 L634.3,75.0 L634.9,75.0 L635.5,75.0 L636.0,75.0 L636.6,75.0 L637.2,75.0 L637.7,75.0 L638.3,75.0 L638.9,75.0 L639.4,75.0 L640.0,75.0 L640.6,75.0 L641.2,75.0 L641.7,75.0 L642.3,75.0 L642.9,75.0 L643.4,75.0 L644.0,75.0 L644.6,75.0 L645.2,75.0 L645.7,75.0 L646.3,75.0 L646.9,75.0 L647.4,75.0 L648.0,75.0 L648.6,75.0 L649.2,75.0 L649.7,75.0 L650.3,75.0 L650.9,75.0 L651.4,75.0 L652.0,75.0 L652.6,75.0 L653.2,75.0 L653.7,75.0 L654.3,75.0 L654.9,75.0 L655.4,75.0 L656.0,75.0 L656.6,75.0 L657.2,75.0 L657.7,75.0 L658.3,75.0 L658.9,75.0 L659.4,75.0 L660.0,75.0 L660.6,75.0 L661.2,75.0 L661.7,75.0 L662.3,75.0 L662.9,75.0 L663.4,75.0 L664.0,75.0 L664.6,75.0 L665.2,75.0 L665.7,75.0 L666.3,75.0 L666.9,75.0 L667.4,75.0 L668.0,75.0 L668.6,75.0 L669.1,75.0 L669.7,75.0 L670.3,75.0 L670.9,75.0 L671.4,75.0 L672.0,75.0 L672.6,75.0 L673.1,75.0 L673.7,75.0 L674.3,75.0 L674.9,75.0 L675.4,75.1 L676.0,75.6 L676.6,77.2 L677.1,80.8 L677.7,89.3 L678.3,107.3 L678.9,143.0 L679.4,207.2 L680.0,315.0" stroke="#3498db" fill="none" stroke-width="1.5" stroke-dasharray="6,3"/><text x="537" y="37" text-anchor="middle" font-size="11" font-weight="bold">Center Column (c=250)</text><text x="390" y="195" text-anchor="end" font-size="9" fill="#e74c3c" transform="rotate(-90 390 195)">z-displacement</text><text x="537" y="359" text-anchor="middle" font-size="10">Index</text><text x="392" y="49" text-anchor="end" font-size="8">0.013</text><text x="392" y="345" text-anchor="end" font-size="8">0.000</text><line x1="290" y1="388" x2="310" y2="388" stroke="#e74c3c" stroke-width="2"/><text x="314" y="392" font-size="10">z-displacement</text><line x1="390" y1="388" x2="410" y2="388" stroke="#3498db" stroke-width="2" stroke-dasharray="6,3"/><text x="414" y="392" font-size="10">Temperature (K)</text></svg>