<svg xmlns="http://www.w3.org/2000/svg" viewBox="0 0 600 400"><rect width="600" height="400" fill="white"/><text x="300" y="25" text-anchor="middle" font-size="13" font-weight="bold">Load Balance — hotspot4, 500×500, 8 threads, dynamic
Imbalance: 1.0%</text><line x1="70" y1="45" x2="70" y2="330" stroke="#333" stroke-width="1.5"/><line x1="70" y1="330" x2="580" y2="330" stroke="#333" stroke-width="1.5"/><rect x="76.4" y="84.7" width="51.0" height="245.3" fill="#e74c3c" opacity="0.85"/><text x="101.9" y="344" text-anchor="middle" font-size="10">T0</text><rect x="140.1" y="82.3" width="51.0" height="247.7" fill="#e74c3c" opacity="0.85"/><text x="165.6" y="344" text-anchor="middle" font-size="10">T1</text><rect x="203.9" y="82.2" width="51.0" height="247.8" fill="#e74c3c" opacity="0.85"/><text x="229.4" y="344" text-anchor="middle" font-size="10">T2</text><rect x="267.6" y="84.7" width="51.0" height="245.3" fill="#e74c3c" opacity="0.85"/><text x="293.1" y="344" text-anchor="middle" font-size="10">T3</text><rect x="331.4" y="84.7" width="51.0" height="245.3" fill="#e74c3c" opacity="0.85"/><text x="356.9" y="344" text-anchor="middle" font-size="10">T4</text><rect x="395.1" y="84.7" width="51.0" height="245.3" fill="#e74c3c" opacity="0.85"/><text x="420.6" y="344" text-anchor="middle" font-size="10">T5</text><rect x="458.9" y="84.7" width="51.0" height="245.3" fill="#e74c3c" opacity="0.85"/><text x="484.4" y="344" text-anchor="middle" font-size="10">T6</text><rect x="522.6" y="84.7" width="51.0" height="245.3" fill="#e74c3c" opacity="0.85"/><text x="548.1" y="344" text-anchor="middle" font-size="10">T7</text><line x1="70" y1="330.0" x2="65" y2="330.0" stroke="#333"/><text x="62" y="334.0" text-anchor="end" font-size="9">0.0</text><line x1="70" y1="273.0" x2="65" y2="273.0" stroke="#333"/><text x="62" y="277.0" text-anchor="end" font-size="9">0.2</text><line x1="70" y1="216.0" x2="65" y2="216.0" stroke="#333"/><text x="62" y="220.0" text-anchor="end" font-size="9">0.5</text><line x1="70" y1="159.0" x2="65" y2="159.0" stroke="#333"/><text x="62" y="163.0" text-anchor="end" font-size="9">0.7</text><line x1="70" y1="102.0" x2="65" y2="102.0" stroke="#333"/><text x="62" y="106.0" text-anchor="end" font-size="9">0.9</text><line x1="70" y1="45.0" x2="65" y2="45.0" stroke="#333"/><text x="62" y="49.0" text-anchor="end" font-size="9">1.2</text><rect x="80" y="47" width="14" height="10" fill="#e74c3c"/><text x="97" y="55" font-size="10">Thread time (normalized to avg)</text><text x="300" y="392" text-anchor="middle" font-size="11">Thread ID</text><text x="12" y="200" text-anchor="middle" font-size="11" transform="rotate(-90 12 200)">Time (normalized to avg)</text></svg>