<svg xmlns="http://www.w3.org/2000/svg" viewBox="0 0 600 400"><rect width="600" height="400" fill="white"/><text x="300" y="25" text-anchor="middle" font-size="13" font-weight="bold">Load Balance — hotspot4, 500×500, 16 threads, dynamic
Imbalance: 27.3%</text><line x1="70" y1="45" x2="70" y2="330" stroke="#333" stroke-width="1.5"/><line x1="70" y1="330" x2="580" y2="330" stroke="#333" stroke-width="1.5"/><rect x="73.2" y="133.0" width="25.5" height="197.0" fill="#e74c3c" opacity="0.85"/><text x="85.9" y="344" text-anchor="middle" font-size="10">T0</text><rect x="105.1" y="132.5" width="25.5" height="197.5" fill="#e74c3c" opacity="0.85"/><text x="117.8" y="344" text-anchor="middle" font-size="10">T1</text><rect x="136.9" y="103.5" width="25.5" height="226.5" fill="#e74c3c" opacity="0.85"/><text x="149.7" y="344" text-anchor="middle" font-size="10">T2</text><rect x="168.8" y="109.9" width="25.5" height="220.1" fill="#e74c3c" opacity="0.85"/><text x="181.6" y="344" text-anchor="middle" font-size="10">T3</text><rect x="200.7" y="140.7" width="25.5" height="189.3" fill="#e74c3c" opacity="0.85"/><text x="213.4" y="344" text-anchor="middle" font-size="10">T4</text><rect x="232.6" y="104.0" width="25.5" height="226.0" fill="#e74c3c" opacity="0.85"/><text x="245.3" y="344" text-anchor="middle" font-size="10">T5</text><rect x="264.4" y="139.7" width="25.5" height="190.3" fill="#e74c3c" opacity="0.85"/><text x="277.2" y="344" text-anchor="middle" font-size="10">T6</text><rect x="296.3" y="126.7" width="25.5" height="203.3" fill="#e74c3c" opacity="0.85"/><text x="309.1" y="344" text-anchor="middle" font-size="10">T7</text><rect x="328.2" y="126.4" width="25.5" height="203.6" fill="#e74c3c" opacity="0.85"/><text x="340.9" y="344" text-anchor="middle" font-size="10">T8</text><rect x="360.1" y="118.3" width="25.5" height="211.7" fill="#e74c3c" opacity="0.85"/><text x="372.8" y="344" text-anchor="middle" font-size="10">T9</text><rect x="391.9" y="88.8" width="25.5" height="241.2" fill="#e74c3c" opacity="0.85"/><text x="404.7" y="344" text-anchor="middle" font-size="10">T10</text><rect x="423.8" y="108.7" width="25.5" height="221.3" fill="#e74c3c" opacity="0.85"/><text x="436.6" y="344" text-anchor="middle" font-size="10">T11</text><rect x="455.7" y="105.8" width="25.5" height="224.2" fill="#e74c3c" opacity="0.85"/><text x="468.4" y="344" text-anchor="middle" font-size="10">T12</text><rect x="487.6" y="120.3" width="25.5" height="209.7" fill="#e74c3c" opacity="0.85"/><text x="500.3" y="344" text-anchor="middle" font-size="10">T13</text><rect x="519.4" y="114.7" width="25.5" height="215.3" fill="#e74c3c" opacity="0.85"/><text x="532.2" y="344" text-anchor="middle" font-size="10">T14</text><rect x="551.3" y="82.2" width="25.5" height="247.8" fill="#e74c3c" opacity="0.85"/><text x="564.1" y="344" text-anchor="middle" font-size="10">T15</text><line x1="70" y1="330.0" x2="65" y2="330.0" stroke="#333"/><text x="62" y="334.0" text-anchor="end" font-size="9">0.0</text><line x1="70" y1="273.0" x2="65" y2="273.0" stroke="#333"/><text x="62" y="277.0" text-anchor="end" font-size="9">0.3</text><line x1="70" y1="216.0" x2="65" y2="216.0" stroke="#333"/><text x="62" y="220.0" text-anchor="end" font-size="9">0.5</text><line x1="70" y1="159.0" x2="65" y2="159.0" stroke="#333"/><text x="62" y="163.0" text-anchor="end" font-size="9">0.8</text><line x1="70" y1="102.0" x2="65" y2="102.0" stroke="#333"/><text x="62" y="106.0" text-anchor="end" font-size="9">1.1</text><line x1="70" y1="45.0" x2="65" y2="45.0" stroke="#333"/><text x="62" y="49.0" text-anchor="end" font-size="9">1.3</text><rect x="80" y="47" width="14" height="10" fill="#e74c3c"/><text x="97" y="55" font-size="10">Thread time (normalized to avg)</text><text x="300" y="392" text-anchor="middle" font-size="11">Thread ID</text><text x="12" y="200" text-anchor="middle" font-size="11" transform="rotate(-90 12 200)">Time (normalized to avg)</text></svg>