<svg xmlns="http://www.w3.org/2000/svg" viewBox="0 0 560 400"><rect width="560" height="400" fill="white"/><text x="280" y="30" text-anchor="middle" font-size="13" font-weight="bold">Static vs Dynamic — hotspot4, 500x500</text><path d="M70.0,40.0 L70.0,340.0 L540.0,340.0" stroke="#333" fill="none" stroke-width="1.5"/><line x1="70.0" y1="340.0" x2="70.0" y2="345.0" stroke="#333"/><text x="70.0" y="356.0" text-anchor="middle" font-size="11">1</text><line x1="101.3" y1="340.0" x2="101.3" y2="345.0" stroke="#333"/><text x="101.3" y="356.0" text-anchor="middle" font-size="11">2</text><line x1="164.0" y1="340.0" x2="164.0" y2="345.0" stroke="#333"/><text x="164.0" y="356.0" text-anchor="middle" font-size="11">4</text><line x1="289.3" y1="340.0" x2="289.3" y2="345.0" stroke="#333"/><text x="289.3" y="356.0" text-anchor="middle" font-size="11">8</text><line x1="540.0" y1="340.0" x2="540.0" y2="345.0" stroke="#333"/><text x="540.0" y="356.0" text-anchor="middle" font-size="11">16</text><line x1="70.0" y1="340.0" x2="65.0" y2="340.0" stroke="#333"/><text x="62.0" y="344.0" text-anchor="end" font-size="10">0.0</text><line x1="70.0" y1="280.0" x2="65.0" y2="280.0" stroke="#333"/><text x="62.0" y="284.0" text-anchor="end" font-size="10">3.4</text><line x1="70.0" y1="220.0" x2="65.0" y2="220.0" stroke="#333"/><text x="62.0" y="224.0" text-anchor="end" font-size="10">6.7</text><line x1="70.0" y1="160.0" x2="65.0" y2="160.0" stroke="#333"/><text x="62.0" y="164.0" text-anchor="end" font-size="10">10.1</text><line x1="70.0" y1="100.0" x2="65.0" y2="100.0" stroke="#333"/><text x="62.0" y="104.0" text-anchor="end" font-size="10">13.4</text><line x1="70.0" y1="40.0" x2="65.0" y2="40.0" stroke="#333"/><text x="62.0" y="44.0" text-anchor="end" font-size="10">16.8</text><line x1="70.0" y1="322.1" x2="540.0" y2="54.3" stroke="#aaa" stroke-dasharray="6,3" stroke-width="1.5"/><path d="M70.0,322.2 L70.0,322.1 L70.0,322.0 L101.3,307.7 L101.3,306.7 L101.3,306.3 L164.0,282.4 L164.0,282.2 L164.0,281.0 L164.0,280.4 L289.3,268.1 L289.3,263.2 L289.3,262.9 L289.3,252.9 L540.0,294.3 L540.0,292.0 L540.0,291.6 L540.0,291.1" stroke="#e74c3c" fill="none" stroke-width="2"/><circle cx="70.0" cy="322.2" r="4" fill="#e74c3c"/><circle cx="70.0" cy="322.1" r="4" fill="#e74c3c"/><circle cx="70.0" cy="322.0" r="4" fill="#e74c3c"/><circle cx="101.3" cy="307.7" r="4" fill="#e74c3c"/><circle cx="101.3" cy="306.7" r="4" fill="#e74c3c"/><circle cx="101.3" cy="306.3" r="4" fill="#e74c3c"/><circle cx="164.0" cy="282.4" r="4" fill="#e74c3c"/><circle cx="164.0" cy="282.2" r="4" fill="#e74c3c"/><circle cx="164.0" cy="281.0" r="4" fill="#e74c3c"/><circle cx="164.0" cy="280.4" r="4" fill="#e74c3c"/><circle cx="289.3" cy="268.1" r="4" fill="#e74c3c"/><circle cx="289.3" cy="263.2" r="4" fill="#e74c3c"/><circle cx="289.3" cy="262.9" r="4" fill="#e74c3c"/><circle cx="289.3" cy="252.9" r="4" fill="#e74c3c"/><circle cx="540.0" cy="294.3" r="4" fill="#e74c3c"/><circle cx="540.0" cy="292.0" r="4" fill="#e74c3c"/><circle cx="540.0" cy="291.6" r="4" fill="#e74c3c"/><circle cx="540.0" cy="291.1" r="4" fill="#e74c3c"/><path d="M70.0,322.3 L70.0,322.2 L70.0,322.2 L101.3,311.6 L101.3,311.2 L101.3,311.1 L164.0,292.8 L164.0,292.7 L164.0,292.5 L164.0,291.8 L289.3,279.7 L289.3,279.2 L289.3,271.5 L289.3,270.8 L540.0,285.4 L540.0,285.3 L540.0,283.8 L540.0,281.9" stroke="#3498db" fill="none" stroke-width="2"/><circle cx="70.0" cy="322.3" r="4" fill="#3498db"/><circle cx="70.0" cy="322.2" r="4" fill="#3498db"/><circle cx="70.0" cy="322.2" r="4" fill="#3498db"/><circle cx="101.3" cy="311.6" r="4" fill="#3498db"/><circle cx="101.3" cy="311.2" r="4" fill="#3498db"/><circle cx="101.3" cy="311.1" r="4" fill="#3498db"/><circle cx="164.0" cy="292.8" r="4" fill="#3498db"/><circle cx="164.0" cy="292.7" r="4" fill="#3498db"/><circle cx="164.0" cy="292.5" r="4" fill="#3498db"/><circle cx="164.0" cy="291.8" r="4" fill="#3498db"/><circle cx="289.3" cy="279.7" r="4" fill="#3498db"/><circle cx="289.3" cy="279.2" r="4" fill="#3498db"/><circle cx="289.3" cy="271.5" r="4" fill="#3498db"/><circle cx="289.3" cy="270.8" r="4" fill="#3498db"/><circle cx="540.0" cy="285.4" r="4" fill="#3498db"/><circle cx="540.0" cy="285.3" r="4" fill="#3498db"/><circle cx="540.0" cy="283.8" r="4" fill="#3498db"/><circle cx="540.0" cy="281.9" r="4" fill="#3498db"/><g transform="translate(80,50)"><line x1="0" y1="6" x2="20" y2="6" stroke="#aaa" stroke-dasharray="6,3" stroke-width="1.5"/><text x="24" y="10" font-size="10">Ideal linear</text></g><g transform="translate(80,68)"><line x1="0" y1="6" x2="20" y2="6" stroke="#e74c3c" stroke-width="2"/><text x="24" y="10" font-size="10">static</text></g><g transform="translate(80,86)"><line x1="0" y1="6" x2="20" y2="6" stroke="#3498db" stroke-width="2"/><text x="24" y="10" font-size="10">dynamic</text></g><text x="280" y="390" text-anchor="middle" font-size="12">Number of Threads</text><text x="14" y="200" text-anchor="middle" font-size="12" transform="rotate(-90 14 200)">Speedup</text></svg>