<svg xmlns="http://www.w3.org/2000/svg" viewBox="0 0 560 400"><rect width="560" height="400" fill="white"/><text x="280" y="30" text-anchor="middle" font-size="13" font-weight="bold">Static vs Dynamic — hotspot4, 100x100</text><path d="M70.0,40.0 L70.0,340.0 L540.0,340.0" stroke="#333" fill="none" stroke-width="1.5"/><line x1="70.0" y1="340.0" x2="70.0" y2="345.0" stroke="#333"/><text x="70.0" y="356.0" text-anchor="middle" font-size="11">1</text><line x1="137.1" y1="340.0" x2="137.1" y2="345.0" stroke="#333"/><text x="137.1" y="356.0" text-anchor="middle" font-size="11">2</text><line x1="271.4" y1="340.0" x2="271.4" y2="345.0" stroke="#333"/><text x="271.4" y="356.0" text-anchor="middle" font-size="11">4</text><line x1="540.0" y1="340.0" x2="540.0" y2="345.0" stroke="#333"/><text x="540.0" y="356.0" text-anchor="middle" font-size="11">8</text><line x1="70.0" y1="340.0" x2="65.0" y2="340.0" stroke="#333"/><text x="62.0" y="344.0" text-anchor="end" font-size="10">0.0</text><line x1="70.0" y1="280.0" x2="65.0" y2="280.0" stroke="#333"/><text x="62.0" y="284.0" text-anchor="end" font-size="10">1.7</text><line x1="70.0" y1="220.0" x2="65.0" y2="220.0" stroke="#333"/><text x="62.0" y="224.0" text-anchor="end" font-size="10">3.4</text><line x1="70.0" y1="160.0" x2="65.0" y2="160.0" stroke="#333"/><text x="62.0" y="164.0" text-anchor="end" font-size="10">5.0</text><line x1="70.0" y1="100.0" x2="65.0" y2="100.0" stroke="#333"/><text x="62.0" y="104.0" text-anchor="end" font-size="10">6.7</text><line x1="70.0" y1="40.0" x2="65.0" y2="40.0" stroke="#333"/><text x="62.0" y="44.0" text-anchor="end" font-size="10">8.4</text><line x1="70.0" y1="304.3" x2="540.0" y2="54.3" stroke="#aaa" stroke-dasharray="6,3" stroke-width="1.5"/><path d="M70.0,304.3 L70.0,304.1 L70.0,303.8 L137.1,274.9 L137.1,273.9 L137.1,272.7 L271.4,223.1 L271.4,222.7 L271.4,218.6 L540.0,121.6 L540.0,120.5 L540.0,115.1" stroke="#e74c3c" fill="none" stroke-width="2"/><circle cx="70.0" cy="304.3" r="4" fill="#e74c3c"/><circle cx="70.0" cy="304.1" r="4" fill="#e74c3c"/><circle cx="70.0" cy="303.8" r="4" fill="#e74c3c"/><circle cx="137.1" cy="274.9" r="4" fill="#e74c3c"/><circle cx="137.1" cy="273.9" r="4" fill="#e74c3c"/><circle cx="137.1" cy="272.7" r="4" fill="#e74c3c"/><circle cx="271.4" cy="223.1" r="4" fill="#e74c3c"/><circle cx="271.4" cy="222.7" r="4" fill="#e74c3c"/><circle cx="271.4" cy="218.6" r="4" fill="#e74c3c"/><circle cx="540.0" cy="121.6" r="4" fill="#e74c3c"/><circle cx="540.0" cy="120.5" r="4" fill="#e74c3c"/><circle cx="540.0" cy="115.1" r="4" fill="#e74c3c"/><path d="M70.0,304.4 L70.0,304.1 L70.0,304.0 L137.1,278.5 L137.1,278.3 L137.1,276.3 L271.4,232.7 L271.4,230.2 L271.4,228.4 L540.0,156.2 L540.0,155.7 L540.0,155.5" stroke="#3498db" fill="none" stroke-width="2"/><circle cx="70.0" cy="304.4" r="4" fill="#3498db"/><circle cx="70.0" cy="304.1" r="4" fill="#3498db"/><circle cx="70.0" cy="304.0" r="4" fill="#3498db"/><circle cx="137.1" cy="278.5" r="4" fill="#3498db"/><circle cx="137.1" cy="278.3" r="4" fill="#3498db"/><circle cx="137.1" cy="276.3" r="4" fill="#3498db"/><circle cx="271.4" cy="232.7" r="4" fill="#3498db"/><circle cx="271.4" cy="230.2" r="4" fill="#3498db"/><circle cx="271.4" cy="228.4" r="4" fill="#3498db"/><circle cx="540.0" cy="156.2" r="4" fill="#3498db"/><circle cx="540.0" cy="155.7" r="4" fill="#3498db"/><circle cx="540.0" cy="155.5" r="4" fill="#3498db"/><g transform="translate(80,50)"><line x1="0" y1="6" x2="20" y2="6" stroke="#aaa" stroke-dasharray="6,3" stroke-width="1.5"/><text x="24" y="10" font-size="10">Ideal linear</text></g><g transform="translate(80,68)"><line x1="0" y1="6" x2="20" y2="6" stroke="#e74c3c" stroke-width="2"/><text x="24" y="10" font-size="10">static</text></g><g transform="translate(80,86)"><line x1="0" y1="6" x2="20" y2="6" stroke="#3498db" stroke-width="2"/><text x="24" y="10" font-size="10">dynamic</text></g><text x="280" y="390" text-anchor="middle" font-size="12">Number of Threads</text><text x="14" y="200" text-anchor="middle" font-size="12" transform="rotate(-90 14 200)">Speedup</text></svg>