<svg xmlns="http://www.w3.org/2000/svg" viewBox="0 0 560 400"><rect width="560" height="400" fill="white"/><text x="280" y="30" text-anchor="middle" font-size="13" font-weight="bold">Speedup — 100x100 mesh, dynamic scheduling</text><path d="M70.0,40.0 L70.0,340.0 L540.0,340.0" stroke="#333" fill="none" stroke-width="1.5"/><line x1="70.0" y1="340.0" x2="70.0" y2="345.0" stroke="#333"/><text x="70.0" y="356.0" text-anchor="middle" font-size="11">1</text><line x1="101.3" y1="340.0" x2="101.3" y2="345.0" stroke="#333"/><text x="101.3" y="356.0" text-anchor="middle" font-size="11">2</text><line x1="164.0" y1="340.0" x2="164.0" y2="345.0" stroke="#333"/><text x="164.0" y="356.0" text-anchor="middle" font-size="11">4</text><line x1="289.3" y1="340.0" x2="289.3" y2="345.0" stroke="#333"/><text x="289.3" y="356.0" text-anchor="middle" font-size="11">8</text><line x1="540.0" y1="340.0" x2="540.0" y2="345.0" stroke="#333"/><text x="540.0" y="356.0" text-anchor="middle" font-size="11">16</text><line x1="70.0" y1="340.0" x2="65.0" y2="340.0" stroke="#333"/><text x="62.0" y="344.0" text-anchor="end" font-size="10">0.0</text><line x1="70.0" y1="280.0" x2="65.0" y2="280.0" stroke="#333"/><text x="62.0" y="284.0" text-anchor="end" font-size="10">3.4</text><line x1="70.0" y1="220.0" x2="65.0" y2="220.0" stroke="#333"/><text x="62.0" y="224.0" text-anchor="end" font-size="10">6.7</text><line x1="70.0" y1="160.0" x2="65.0" y2="160.0" stroke="#333"/><text x="62.0" y="164.0" text-anchor="end" font-size="10">10.1</text><line x1="70.0" y1="100.0" x2="65.0" y2="100.0" stroke="#333"/><text x="62.0" y="104.0" text-anchor="end" font-size="10">13.4</text><line x1="70.0" y1="40.0" x2="65.0" y2="40.0" stroke="#333"/><text x="62.0" y="44.0" text-anchor="end" font-size="10">16.8</text><line x1="70.0" y1="322.1" x2="540.0" y2="54.3" stroke="#aaa" stroke-dasharray="6,3" stroke-width="1.5"/><path d="M70.0,322.1 L70.0,322.1 L70.0,321.9 L101.3,308.7 L101.3,308.7 L101.3,308.5 L164.0,285.5 L164.0,284.4 L164.0,283.9 L289.3,271.2 L289.3,268.6 L289.3,267.2 L540.0,324.0 L540.0,323.9 L540.0,323.8" stroke="#e74c3c" fill="none" stroke-width="2"/><circle cx="70.0" cy="322.1" r="4" fill="#e74c3c"/><circle cx="70.0" cy="322.1" r="4" fill="#e74c3c"/><circle cx="70.0" cy="321.9" r="4" fill="#e74c3c"/><circle cx="101.3" cy="308.7" r="4" fill="#e74c3c"/><circle cx="101.3" cy="308.7" r="4" fill="#e74c3c"/><circle cx="101.3" cy="308.5" r="4" fill="#e74c3c"/><circle cx="164.0" cy="285.5" r="4" fill="#e74c3c"/><circle cx="164.0" cy="284.4" r="4" fill="#e74c3c"/><circle cx="164.0" cy="283.9" r="4" fill="#e74c3c"/><circle cx="289.3" cy="271.2" r="4" fill="#e74c3c"/><circle cx="289.3" cy="268.6" r="4" fill="#e74c3c"/><circle cx="289.3" cy="267.2" r="4" fill="#e74c3c"/><circle cx="540.0" cy="324.0" r="4" fill="#e74c3c"/><circle cx="540.0" cy="323.9" r="4" fill="#e74c3c"/><circle cx="540.0" cy="323.8" r="4" fill="#e74c3c"/><path d="M70.0,322.6 L70.0,322.3 L70.0,322.1 L101.3,309.9 L101.3,309.6 L101.3,309.1 L164.0,286.6 L164.0,285.9 L164.0,285.2 L289.3,280.3 L289.3,276.2 L289.3,270.7 L540.0,326.1 L540.0,325.9 L540.0,324.7" stroke="#3498db" fill="none" stroke-width="2"/><circle cx="70.0" cy="322.6" r="4" fill="#3498db"/><circle cx="70.0" cy="322.3" r="4" fill="#3498db"/><circle cx="70.0" cy="322.1" r="4" fill="#3498db"/><circle cx="101.3" cy="309.9" r="4" fill="#3498db"/><circle cx="101.3" cy="309.6" r="4" fill="#3498db"/><circle cx="101.3" cy="309.1" r="4" fill="#3498db"/><circle cx="164.0" cy="286.6" r="4" fill="#3498db"/><circle cx="164.0" cy="285.9" r="4" fill="#3498db"/><circle cx="164.0" cy="285.2" r="4" fill="#3498db"/><circle cx="289.3" cy="280.3" r="4" fill="#3498db"/><circle cx="289.3" cy="276.2" r="4" fill="#3498db"/><circle cx="289.3" cy="270.7" r="4" fill="#3498db"/><circle cx="540.0" cy="326.1" r="4" fill="#3498db"/><circle cx="540.0" cy="325.9" r="4" fill="#3498db"/><circle cx="540.0" cy="324.7" r="4" fill="#3498db"/><path d="M70.0,322.6 L70.0,322.3 L70.0,322.1 L101.3,309.6 L101.3,309.3 L101.3,309.2 L164.0,287.2 L164.0,284.8 L164.0,284.2 L289.3,273.2 L289.3,269.6 L289.3,268.7 L540.0,324.3 L540.0,323.9 L540.0,323.9" stroke="#2ecc71" fill="none" stroke-width="2"/><circle cx="70.0" cy="322.6" r="4" fill="#2ecc71"/><circle cx="70.0" cy="322.3" r="4" fill="#2ecc71"/><circle cx="70.0" cy="322.1" r="4" fill="#2ecc71"/><circle cx="101.3" cy="309.6" r="4" fill="#2ecc71"/><circle cx="101.3" cy="309.3" r="4" fill="#2ecc71"/><circle cx="101.3" cy="309.2" r="4" fill="#2ecc71"/><circle cx="164.0" cy="287.2" r="4" fill="#2ecc71"/><circle cx="164.0" cy="284.8" r="4" fill="#2ecc71"/><circle cx="164.0" cy="284.2" r="4" fill="#2ecc71"/><circle cx="289.3" cy="273.2" r="4" fill="#2ecc71"/><circle cx="289.3" cy="269.6" r="4" fill="#2ecc71"/><circle cx="289.3" cy="268.7" r="4" fill="#2ecc71"/><circle cx="540.0" cy="324.3" r="4" fill="#2ecc71"/><circle cx="540.0" cy="323.9" r="4" fill="#2ecc71"/><circle cx="540.0" cy="323.9" r="4" fill="#2ecc71"/><path d="M70.0,322.5 L70.0,322.2 L70.0,322.1 L101.3,309.3 L101.3,309.1 L101.3,308.9 L164.0,286.2 L164.0,285.3 L164.0,285.0 L289.3,278.3 L289.3,273.1 L289.3,269.6 L540.0,324.3 L540.0,324.2 L540.0,324.2" stroke="#f39c12" fill="none" stroke-width="2"/><circle cx="70.0" cy="322.5" r="4" fill="#f39c12"/><circle cx="70.0" cy="322.2" r="4" fill="#f39c12"/><circle cx="70.0" cy="322.1" r="4" fill="#f39c12"/><circle cx="101.3" cy="309.3" r="4" fill="#f39c12"/><circle cx="101.3" cy="309.1" r="4" fill="#f39c12"/><circle cx="101.3" cy="308.9" r="4" fill="#f39c12"/><circle cx="164.0" cy="286.2" r="4" fill="#f39c12"/><circle cx="164.0" cy="285.3" r="4" fill="#f39c12"/><circle cx="164.0" cy="285.0" r="4" fill="#f39c12"/><circle cx="289.3" cy="278.3" r="4" fill="#f39c12"/><circle cx="289.3" cy="273.1" r="4" fill="#f39c12"/><circle cx="289.3" cy="269.6" r="4" fill="#f39c12"/><circle cx="540.0" cy="324.3" r="4" fill="#f39c12"/><circle cx="540.0" cy="324.2" r="4" fill="#f39c12"/><circle cx="540.0" cy="324.2" r="4" fill="#f39c12"/><g transform="translate(80,50)"><line x1="0" y1="6" x2="20" y2="6" stroke="#aaa" stroke-dasharray="6,3" stroke-width="1.5"/><text x="24" y="10" font-size="10">Ideal linear</text></g><g transform="translate(80,68)"><line x1="0" y1="6" x2="20" y2="6" stroke="#e74c3c" stroke-width="2"/><text x="24" y="10" font-size="10">hotspot1</text></g><g transform="translate(80,86)"><line x1="0" y1="6" x2="20" y2="6" stroke="#3498db" stroke-width="2"/><text x="24" y="10" font-size="10">hotspot4</text></g><g transform="translate(80,104)"><line x1="0" y1="6" x2="20" y2="6" stroke="#2ecc71" stroke-width="2"/><text x="24" y="10" font-size="10">random</text></g><g transform="translate(80,122)"><line x1="0" y1="6" x2="20" y2="6" stroke="#f39c12" stroke-width="2"/><text x="24" y="10" font-size="10">uniform</text></g><text x="280" y="390" text-anchor="middle" font-size="12">Number of Threads</text><text x="14" y="200" text-anchor="middle" font-size="12" transform="rotate(-90 14 200)">Speedup</text></svg>