<svg xmlns="http://www.w3.org/2000/svg" viewBox="0 0 560 400"><rect width="560" height="400" fill="white"/><text x="280" y="30" text-anchor="middle" font-size="13" font-weight="bold">Speedup — 500x500 mesh, static scheduling</text><path d="M70.0,40.0 L70.0,340.0 L540.0,340.0" stroke="#333" fill="none" stroke-width="1.5"/><line x1="70.0" y1="340.0" x2="70.0" y2="345.0" stroke="#333"/><text x="70.0" y="356.0" text-anchor="middle" font-size="11">1</text><line x1="101.3" y1="340.0" x2="101.3" y2="345.0" stroke="#333"/><text x="101.3" y="356.0" text-anchor="middle" font-size="11">2</text><line x1="164.0" y1="340.0" x2="164.0" y2="345.0" stroke="#333"/><text x="164.0" y="356.0" text-anchor="middle" font-size="11">4</text><line x1="289.3" y1="340.0" x2="289.3" y2="345.0" stroke="#333"/><text x="289.3" y="356.0" text-anchor="middle" font-size="11">8</text><line x1="540.0" y1="340.0" x2="540.0" y2="345.0" stroke="#333"/><text x="540.0" y="356.0" text-anchor="middle" font-size="11">16</text><line x1="70.0" y1="340.0" x2="65.0" y2="340.0" stroke="#333"/><text x="62.0" y="344.0" text-anchor="end" font-size="10">0.0</text><line x1="70.0" y1="280.0" x2="65.0" y2="280.0" stroke="#333"/><text x="62.0" y="284.0" text-anchor="end" font-size="10">3.4</text><line x1="70.0" y1="220.0" x2="65.0" y2="220.0" stroke="#333"/><text x="62.0" y="224.0" text-anchor="end" font-size="10">6.7</text><line x1="70.0" y1="160.0" x2="65.0" y2="160.0" stroke="#333"/><text x="62.0" y="164.0" text-anchor="end" font-size="10">10.1</text><line x1="70.0" y1="100.0" x2="65.0" y2="100.0" stroke="#333"/><text x="62.0" y="104.0" text-anchor="end" font-size="10">13.4</text><line x1="70.0" y1="40.0" x2="65.0" y2="40.0" stroke="#333"/><text x="62.0" y="44.0" text-anchor="end" font-size="10">16.8</text><line x1="70.0" y1="322.1" x2="540.0" y2="54.3" stroke="#aaa" stroke-dasharray="6,3" stroke-width="1.5"/><path d="M70.0,324.1 L70.0,324.0 L70.0,323.9 L70.0,323.8 L70.0,322.1 L101.3,310.0 L101.3,309.9 L101.3,309.7 L164.0,288.4 L164.0,288.1 L164.0,287.9 L164.0,286.7 L289.3,275.0 L289.3,272.0 L289.3,266.6 L289.3,264.5 L289.3,263.9 L289.3,248.5 L540.0,298.6 L540.0,297.0 L540.0,296.3 L540.0,295.9" stroke="#e74c3c" fill="none" stroke-width="2"/><circle cx="70.0" cy="324.1" r="4" fill="#e74c3c"/><circle cx="70.0" cy="324.0" r="4" fill="#e74c3c"/><circle cx="70.0" cy="323.9" r="4" fill="#e74c3c"/><circle cx="70.0" cy="323.8" r="4" fill="#e74c3c"/><circle cx="70.0" cy="322.1" r="4" fill="#e74c3c"/><circle cx="101.3" cy="310.0" r="4" fill="#e74c3c"/><circle cx="101.3" cy="309.9" r="4" fill="#e74c3c"/><circle cx="101.3" cy="309.7" r="4" fill="#e74c3c"/><circle cx="164.0" cy="288.4" r="4" fill="#e74c3c"/><circle cx="164.0" cy="288.1" r="4" fill="#e74c3c"/><circle cx="164.0" cy="287.9" r="4" fill="#e74c3c"/><circle cx="164.0" cy="286.7" r="4" fill="#e74c3c"/><circle cx="289.3" cy="275.0" r="4" fill="#e74c3c"/><circle cx="289.3" cy="272.0" r="4" fill="#e74c3c"/><circle cx="289.3" cy="266.6" r="4" fill="#e74c3c"/><circle cx="289.3" cy="264.5" r="4" fill="#e74c3c"/><circle cx="289.3" cy="263.9" r="4" fill="#e74c3c"/><circle cx="289.3" cy="248.5" r="4" fill="#e74c3c"/><circle cx="540.0" cy="298.6" r="4" fill="#e74c3c"/><circle cx="540.0" cy="297.0" r="4" fill="#e74c3c"/><circle cx="540.0" cy="296.3" r="4" fill="#e74c3c"/><circle cx="540.0" cy="295.9" r="4" fill="#e74c3c"/><path d="M70.0,322.2 L70.0,322.1 L70.0,322.0 L101.3,307.7 L101.3,306.7 L101.3,306.3 L164.0,282.4 L164.0,282.2 L164.0,281.0 L164.0,280.4 L289.3,268.1 L289.3,263.2 L289.3,262.9 L289.3,252.9 L540.0,294.3 L540.0,292.0 L540.0,291.6 L540.0,291.1" stroke="#3498db" fill="none" stroke-width="2"/><circle cx="70.0" cy="322.2" r="4" fill="#3498db"/><circle cx="70.0" cy="322.1" r="4" fill="#3498db"/><circle cx="70.0" cy="322.0" r="4" fill="#3498db"/><circle cx="101.3" cy="307.7" r="4" fill="#3498db"/><circle cx="101.3" cy="306.7" r="4" fill="#3498db"/><circle cx="101.3" cy="306.3" r="4" fill="#3498db"/><circle cx="164.0" cy="282.4" r="4" fill="#3498db"/><circle cx="164.0" cy="282.2" r="4" fill="#3498db"/><circle cx="164.0" cy="281.0" r="4" fill="#3498db"/><circle cx="164.0" cy="280.4" r="4" fill="#3498db"/><circle cx="289.3" cy="268.1" r="4" fill="#3498db"/><circle cx="289.3" cy="263.2" r="4" fill="#3498db"/><circle cx="289.3" cy="262.9" r="4" fill="#3498db"/><circle cx="289.3" cy="252.9" r="4" fill="#3498db"/><circle cx="540.0" cy="294.3" r="4" fill="#3498db"/><circle cx="540.0" cy="292.0" r="4" fill="#3498db"/><circle cx="540.0" cy="291.6" r="4" fill="#3498db"/><circle cx="540.0" cy="291.1" r="4" fill="#3498db"/><path d="M70.0,322.3 L70.0,322.1 L70.0,322.1 L101.3,307.0 L101.3,306.9 L101.3,306.7 L164.0,281.9 L164.0,281.6 L164.0,280.4 L289.3,264.7 L289.3,259.1 L289.3,254.6 L540.0,293.1 L540.0,292.6 L540.0,292.4" stroke="#2ecc71" fill="none" stroke-width="2"/><circle cx="70.0" cy="322.3" r="4" fill="#2ecc71"/><circle cx="70.0" cy="322.1" r="4" fill="#2ecc71"/><circle cx="70.0" cy="322.1" r="4" fill="#2ecc71"/><circle cx="101.3" cy="307.0" r="4" fill="#2ecc71"/><circle cx="101.3" cy="306.9" r="4" fill="#2ecc71"/><circle cx="101.3" cy="306.7" r="4" fill="#2ecc71"/><circle cx="164.0" cy="281.9" r="4" fill="#2ecc71"/><circle cx="164.0" cy="281.6" r="4" fill="#2ecc71"/><circle cx="164.0" cy="280.4" r="4" fill="#2ecc71"/><circle cx="289.3" cy="264.7" r="4" fill="#2ecc71"/><circle cx="289.3" cy="259.1" r="4" fill="#2ecc71"/><circle cx="289.3" cy="254.6" r="4" fill="#2ecc71"/><circle cx="540.0" cy="293.1" r="4" fill="#2ecc71"/><circle cx="540.0" cy="292.6" r="4" fill="#2ecc71"/><circle cx="540.0" cy="292.4" r="4" fill="#2ecc71"/><path d="M70.0,322.2 L70.0,322.2 L70.0,322.1 L70.0,318.6 L70.0,318.4 L70.0,318.4 L70.0,318.4 L70.0,318.4 L70.0,318.3 L101.3,300.2 L101.3,299.7 L101.3,299.4 L164.0,298.1 L164.0,297.5 L164.0,296.6 L164.0,271.2 L164.0,269.9 L164.0,269.4 L164.0,269.3 L164.0,269.2 L164.0,267.2 L289.3,300.2 L289.3,297.9 L289.3,293.5 L289.3,249.1 L289.3,248.4 L289.3,245.1 L289.3,239.4 L289.3,235.9 L289.3,230.3 L540.0,306.4 L540.0,305.7 L540.0,305.6 L540.0,283.7 L540.0,283.0 L540.0,282.9 L540.0,282.6 L540.0,282.3 L540.0,281.6" stroke="#f39c12" fill="none" stroke-width="2"/><circle cx="70.0" cy="322.2" r="4" fill="#f39c12"/><circle cx="70.0" cy="322.2" r="4" fill="#f39c12"/><circle cx="70.0" cy="322.1" r="4" fill="#f39c12"/><circle cx="70.0" cy="318.6" r="4" fill="#f39c12"/><circle cx="70.0" cy="318.4" r="4" fill="#f39c12"/><circle cx="70.0" cy="318.4" r="4" fill="#f39c12"/><circle cx="70.0" cy="318.4" r="4" fill="#f39c12"/><circle cx="70.0" cy="318.4" r="4" fill="#f39c12"/><circle cx="70.0" cy="318.3" r="4" fill="#f39c12"/><circle cx="101.3" cy="300.2" r="4" fill="#f39c12"/><circle cx="101.3" cy="299.7" r="4" fill="#f39c12"/><circle cx="101.3" cy="299.4" r="4" fill="#f39c12"/><circle cx="164.0" cy="298.1" r="4" fill="#f39c12"/><circle cx="164.0" cy="297.5" r="4" fill="#f39c12"/><circle cx="164.0" cy="296.6" r="4" fill="#f39c12"/><circle cx="164.0" cy="271.2" r="4" fill="#f39c12"/><circle cx="164.0" cy="269.9" r="4" fill="#f39c12"/><circle cx="164.0" cy="269.4" r="4" fill="#f39c12"/><circle cx="164.0" cy="269.3" r="4" fill="#f39c12"/><circle cx="164.0" cy="269.2" r="4" fill="#f39c12"/><circle cx="164.0" cy="267.2" r="4" fill="#f39c12"/><circle cx="289.3" cy="300.2" r="4" fill="#f39c12"/><circle cx="289.3" cy="297.9" r="4" fill="#f39c12"/><circle cx="289.3" cy="293.5" r="4" fill="#f39c12"/><circle cx="289.3" cy="249.1" r="4" fill="#f39c12"/><circle cx="289.3" cy="248.4" r="4" fill="#f39c12"/><circle cx="289.3" cy="245.1" r="4" fill="#f39c12"/><circle cx="289.3" cy="239.4" r="4" fill="#f39c12"/><circle cx="289.3" cy="235.9" r="4" fill="#f39c12"/><circle cx="289.3" cy="230.3" r="4" fill="#f39c12"/><circle cx="540.0" cy="306.4" r="4" fill="#f39c12"/><circle cx="540.0" cy="305.7" r="4" fill="#f39c12"/><circle cx="540.0" cy="305.6" r="4" fill="#f39c12"/><circle cx="540.0" cy="283.7" r="4" fill="#f39c12"/><circle cx="540.0" cy="283.0" r="4" fill="#f39c12"/><circle cx="540.0" cy="282.9" r="4" fill="#f39c12"/><circle cx="540.0" cy="282.6" r="4" fill="#f39c12"/><circle cx="540.0" cy="282.3" r="4" fill="#f39c12"/><circle cx="540.0" cy="281.6" r="4" fill="#f39c12"/><g transform="translate(80,50)"><line x1="0" y1="6" x2="20" y2="6" stroke="#aaa" stroke-dasharray="6,3" stroke-width="1.5"/><text x="24" y="10" font-size="10">Ideal linear</text></g><g transform="translate(80,68)"><line x1="0" y1="6" x2="20" y2="6" stroke="#e74c3c" stroke-width="2"/><text x="24" y="10" font-size="10">hotspot1</text></g><g transform="translate(80,86)"><line x1="0" y1="6" x2="20" y2="6" stroke="#3498db" stroke-width="2"/><text x="24" y="10" font-size="10">hotspot4</text></g><g transform="translate(80,104)"><line x1="0" y1="6" x2="20" y2="6" stroke="#2ecc71" stroke-width="2"/><text x="24" y="10" font-size="10">random</text></g><g transform="translate(80,122)"><line x1="0" y1="6" x2="20" y2="6" stroke="#f39c12" stroke-width="2"/><text x="24" y="10" font-size="10">uniform</text></g><text x="280" y="390" text-anchor="middle" font-size="12">Number of Threads</text><text x="14" y="200" text-anchor="middle" font-size="12" transform="rotate(-90 14 200)">Speedup</text></svg>