<svg xmlns="http://www.w3.org/2000/svg" viewBox="0 0 560 400"><rect width="560" height="400" fill="white"/><text x="280" y="30" text-anchor="middle" font-size="13" font-weight="bold">Speedup — 100x100 mesh, static scheduling</text><path d="M70.0,40.0 L70.0,340.0 L540.0,340.0" stroke="#333" fill="none" stroke-width="1.5"/><line x1="70.0" y1="340.0" x2="70.0" y2="345.0" stroke="#333"/><text x="70.0" y="356.0" text-anchor="middle" font-size="11">1</text><line x1="137.1" y1="340.0" x2="137.1" y2="345.0" stroke="#333"/><text x="137.1" y="356.0" text-anchor="middle" font-size="11">2</text><line x1="271.4" y1="340.0" x2="271.4" y2="345.0" stroke="#333"/><text x="271.4" y="356.0" text-anchor="middle" font-size="11">4</text><line x1="540.0" y1="340.0" x2="540.0" y2="345.0" stroke="#333"/><text x="540.0" y="356.0" text-anchor="middle" font-size="11">8</text><line x1="70.0" y1="340.0" x2="65.0" y2="340.0" stroke="#333"/><text x="62.0" y="344.0" text-anchor="end" font-size="10">0.0</text><line x1="70.0" y1="280.0" x2="65.0" y2="280.0" stroke="#333"/><text x="62.0" y="284.0" text-anchor="end" font-size="10">1.7</text><line x1="70.0" y1="220.0" x2="65.0" y2="220.0" stroke="#333"/><text x="62.0" y="224.0" text-anchor="end" font-size="10">3.4</text><line x1="70.0" y1="160.0" x2="65.0" y2="160.0" stroke="#333"/><text x="62.0" y="164.0" text-anchor="end" font-size="10">5.0</text><line x1="70.0" y1="100.0" x2="65.0" y2="100.0" stroke="#333"/><text x="62.0" y="104.0" text-anchor="end" font-size="10">6.7</text><line x1="70.0" y1="40.0" x2="65.0" y2="40.0" stroke="#333"/><text x="62.0" y="44.0" text-anchor="end" font-size="10">8.4</text><line x1="70.0" y1="304.3" x2="540.0" y2="54.3" stroke="#aaa" stroke-dasharray="6,3" stroke-width="1.5"/><path d="M70.0,305.0 L70.0,304.8 L70.0,304.3 L137.1,258.9 L137.1,256.6 L137.1,255.9 L271.4,185.8 L271.4,184.0 L271.4,181.7 L540.0,95.2 L540.0,91.1 L540.0,91.1" stroke="#e74c3c" fill="none" stroke-width="2"/><circle cx="70.0" cy="305.0" r="4" fill="#e74c3c"/><circle cx="70.0" cy="304.8" r="4" fill="#e74c3c"/><circle cx="70.0" cy="304.3" r="4" fill="#e74c3c"/><circle cx="137.1" cy="258.9" r="4" fill="#e74c3c"/><circle cx="137.1" cy="256.6" r="4" fill="#e74c3c"/><circle cx="137.1" cy="255.9" r="4" fill="#e74c3c"/><circle cx="271.4" cy="185.8" r="4" fill="#e74c3c"/><circle cx="271.4" cy="184.0" r="4" fill="#e74c3c"/><circle cx="271.4" cy="181.7" r="4" fill="#e74c3c"/><circle cx="540.0" cy="95.2" r="4" fill="#e74c3c"/><circle cx="540.0" cy="91.1" r="4" fill="#e74c3c"/><circle cx="540.0" cy="91.1" r="4" fill="#e74c3c"/><path d="M70.0,304.7 L70.0,304.6 L70.0,304.3 L137.1,256.2 L137.1,253.1 L137.1,252.7 L271.4,181.6 L271.4,181.2 L271.4,180.5 L540.0,92.3 L540.0,88.5 L540.0,86.4" stroke="#3498db" fill="none" stroke-width="2"/><circle cx="70.0" cy="304.7" r="4" fill="#3498db"/><circle cx="70.0" cy="304.6" r="4" fill="#3498db"/><circle cx="70.0" cy="304.3" r="4" fill="#3498db"/><circle cx="137.1" cy="256.2" r="4" fill="#3498db"/><circle cx="137.1" cy="253.1" r="4" fill="#3498db"/><circle cx="137.1" cy="252.7" r="4" fill="#3498db"/><circle cx="271.4" cy="181.6" r="4" fill="#3498db"/><circle cx="271.4" cy="181.2" r="4" fill="#3498db"/><circle cx="271.4" cy="180.5" r="4" fill="#3498db"/><circle cx="540.0" cy="92.3" r="4" fill="#3498db"/><circle cx="540.0" cy="88.5" r="4" fill="#3498db"/><circle cx="540.0" cy="86.4" r="4" fill="#3498db"/><path d="M70.0,304.3 L70.0,304.3 L70.0,304.0 L137.1,254.5 L137.1,253.6 L137.1,253.5 L271.4,181.1 L271.4,181.0 L271.4,180.0 L540.0,87.0 L540.0,86.0 L540.0,83.2" stroke="#2ecc71" fill="none" stroke-width="2"/><circle cx="70.0" cy="304.3" r="4" fill="#2ecc71"/><circle cx="70.0" cy="304.3" r="4" fill="#2ecc71"/><circle cx="70.0" cy="304.0" r="4" fill="#2ecc71"/><circle cx="137.1" cy="254.5" r="4" fill="#2ecc71"/><circle cx="137.1" cy="253.6" r="4" fill="#2ecc71"/><circle cx="137.1" cy="253.5" r="4" fill="#2ecc71"/><circle cx="271.4" cy="181.1" r="4" fill="#2ecc71"/><circle cx="271.4" cy="181.0" r="4" fill="#2ecc71"/><circle cx="271.4" cy="180.0" r="4" fill="#2ecc71"/><circle cx="540.0" cy="87.0" r="4" fill="#2ecc71"/><circle cx="540.0" cy="86.0" r="4" fill="#2ecc71"/><circle cx="540.0" cy="83.2" r="4" fill="#2ecc71"/><path d="M70.0,306.4 L70.0,305.1 L70.0,304.3 L137.1,258.7 L137.1,258.3 L137.1,257.1 L271.4,184.3 L271.4,183.1 L271.4,182.4 L540.0,93.9 L540.0,90.2 L540.0,89.9" stroke="#f39c12" fill="none" stroke-width="2"/><circle cx="70.0" cy="306.4" r="4" fill="#f39c12"/><circle cx="70.0" cy="305.1" r="4" fill="#f39c12"/><circle cx="70.0" cy="304.3" r="4" fill="#f39c12"/><circle cx="137.1" cy="258.7" r="4" fill="#f39c12"/><circle cx="137.1" cy="258.3" r="4" fill="#f39c12"/><circle cx="137.1" cy="257.1" r="4" fill="#f39c12"/><circle cx="271.4" cy="184.3" r="4" fill="#f39c12"/><circle cx="271.4" cy="183.1" r="4" fill="#f39c12"/><circle cx="271.4" cy="182.4" r="4" fill="#f39c12"/><circle cx="540.0" cy="93.9" r="4" fill="#f39c12"/><circle cx="540.0" cy="90.2" r="4" fill="#f39c12"/><circle cx="540.0" cy="89.9" r="4" fill="#f39c12"/><g transform="translate(80,50)"><line x1="0" y1="6" x2="20" y2="6" stroke="#aaa" stroke-dasharray="6,3" stroke-width="1.5"/><text x="24" y="10" font-size="10">Ideal linear</text></g><g transform="translate(80,68)"><line x1="0" y1="6" x2="20" y2="6" stroke="#e74c3c" stroke-width="2"/><text x="24" y="10" font-size="10">hotspot1</text></g><g transform="translate(80,86)"><line x1="0" y1="6" x2="20" y2="6" stroke="#3498db" stroke-width="2"/><text x="24" y="10" font-size="10">hotspot4</text></g><g transform="translate(80,104)"><line x1="0" y1="6" x2="20" y2="6" stroke="#2ecc71" stroke-width="2"/><text x="24" y="10" font-size="10">random</text></g><g transform="translate(80,122)"><line x1="0" y1="6" x2="20" y2="6" stroke="#f39c12" stroke-width="2"/><text x="24" y="10" font-size="10">uniform</text></g><text x="280" y="390" text-anchor="middle" font-size="12">Number of Threads</text><text x="14" y="200" text-anchor="middle" font-size="12" transform="rotate(-90 14 200)">Speedup</text></svg>