<svg xmlns="http://www.w3.org/2000/svg" viewBox="0 0 560 400"><rect width="560" height="400" fill="white"/><text x="280" y="30" text-anchor="middle" font-size="13" font-weight="bold">Speedup — 500x500 mesh, dynamic scheduling</text><path d="M70.0,40.0 L70.0,340.0 L540.0,340.0" stroke="#333" fill="none" stroke-width="1.5"/><line x1="70.0" y1="340.0" x2="70.0" y2="345.0" stroke="#333"/><text x="70.0" y="356.0" text-anchor="middle" font-size="11">1</text><line x1="101.3" y1="340.0" x2="101.3" y2="345.0" stroke="#333"/><text x="101.3" y="356.0" text-anchor="middle" font-size="11">2</text><line x1="164.0" y1="340.0" x2="164.0" y2="345.0" stroke="#333"/><text x="164.0" y="356.0" text-anchor="middle" font-size="11">4</text><line x1="289.3" y1="340.0" x2="289.3" y2="345.0" stroke="#333"/><text x="289.3" y="356.0" text-anchor="middle" font-size="11">8</text><line x1="540.0" y1="340.0" x2="540.0" y2="345.0" stroke="#333"/><text x="540.0" y="356.0" text-anchor="middle" font-size="11">16</text><line x1="70.0" y1="340.0" x2="65.0" y2="340.0" stroke="#333"/><text x="62.0" y="344.0" text-anchor="end" font-size="10">0.0</text><line x1="70.0" y1="280.0" x2="65.0" y2="280.0" stroke="#333"/><text x="62.0" y="284.0" text-anchor="end" font-size="10">3.4</text><line x1="70.0" y1="220.0" x2="65.0" y2="220.0" stroke="#333"/><text x="62.0" y="224.0" text-anchor="end" font-size="10">6.7</text><line x1="70.0" y1="160.0" x2="65.0" y2="160.0" stroke="#333"/><text x="62.0" y="164.0" text-anchor="end" font-size="10">10.1</text><line x1="70.0" y1="100.0" x2="65.0" y2="100.0" stroke="#333"/><text x="62.0" y="104.0" text-anchor="end" font-size="10">13.4</text><line x1="70.0" y1="40.0" x2="65.0" y2="40.0" stroke="#333"/><text x="62.0" y="44.0" text-anchor="end" font-size="10">16.8</text><line x1="70.0" y1="322.1" x2="540.0" y2="54.3" stroke="#aaa" stroke-dasharray="6,3" stroke-width="1.5"/><path d="M70.0,322.1 L70.0,322.1 L70.0,322.0 L101.3,311.4 L101.3,311.3 L101.3,311.0 L164.0,293.7 L164.0,292.4 L164.0,291.8 L164.0,291.1 L289.3,281.3 L289.3,278.7 L289.3,275.9 L289.3,272.3 L540.0,283.8 L540.0,283.8 L540.0,283.7 L540.0,279.4" stroke="#e74c3c" fill="none" stroke-width="2"/><circle cx="70.0" cy="322.1" r="4" fill="#e74c3c"/><circle cx="70.0" cy="322.1" r="4" fill="#e74c3c"/><circle cx="70.0" cy="322.0" r="4" fill="#e74c3c"/><circle cx="101.3" cy="311.4" r="4" fill="#e74c3c"/><circle cx="101.3" cy="311.3" r="4" fill="#e74c3c"/><circle cx="101.3" cy="311.0" r="4" fill="#e74c3c"/><circle cx="164.0" cy="293.7" r="4" fill="#e74c3c"/><circle cx="164.0" cy="292.4" r="4" fill="#e74c3c"/><circle cx="164.0" cy="291.8" r="4" fill="#e74c3c"/><circle cx="164.0" cy="291.1" r="4" fill="#e74c3c"/><circle cx="289.3" cy="281.3" r="4" fill="#e74c3c"/><circle cx="289.3" cy="278.7" r="4" fill="#e74c3c"/><circle cx="289.3" cy="275.9" r="4" fill="#e74c3c"/><circle cx="289.3" cy="272.3" r="4" fill="#e74c3c"/><circle cx="540.0" cy="283.8" r="4" fill="#e74c3c"/><circle cx="540.0" cy="283.8" r="4" fill="#e74c3c"/><circle cx="540.0" cy="283.7" r="4" fill="#e74c3c"/><circle cx="540.0" cy="279.4" r="4" fill="#e74c3c"/><path d="M70.0,322.2 L70.0,322.2 L70.0,322.1 L101.3,311.5 L101.3,311.2 L101.3,311.1 L164.0,292.7 L164.0,292.6 L164.0,292.4 L164.0,291.7 L289.3,279.6 L289.3,279.0 L289.3,271.3 L289.3,270.6 L540.0,285.2 L540.0,285.1 L540.0,283.7 L540.0,281.8" stroke="#3498db" fill="none" stroke-width="2"/><circle cx="70.0" cy="322.2" r="4" fill="#3498db"/><circle cx="70.0" cy="322.2" r="4" fill="#3498db"/><circle cx="70.0" cy="322.1" r="4" fill="#3498db"/><circle cx="101.3" cy="311.5" r="4" fill="#3498db"/><circle cx="101.3" cy="311.2" r="4" fill="#3498db"/><circle cx="101.3" cy="311.1" r="4" fill="#3498db"/><circle cx="164.0" cy="292.7" r="4" fill="#3498db"/><circle cx="164.0" cy="292.6" r="4" fill="#3498db"/><circle cx="164.0" cy="292.4" r="4" fill="#3498db"/><circle cx="164.0" cy="291.7" r="4" fill="#3498db"/><circle cx="289.3" cy="279.6" r="4" fill="#3498db"/><circle cx="289.3" cy="279.0" r="4" fill="#3498db"/><circle cx="289.3" cy="271.3" r="4" fill="#3498db"/><circle cx="289.3" cy="270.6" r="4" fill="#3498db"/><circle cx="540.0" cy="285.2" r="4" fill="#3498db"/><circle cx="540.0" cy="285.1" r="4" fill="#3498db"/><circle cx="540.0" cy="283.7" r="4" fill="#3498db"/><circle cx="540.0" cy="281.8" r="4" fill="#3498db"/><path d="M70.0,322.2 L70.0,322.1 L70.0,322.1 L101.3,311.7 L101.3,311.3 L101.3,311.2 L164.0,292.9 L164.0,292.3 L164.0,291.3 L289.3,280.7 L289.3,278.5 L289.3,271.9 L540.0,285.2 L540.0,284.5 L540.0,281.6" stroke="#2ecc71" fill="none" stroke-width="2"/><circle cx="70.0" cy="322.2" r="4" fill="#2ecc71"/><circle cx="70.0" cy="322.1" r="4" fill="#2ecc71"/><circle cx="70.0" cy="322.1" r="4" fill="#2ecc71"/><circle cx="101.3" cy="311.7" r="4" fill="#2ecc71"/><circle cx="101.3" cy="311.3" r="4" fill="#2ecc71"/><circle cx="101.3" cy="311.2" r="4" fill="#2ecc71"/><circle cx="164.0" cy="292.9" r="4" fill="#2ecc71"/><circle cx="164.0" cy="292.3" r="4" fill="#2ecc71"/><circle cx="164.0" cy="291.3" r="4" fill="#2ecc71"/><circle cx="289.3" cy="280.7" r="4" fill="#2ecc71"/><circle cx="289.3" cy="278.5" r="4" fill="#2ecc71"/><circle cx="289.3" cy="271.9" r="4" fill="#2ecc71"/><circle cx="540.0" cy="285.2" r="4" fill="#2ecc71"/><circle cx="540.0" cy="284.5" r="4" fill="#2ecc71"/><circle cx="540.0" cy="281.6" r="4" fill="#2ecc71"/><path d="M70.0,322.1 L70.0,322.1 L70.0,322.0 L101.3,311.2 L101.3,311.1 L101.3,311.0 L164.0,292.6 L164.0,291.2 L164.0,291.2 L289.3,279.1 L289.3,276.9 L289.3,271.5 L540.0,288.6 L540.0,283.2 L540.0,283.1" stroke="#f39c12" fill="none" stroke-width="2"/><circle cx="70.0" cy="322.1" r="4" fill="#f39c12"/><circle cx="70.0" cy="322.1" r="4" fill="#f39c12"/><circle cx="70.0" cy="322.0" r="4" fill="#f39c12"/><circle cx="101.3" cy="311.2" r="4" fill="#f39c12"/><circle cx="101.3" cy="311.1" r="4" fill="#f39c12"/><circle cx="101.3" cy="311.0" r="4" fill="#f39c12"/><circle cx="164.0" cy="292.6" r="4" fill="#f39c12"/><circle cx="164.0" cy="291.2" r="4" fill="#f39c12"/><circle cx="164.0" cy="291.2" r="4" fill="#f39c12"/><circle cx="289.3" cy="279.1" r="4" fill="#f39c12"/><circle cx="289.3" cy="276.9" r="4" fill="#f39c12"/><circle cx="289.3" cy="271.5" r="4" fill="#f39c12"/><circle cx="540.0" cy="288.6" r="4" fill="#f39c12"/><circle cx="540.0" cy="283.2" r="4" fill="#f39c12"/><circle cx="540.0" cy="283.1" r="4" fill="#f39c12"/><g transform="translate(80,50)"><line x1="0" y1="6" x2="20" y2="6" stroke="#aaa" stroke-dasharray="6,3" stroke-width="1.5"/><text x="24" y="10" font-size="10">Ideal linear</text></g><g transform="translate(80,68)"><line x1="0" y1="6" x2="20" y2="6" stroke="#e74c3c" stroke-width="2"/><text x="24" y="10" font-size="10">hotspot1</text></g><g transform="translate(80,86)"><line x1="0" y1="6" x2="20" y2="6" stroke="#3498db" stroke-width="2"/><text x="24" y="10" font-size="10">hotspot4</text></g><g transform="translate(80,104)"><line x1="0" y1="6" x2="20" y2="6" stroke="#2ecc71" stroke-width="2"/><text x="24" y="10" font-size="10">random</text></g><g transform="translate(80,122)"><line x1="0" y1="6" x2="20" y2="6" stroke="#f39c12" stroke-width="2"/><text x="24" y="10" font-size="10">uniform</text></g><text x="280" y="390" text-anchor="middle" font-size="12">Number of Threads</text><text x="14" y="200" text-anchor="middle" font-size="12" transform="rotate(-90 14 200)">Speedup</text></svg>