<svg xmlns="http://www.w3.org/2000/svg" viewBox="0 0 560 400"><rect width="560" height="400" fill="white"/><text x="280" y="30" text-anchor="middle" font-size="13" font-weight="bold">Time Breakdown — 100x100, uniform, static</text><path d="M70.0,40.0 L70.0,340.0 L540.0,340.0" stroke="#333" fill="none" stroke-width="1.5"/><line x1="70.0" y1="340.0" x2="70.0" y2="345.0" stroke="#333"/><text x="70.0" y="356.0" text-anchor="middle" font-size="11">1</text><line x1="101.3" y1="340.0" x2="101.3" y2="345.0" stroke="#333"/><text x="101.3" y="356.0" text-anchor="middle" font-size="11">2</text><line x1="164.0" y1="340.0" x2="164.0" y2="345.0" stroke="#333"/><text x="164.0" y="356.0" text-anchor="middle" font-size="11">4</text><line x1="289.3" y1="340.0" x2="289.3" y2="345.0" stroke="#333"/><text x="289.3" y="356.0" text-anchor="middle" font-size="11">8</text><line x1="540.0" y1="340.0" x2="540.0" y2="345.0" stroke="#333"/><text x="540.0" y="356.0" text-anchor="middle" font-size="11">16</text><line x1="70.0" y1="340.0" x2="65.0" y2="340.0" stroke="#333"/><text x="62.0" y="344.0" text-anchor="end" font-size="10">0.0</text><line x1="70.0" y1="280.0" x2="65.0" y2="280.0" stroke="#333"/><text x="62.0" y="284.0" text-anchor="end" font-size="10">16.0</text><line x1="70.0" y1="220.0" x2="65.0" y2="220.0" stroke="#333"/><text x="62.0" y="224.0" text-anchor="end" font-size="10">32.1</text><line x1="70.0" y1="160.0" x2="65.0" y2="160.0" stroke="#333"/><text x="62.0" y="164.0" text-anchor="end" font-size="10">48.1</text><line x1="70.0" y1="100.0" x2="65.0" y2="100.0" stroke="#333"/><text x="62.0" y="104.0" text-anchor="end" font-size="10">64.2</text><line x1="70.0" y1="40.0" x2="65.0" y2="40.0" stroke="#333"/><text x="62.0" y="44.0" text-anchor="end" font-size="10">80.2</text><path d="M70.0,103.9 L70.0,99.1 L70.0,97.9 L101.3,214.9 L101.3,214.6 L101.3,213.6 L164.0,275.1 L164.0,274.6 L164.0,274.3 L289.3,303.3 L289.3,301.5 L289.3,216.6 L540.0,101.5 L540.0,94.0 L540.0,67.3" stroke="#e74c3c" fill="none" stroke-width="2"/><circle cx="70.0" cy="103.9" r="4" fill="#e74c3c"/><circle cx="70.0" cy="99.1" r="4" fill="#e74c3c"/><circle cx="70.0" cy="97.9" r="4" fill="#e74c3c"/><circle cx="101.3" cy="214.9" r="4" fill="#e74c3c"/><circle cx="101.3" cy="214.6" r="4" fill="#e74c3c"/><circle cx="101.3" cy="213.6" r="4" fill="#e74c3c"/><circle cx="164.0" cy="275.1" r="4" fill="#e74c3c"/><circle cx="164.0" cy="274.6" r="4" fill="#e74c3c"/><circle cx="164.0" cy="274.3" r="4" fill="#e74c3c"/><circle cx="289.3" cy="303.3" r="4" fill="#e74c3c"/><circle cx="289.3" cy="301.5" r="4" fill="#e74c3c"/><circle cx="289.3" cy="216.6" r="4" fill="#e74c3c"/><circle cx="540.0" cy="101.5" r="4" fill="#e74c3c"/><circle cx="540.0" cy="94.0" r="4" fill="#e74c3c"/><circle cx="540.0" cy="67.3" r="4" fill="#e74c3c"/><path d="M70.0,321.0 L70.0,320.7 L70.0,320.4 L101.3,331.4 L101.3,330.7 L101.3,330.6 L164.0,335.5 L164.0,335.0 L164.0,334.9 L289.3,336.3 L289.3,335.4 L289.3,321.3 L540.0,262.2 L540.0,261.2 L540.0,251.4" stroke="#3498db" fill="none" stroke-width="2"/><circle cx="70.0" cy="321.0" r="4" fill="#3498db"/><circle cx="70.0" cy="320.7" r="4" fill="#3498db"/><circle cx="70.0" cy="320.4" r="4" fill="#3498db"/><circle cx="101.3" cy="331.4" r="4" fill="#3498db"/><circle cx="101.3" cy="330.7" r="4" fill="#3498db"/><circle cx="101.3" cy="330.6" r="4" fill="#3498db"/><circle cx="164.0" cy="335.5" r="4" fill="#3498db"/><circle cx="164.0" cy="335.0" r="4" fill="#3498db"/><circle cx="164.0" cy="334.9" r="4" fill="#3498db"/><circle cx="289.3" cy="336.3" r="4" fill="#3498db"/><circle cx="289.3" cy="335.4" r="4" fill="#3498db"/><circle cx="289.3" cy="321.3" r="4" fill="#3498db"/><circle cx="540.0" cy="262.2" r="4" fill="#3498db"/><circle cx="540.0" cy="261.2" r="4" fill="#3498db"/><circle cx="540.0" cy="251.4" r="4" fill="#3498db"/><g transform="translate(80,50)"><line x1="0" y1="6" x2="20" y2="6" stroke="#e74c3c" stroke-width="2"/><text x="24" y="10" font-size="10">Thermal update</text></g><g transform="translate(80,68)"><line x1="0" y1="6" x2="20" y2="6" stroke="#3498db" stroke-width="2"/><text x="24" y="10" font-size="10">Geometry update</text></g><text x="280" y="390" text-anchor="middle" font-size="12">Number of Threads</text><text x="14" y="200" text-anchor="middle" font-size="12" transform="rotate(-90 14 200)">Time (ms)</text></svg>