<svg xmlns="http://www.w3.org/2000/svg" viewBox="0 0 560 400"><rect width="560" height="400" fill="white"/><text x="280" y="30" text-anchor="middle" font-size="13" font-weight="bold">Time Breakdown — 100x100, uniform, static</text><path d="M70.0,40.0 L70.0,340.0 L540.0,340.0" stroke="#333" fill="none" stroke-width="1.5"/><line x1="70.0" y1="340.0" x2="70.0" y2="345.0" stroke="#333"/><text x="70.0" y="356.0" text-anchor="middle" font-size="11">1</text><line x1="137.1" y1="340.0" x2="137.1" y2="345.0" stroke="#333"/><text x="137.1" y="356.0" text-anchor="middle" font-size="11">2</text><line x1="271.4" y1="340.0" x2="271.4" y2="345.0" stroke="#333"/><text x="271.4" y="356.0" text-anchor="middle" font-size="11">4</text><line x1="540.0" y1="340.0" x2="540.0" y2="345.0" stroke="#333"/><text x="540.0" y="356.0" text-anchor="middle" font-size="11">8</text><line x1="70.0" y1="340.0" x2="65.0" y2="340.0" stroke="#333"/><text x="62.0" y="344.0" text-anchor="end" font-size="10">0.0</text><line x1="70.0" y1="280.0" x2="65.0" y2="280.0" stroke="#333"/><text x="62.0" y="284.0" text-anchor="end" font-size="10">3.1</text><line x1="70.0" y1="220.0" x2="65.0" y2="220.0" stroke="#333"/><text x="62.0" y="224.0" text-anchor="end" font-size="10">6.3</text><line x1="70.0" y1="160.0" x2="65.0" y2="160.0" stroke="#333"/><text x="62.0" y="164.0" text-anchor="end" font-size="10">9.4</text><line x1="70.0" y1="100.0" x2="65.0" y2="100.0" stroke="#333"/><text x="62.0" y="104.0" text-anchor="end" font-size="10">12.5</text><line x1="70.0" y1="40.0" x2="65.0" y2="40.0" stroke="#333"/><text x="62.0" y="44.0" text-anchor="end" font-size="10">15.7</text><path d="M70.0,80.7 L70.0,67.3 L70.0,67.3 L137.1,195.6 L137.1,188.1 L137.1,187.5 L271.4,262.5 L271.4,261.4 L271.4,257.9 L540.0,297.4 L540.0,296.8 L540.0,294.7" stroke="#e74c3c" fill="none" stroke-width="2"/><circle cx="70.0" cy="80.7" r="4" fill="#e74c3c"/><circle cx="70.0" cy="67.3" r="4" fill="#e74c3c"/><circle cx="70.0" cy="67.3" r="4" fill="#e74c3c"/><circle cx="137.1" cy="195.6" r="4" fill="#e74c3c"/><circle cx="137.1" cy="188.1" r="4" fill="#e74c3c"/><circle cx="137.1" cy="187.5" r="4" fill="#e74c3c"/><circle cx="271.4" cy="262.5" r="4" fill="#e74c3c"/><circle cx="271.4" cy="261.4" r="4" fill="#e74c3c"/><circle cx="271.4" cy="257.9" r="4" fill="#e74c3c"/><circle cx="540.0" cy="297.4" r="4" fill="#e74c3c"/><circle cx="540.0" cy="296.8" r="4" fill="#e74c3c"/><circle cx="540.0" cy="294.7" r="4" fill="#e74c3c"/><path d="M70.0,184.5 L70.0,182.9 L70.0,168.6 L137.1,253.1 L137.1,252.1 L137.1,246.4 L271.4,293.7 L271.4,289.4 L271.4,288.9 L540.0,314.8 L540.0,314.5 L540.0,313.6" stroke="#3498db" fill="none" stroke-width="2"/><circle cx="70.0" cy="184.5" r="4" fill="#3498db"/><circle cx="70.0" cy="182.9" r="4" fill="#3498db"/><circle cx="70.0" cy="168.6" r="4" fill="#3498db"/><circle cx="137.1" cy="253.1" r="4" fill="#3498db"/><circle cx="137.1" cy="252.1" r="4" fill="#3498db"/><circle cx="137.1" cy="246.4" r="4" fill="#3498db"/><circle cx="271.4" cy="293.7" r="4" fill="#3498db"/><circle cx="271.4" cy="289.4" r="4" fill="#3498db"/><circle cx="271.4" cy="288.9" r="4" fill="#3498db"/><circle cx="540.0" cy="314.8" r="4" fill="#3498db"/><circle cx="540.0" cy="314.5" r="4" fill="#3498db"/><circle cx="540.0" cy="313.6" r="4" fill="#3498db"/><g transform="translate(80,50)"><line x1="0" y1="6" x2="20" y2="6" stroke="#e74c3c" stroke-width="2"/><text x="24" y="10" font-size="10">Thermal update</text></g><g transform="translate(80,68)"><line x1="0" y1="6" x2="20" y2="6" stroke="#3498db" stroke-width="2"/><text x="24" y="10" font-size="10">Geometry update</text></g><text x="280" y="390" text-anchor="middle" font-size="12">Number of Threads</text><text x="14" y="200" text-anchor="middle" font-size="12" transform="rotate(-90 14 200)">Time (ms)</text></svg>