<svg xmlns="http://www.w3.org/2000/svg" viewBox="0 0 560 400"><rect width="560" height="400" fill="white"/><text x="280" y="30" text-anchor="middle" font-size="13" font-weight="bold">Time Breakdown — 500x500, uniform, static</text><path d="M70.0,40.0 L70.0,340.0 L540.0,340.0" stroke="#333" fill="none" stroke-width="1.5"/><line x1="70.0" y1="340.0" x2="70.0" y2="345.0" stroke="#333"/><text x="70.0" y="356.0" text-anchor="middle" font-size="11">1</text><line x1="137.1" y1="340.0" x2="137.1" y2="345.0" stroke="#333"/><text x="137.1" y="356.0" text-anchor="middle" font-size="11">2</text><line x1="271.4" y1="340.0" x2="271.4" y2="345.0" stroke="#333"/><text x="271.4" y="356.0" text-anchor="middle" font-size="11">4</text><line x1="540.0" y1="340.0" x2="540.0" y2="345.0" stroke="#333"/><text x="540.0" y="356.0" text-anchor="middle" font-size="11">8</text><line x1="70.0" y1="340.0" x2="65.0" y2="340.0" stroke="#333"/><text x="62.0" y="344.0" text-anchor="end" font-size="10">0.0</text><line x1="70.0" y1="280.0" x2="65.0" y2="280.0" stroke="#333"/><text x="62.0" y="284.0" text-anchor="end" font-size="10">452.8</text><line x1="70.0" y1="220.0" x2="65.0" y2="220.0" stroke="#333"/><text x="62.0" y="224.0" text-anchor="end" font-size="10">905.7</text><line x1="70.0" y1="160.0" x2="65.0" y2="160.0" stroke="#333"/><text x="62.0" y="164.0" text-anchor="end" font-size="10">1358.5</text><line x1="70.0" y1="100.0" x2="65.0" y2="100.0" stroke="#333"/><text x="62.0" y="104.0" text-anchor="end" font-size="10">1811.4</text><line x1="70.0" y1="40.0" x2="65.0" y2="40.0" stroke="#333"/><text x="62.0" y="44.0" text-anchor="end" font-size="10">2264.2</text><path d="M70.0,238.2 L70.0,238.0 L70.0,237.6 L70.0,237.0 L70.0,236.9 L70.0,236.0 L70.0,73.0 L70.0,70.8 L70.0,67.3 L137.1,293.1 L137.1,293.1 L137.1,292.2 L271.4,303.8 L271.4,303.7 L271.4,303.6 L271.4,303.3 L271.4,303.1 L271.4,302.6 L271.4,244.8 L271.4,242.9 L271.4,242.4 L540.0,301.9 L540.0,301.1 L540.0,300.8 L540.0,300.8 L540.0,296.5 L540.0,294.9 L540.0,248.0 L540.0,247.9 L540.0,242.6" stroke="#e74c3c" fill="none" stroke-width="2"/><circle cx="70.0" cy="238.2" r="4" fill="#e74c3c"/><circle cx="70.0" cy="238.0" r="4" fill="#e74c3c"/><circle cx="70.0" cy="237.6" r="4" fill="#e74c3c"/><circle cx="70.0" cy="237.0" r="4" fill="#e74c3c"/><circle cx="70.0" cy="236.9" r="4" fill="#e74c3c"/><circle cx="70.0" cy="236.0" r="4" fill="#e74c3c"/><circle cx="70.0" cy="73.0" r="4" fill="#e74c3c"/><circle cx="70.0" cy="70.8" r="4" fill="#e74c3c"/><circle cx="70.0" cy="67.3" r="4" fill="#e74c3c"/><circle cx="137.1" cy="293.1" r="4" fill="#e74c3c"/><circle cx="137.1" cy="293.1" r="4" fill="#e74c3c"/><circle cx="137.1" cy="292.2" r="4" fill="#e74c3c"/><circle cx="271.4" cy="303.8" r="4" fill="#e74c3c"/><circle cx="271.4" cy="303.7" r="4" fill="#e74c3c"/><circle cx="271.4" cy="303.6" r="4" fill="#e74c3c"/><circle cx="271.4" cy="303.3" r="4" fill="#e74c3c"/><circle cx="271.4" cy="303.1" r="4" fill="#e74c3c"/><circle cx="271.4" cy="302.6" r="4" fill="#e74c3c"/><circle cx="271.4" cy="244.8" r="4" fill="#e74c3c"/><circle cx="271.4" cy="242.9" r="4" fill="#e74c3c"/><circle cx="271.4" cy="242.4" r="4" fill="#e74c3c"/><circle cx="540.0" cy="301.9" r="4" fill="#e74c3c"/><circle cx="540.0" cy="301.1" r="4" fill="#e74c3c"/><circle cx="540.0" cy="300.8" r="4" fill="#e74c3c"/><circle cx="540.0" cy="300.8" r="4" fill="#e74c3c"/><circle cx="540.0" cy="296.5" r="4" fill="#e74c3c"/><circle cx="540.0" cy="294.9" r="4" fill="#e74c3c"/><circle cx="540.0" cy="248.0" r="4" fill="#e74c3c"/><circle cx="540.0" cy="247.9" r="4" fill="#e74c3c"/><circle cx="540.0" cy="242.6" r="4" fill="#e74c3c"/><path d="M70.0,309.0 L70.0,308.9 L70.0,308.6 L70.0,308.3 L70.0,308.3 L70.0,306.9 L70.0,290.0 L70.0,289.7 L70.0,288.2 L137.1,320.1 L137.1,320.1 L137.1,319.3 L271.4,324.3 L271.4,324.3 L271.4,324.1 L271.4,324.0 L271.4,323.9 L271.4,323.4 L271.4,306.0 L271.4,305.2 L271.4,304.9 L540.0,325.2 L540.0,324.6 L540.0,323.9 L540.0,323.9 L540.0,322.5 L540.0,321.3 L540.0,300.4 L540.0,300.3 L540.0,297.8" stroke="#3498db" fill="none" stroke-width="2"/><circle cx="70.0" cy="309.0" r="4" fill="#3498db"/><circle cx="70.0" cy="308.9" r="4" fill="#3498db"/><circle cx="70.0" cy="308.6" r="4" fill="#3498db"/><circle cx="70.0" cy="308.3" r="4" fill="#3498db"/><circle cx="70.0" cy="308.3" r="4" fill="#3498db"/><circle cx="70.0" cy="306.9" r="4" fill="#3498db"/><circle cx="70.0" cy="290.0" r="4" fill="#3498db"/><circle cx="70.0" cy="289.7" r="4" fill="#3498db"/><circle cx="70.0" cy="288.2" r="4" fill="#3498db"/><circle cx="137.1" cy="320.1" r="4" fill="#3498db"/><circle cx="137.1" cy="320.1" r="4" fill="#3498db"/><circle cx="137.1" cy="319.3" r="4" fill="#3498db"/><circle cx="271.4" cy="324.3" r="4" fill="#3498db"/><circle cx="271.4" cy="324.3" r="4" fill="#3498db"/><circle cx="271.4" cy="324.1" r="4" fill="#3498db"/><circle cx="271.4" cy="324.0" r="4" fill="#3498db"/><circle cx="271.4" cy="323.9" r="4" fill="#3498db"/><circle cx="271.4" cy="323.4" r="4" fill="#3498db"/><circle cx="271.4" cy="306.0" r="4" fill="#3498db"/><circle cx="271.4" cy="305.2" r="4" fill="#3498db"/><circle cx="271.4" cy="304.9" r="4" fill="#3498db"/><circle cx="540.0" cy="325.2" r="4" fill="#3498db"/><circle cx="540.0" cy="324.6" r="4" fill="#3498db"/><circle cx="540.0" cy="323.9" r="4" fill="#3498db"/><circle cx="540.0" cy="323.9" r="4" fill="#3498db"/><circle cx="540.0" cy="322.5" r="4" fill="#3498db"/><circle cx="540.0" cy="321.3" r="4" fill="#3498db"/><circle cx="540.0" cy="300.4" r="4" fill="#3498db"/><circle cx="540.0" cy="300.3" r="4" fill="#3498db"/><circle cx="540.0" cy="297.8" r="4" fill="#3498db"/><g transform="translate(80,50)"><line x1="0" y1="6" x2="20" y2="6" stroke="#e74c3c" stroke-width="2"/><text x="24" y="10" font-size="10">Thermal update</text></g><g transform="translate(80,68)"><line x1="0" y1="6" x2="20" y2="6" stroke="#3498db" stroke-width="2"/><text x="24" y="10" font-size="10">Geometry update</text></g><text x="280" y="390" text-anchor="middle" font-size="12">Number of Threads</text><text x="14" y="200" text-anchor="middle" font-size="12" transform="rotate(-90 14 200)">Time (ms)</text></svg>