<svg xmlns="http://www.w3.org/2000/svg" viewBox="0 0 560 400"><rect width="560" height="400" fill="white"/><text x="280" y="30" text-anchor="middle" font-size="13" font-weight="bold">Time Breakdown — 500x500, uniform, static</text><path d="M70.0,40.0 L70.0,340.0 L540.0,340.0" stroke="#333" fill="none" stroke-width="1.5"/><line x1="70.0" y1="340.0" x2="70.0" y2="345.0" stroke="#333"/><text x="70.0" y="356.0" text-anchor="middle" font-size="11">1</text><line x1="101.3" y1="340.0" x2="101.3" y2="345.0" stroke="#333"/><text x="101.3" y="356.0" text-anchor="middle" font-size="11">2</text><line x1="164.0" y1="340.0" x2="164.0" y2="345.0" stroke="#333"/><text x="164.0" y="356.0" text-anchor="middle" font-size="11">4</text><line x1="289.3" y1="340.0" x2="289.3" y2="345.0" stroke="#333"/><text x="289.3" y="356.0" text-anchor="middle" font-size="11">8</text><line x1="540.0" y1="340.0" x2="540.0" y2="345.0" stroke="#333"/><text x="540.0" y="356.0" text-anchor="middle" font-size="11">16</text><line x1="70.0" y1="340.0" x2="65.0" y2="340.0" stroke="#333"/><text x="62.0" y="344.0" text-anchor="end" font-size="10">0.0</text><line x1="70.0" y1="280.0" x2="65.0" y2="280.0" stroke="#333"/><text x="62.0" y="284.0" text-anchor="end" font-size="10">448.3</text><line x1="70.0" y1="220.0" x2="65.0" y2="220.0" stroke="#333"/><text x="62.0" y="224.0" text-anchor="end" font-size="10">896.5</text><line x1="70.0" y1="160.0" x2="65.0" y2="160.0" stroke="#333"/><text x="62.0" y="164.0" text-anchor="end" font-size="10">1344.8</text><line x1="70.0" y1="100.0" x2="65.0" y2="100.0" stroke="#333"/><text x="62.0" y="104.0" text-anchor="end" font-size="10">1793.1</text><line x1="70.0" y1="40.0" x2="65.0" y2="40.0" stroke="#333"/><text x="62.0" y="44.0" text-anchor="end" font-size="10">2241.3</text><path d="M70.0,103.1 L70.0,101.9 L70.0,101.8 L70.0,101.6 L70.0,101.1 L70.0,100.2 L70.0,68.1 L70.0,67.6 L70.0,67.3 L101.3,214.0 L101.3,213.5 L101.3,212.5 L164.0,272.3 L164.0,270.8 L164.0,270.7 L164.0,270.7 L164.0,270.6 L164.0,269.5 L164.0,242.5 L164.0,241.1 L164.0,239.6 L289.3,298.0 L289.3,295.6 L289.3,294.3 L289.3,292.5 L289.3,289.9 L289.3,289.3 L289.3,254.1 L289.3,243.8 L289.3,238.9 L540.0,259.7 L540.0,259.0 L540.0,258.7 L540.0,258.5 L540.0,257.6 L540.0,257.3 L540.0,218.3 L540.0,217.8 L540.0,215.0" stroke="#e74c3c" fill="none" stroke-width="2"/><circle cx="70.0" cy="103.1" r="4" fill="#e74c3c"/><circle cx="70.0" cy="101.9" r="4" fill="#e74c3c"/><circle cx="70.0" cy="101.8" r="4" fill="#e74c3c"/><circle cx="70.0" cy="101.6" r="4" fill="#e74c3c"/><circle cx="70.0" cy="101.1" r="4" fill="#e74c3c"/><circle cx="70.0" cy="100.2" r="4" fill="#e74c3c"/><circle cx="70.0" cy="68.1" r="4" fill="#e74c3c"/><circle cx="70.0" cy="67.6" r="4" fill="#e74c3c"/><circle cx="70.0" cy="67.3" r="4" fill="#e74c3c"/><circle cx="101.3" cy="214.0" r="4" fill="#e74c3c"/><circle cx="101.3" cy="213.5" r="4" fill="#e74c3c"/><circle cx="101.3" cy="212.5" r="4" fill="#e74c3c"/><circle cx="164.0" cy="272.3" r="4" fill="#e74c3c"/><circle cx="164.0" cy="270.8" r="4" fill="#e74c3c"/><circle cx="164.0" cy="270.7" r="4" fill="#e74c3c"/><circle cx="164.0" cy="270.7" r="4" fill="#e74c3c"/><circle cx="164.0" cy="270.6" r="4" fill="#e74c3c"/><circle cx="164.0" cy="269.5" r="4" fill="#e74c3c"/><circle cx="164.0" cy="242.5" r="4" fill="#e74c3c"/><circle cx="164.0" cy="241.1" r="4" fill="#e74c3c"/><circle cx="164.0" cy="239.6" r="4" fill="#e74c3c"/><circle cx="289.3" cy="298.0" r="4" fill="#e74c3c"/><circle cx="289.3" cy="295.6" r="4" fill="#e74c3c"/><circle cx="289.3" cy="294.3" r="4" fill="#e74c3c"/><circle cx="289.3" cy="292.5" r="4" fill="#e74c3c"/><circle cx="289.3" cy="289.9" r="4" fill="#e74c3c"/><circle cx="289.3" cy="289.3" r="4" fill="#e74c3c"/><circle cx="289.3" cy="254.1" r="4" fill="#e74c3c"/><circle cx="289.3" cy="243.8" r="4" fill="#e74c3c"/><circle cx="289.3" cy="238.9" r="4" fill="#e74c3c"/><circle cx="540.0" cy="259.7" r="4" fill="#e74c3c"/><circle cx="540.0" cy="259.0" r="4" fill="#e74c3c"/><circle cx="540.0" cy="258.7" r="4" fill="#e74c3c"/><circle cx="540.0" cy="258.5" r="4" fill="#e74c3c"/><circle cx="540.0" cy="257.6" r="4" fill="#e74c3c"/><circle cx="540.0" cy="257.3" r="4" fill="#e74c3c"/><circle cx="540.0" cy="218.3" r="4" fill="#e74c3c"/><circle cx="540.0" cy="217.8" r="4" fill="#e74c3c"/><circle cx="540.0" cy="215.0" r="4" fill="#e74c3c"/><path d="M70.0,311.0 L70.0,311.0 L70.0,310.8 L70.0,310.7 L70.0,310.4 L70.0,310.2 L70.0,288.6 L70.0,288.3 L70.0,287.8 L101.3,323.7 L101.3,323.3 L101.3,322.4 L164.0,328.4 L164.0,327.8 L164.0,327.7 L164.0,327.5 L164.0,327.0 L164.0,326.6 L164.0,304.5 L164.0,303.1 L164.0,302.7 L289.3,329.3 L289.3,329.0 L289.3,328.4 L289.3,327.2 L289.3,327.1 L289.3,326.7 L289.3,301.7 L289.3,299.0 L289.3,296.1 L540.0,321.4 L540.0,321.0 L540.0,321.0 L540.0,320.8 L540.0,320.5 L540.0,320.1 L540.0,294.1 L540.0,293.9 L540.0,293.2" stroke="#3498db" fill="none" stroke-width="2"/><circle cx="70.0" cy="311.0" r="4" fill="#3498db"/><circle cx="70.0" cy="311.0" r="4" fill="#3498db"/><circle cx="70.0" cy="310.8" r="4" fill="#3498db"/><circle cx="70.0" cy="310.7" r="4" fill="#3498db"/><circle cx="70.0" cy="310.4" r="4" fill="#3498db"/><circle cx="70.0" cy="310.2" r="4" fill="#3498db"/><circle cx="70.0" cy="288.6" r="4" fill="#3498db"/><circle cx="70.0" cy="288.3" r="4" fill="#3498db"/><circle cx="70.0" cy="287.8" r="4" fill="#3498db"/><circle cx="101.3" cy="323.7" r="4" fill="#3498db"/><circle cx="101.3" cy="323.3" r="4" fill="#3498db"/><circle cx="101.3" cy="322.4" r="4" fill="#3498db"/><circle cx="164.0" cy="328.4" r="4" fill="#3498db"/><circle cx="164.0" cy="327.8" r="4" fill="#3498db"/><circle cx="164.0" cy="327.7" r="4" fill="#3498db"/><circle cx="164.0" cy="327.5" r="4" fill="#3498db"/><circle cx="164.0" cy="327.0" r="4" fill="#3498db"/><circle cx="164.0" cy="326.6" r="4" fill="#3498db"/><circle cx="164.0" cy="304.5" r="4" fill="#3498db"/><circle cx="164.0" cy="303.1" r="4" fill="#3498db"/><circle cx="164.0" cy="302.7" r="4" fill="#3498db"/><circle cx="289.3" cy="329.3" r="4" fill="#3498db"/><circle cx="289.3" cy="329.0" r="4" fill="#3498db"/><circle cx="289.3" cy="328.4" r="4" fill="#3498db"/><circle cx="289.3" cy="327.2" r="4" fill="#3498db"/><circle cx="289.3" cy="327.1" r="4" fill="#3498db"/><circle cx="289.3" cy="326.7" r="4" fill="#3498db"/><circle cx="289.3" cy="301.7" r="4" fill="#3498db"/><circle cx="289.3" cy="299.0" r="4" fill="#3498db"/><circle cx="289.3" cy="296.1" r="4" fill="#3498db"/><circle cx="540.0" cy="321.4" r="4" fill="#3498db"/><circle cx="540.0" cy="321.0" r="4" fill="#3498db"/><circle cx="540.0" cy="321.0" r="4" fill="#3498db"/><circle cx="540.0" cy="320.8" r="4" fill="#3498db"/><circle cx="540.0" cy="320.5" r="4" fill="#3498db"/><circle cx="540.0" cy="320.1" r="4" fill="#3498db"/><circle cx="540.0" cy="294.1" r="4" fill="#3498db"/><circle cx="540.0" cy="293.9" r="4" fill="#3498db"/><circle cx="540.0" cy="293.2" r="4" fill="#3498db"/><g transform="translate(80,50)"><line x1="0" y1="6" x2="20" y2="6" stroke="#e74c3c" stroke-width="2"/><text x="24" y="10" font-size="10">Thermal update</text></g><g transform="translate(80,68)"><line x1="0" y1="6" x2="20" y2="6" stroke="#3498db" stroke-width="2"/><text x="24" y="10" font-size="10">Geometry update</text></g><text x="280" y="390" text-anchor="middle" font-size="12">Number of Threads</text><text x="14" y="200" text-anchor="middle" font-size="12" transform="rotate(-90 14 200)">Time (ms)</text></svg>