<svg xmlns="http://www.w3.org/2000/svg" viewBox="0 0 560 400"><rect width="560" height="400" fill="white"/><text x="280" y="30" text-anchor="middle" font-size="13" font-weight="bold">Time Breakdown — 500x500, uniform, static</text><path d="M70.0,40.0 L70.0,340.0 L540.0,340.0" stroke="#333" fill="none" stroke-width="1.5"/><line x1="70.0" y1="340.0" x2="70.0" y2="345.0" stroke="#333"/><text x="70.0" y="356.0" text-anchor="middle" font-size="11">1</text><line x1="137.1" y1="340.0" x2="137.1" y2="345.0" stroke="#333"/><text x="137.1" y="356.0" text-anchor="middle" font-size="11">2</text><line x1="271.4" y1="340.0" x2="271.4" y2="345.0" stroke="#333"/><text x="271.4" y="356.0" text-anchor="middle" font-size="11">4</text><line x1="540.0" y1="340.0" x2="540.0" y2="345.0" stroke="#333"/><text x="540.0" y="356.0" text-anchor="middle" font-size="11">8</text><line x1="70.0" y1="340.0" x2="65.0" y2="340.0" stroke="#333"/><text x="62.0" y="344.0" text-anchor="end" font-size="10">0.0</text><line x1="70.0" y1="280.0" x2="65.0" y2="280.0" stroke="#333"/><text x="62.0" y="284.0" text-anchor="end" font-size="10">92.2</text><line x1="70.0" y1="220.0" x2="65.0" y2="220.0" stroke="#333"/><text x="62.0" y="224.0" text-anchor="end" font-size="10">184.4</text><line x1="70.0" y1="160.0" x2="65.0" y2="160.0" stroke="#333"/><text x="62.0" y="164.0" text-anchor="end" font-size="10">276.6</text><line x1="70.0" y1="100.0" x2="65.0" y2="100.0" stroke="#333"/><text x="62.0" y="104.0" text-anchor="end" font-size="10">368.7</text><line x1="70.0" y1="40.0" x2="65.0" y2="40.0" stroke="#333"/><text x="62.0" y="44.0" text-anchor="end" font-size="10">460.9</text><path d="M70.0,76.0 L70.0,75.4 L70.0,67.3 L137.1,204.1 L137.1,202.4 L137.1,200.5 L271.4,271.3 L271.4,269.3 L271.4,267.9 L540.0,304.5 L540.0,303.9 L540.0,302.7" stroke="#e74c3c" fill="none" stroke-width="2"/><circle cx="70.0" cy="76.0" r="4" fill="#e74c3c"/><circle cx="70.0" cy="75.4" r="4" fill="#e74c3c"/><circle cx="70.0" cy="67.3" r="4" fill="#e74c3c"/><circle cx="137.1" cy="204.1" r="4" fill="#e74c3c"/><circle cx="137.1" cy="202.4" r="4" fill="#e74c3c"/><circle cx="137.1" cy="200.5" r="4" fill="#e74c3c"/><circle cx="271.4" cy="271.3" r="4" fill="#e74c3c"/><circle cx="271.4" cy="269.3" r="4" fill="#e74c3c"/><circle cx="271.4" cy="267.9" r="4" fill="#e74c3c"/><circle cx="540.0" cy="304.5" r="4" fill="#e74c3c"/><circle cx="540.0" cy="303.9" r="4" fill="#e74c3c"/><circle cx="540.0" cy="302.7" r="4" fill="#e74c3c"/><path d="M70.0,298.2 L70.0,292.9 L70.0,290.1 L137.1,317.6 L137.1,314.3 L137.1,314.1 L271.4,328.8 L271.4,328.4 L271.4,327.7 L540.0,334.3 L540.0,333.5 L540.0,333.1" stroke="#3498db" fill="none" stroke-width="2"/><circle cx="70.0" cy="298.2" r="4" fill="#3498db"/><circle cx="70.0" cy="292.9" r="4" fill="#3498db"/><circle cx="70.0" cy="290.1" r="4" fill="#3498db"/><circle cx="137.1" cy="317.6" r="4" fill="#3498db"/><circle cx="137.1" cy="314.3" r="4" fill="#3498db"/><circle cx="137.1" cy="314.1" r="4" fill="#3498db"/><circle cx="271.4" cy="328.8" r="4" fill="#3498db"/><circle cx="271.4" cy="328.4" r="4" fill="#3498db"/><circle cx="271.4" cy="327.7" r="4" fill="#3498db"/><circle cx="540.0" cy="334.3" r="4" fill="#3498db"/><circle cx="540.0" cy="333.5" r="4" fill="#3498db"/><circle cx="540.0" cy="333.1" r="4" fill="#3498db"/><g transform="translate(80,50)"><line x1="0" y1="6" x2="20" y2="6" stroke="#e74c3c" stroke-width="2"/><text x="24" y="10" font-size="10">Thermal update</text></g><g transform="translate(80,68)"><line x1="0" y1="6" x2="20" y2="6" stroke="#3498db" stroke-width="2"/><text x="24" y="10" font-size="10">Geometry update</text></g><text x="280" y="390" text-anchor="middle" font-size="12">Number of Threads</text><text x="14" y="200" text-anchor="middle" font-size="12" transform="rotate(-90 14 200)">Time (ms)</text></svg>